{
.appVersion = "3251";
.formatVersion = 3;
axes = (
{
name = Weight;
tag = wght;
}
);
classes = (
{
automatic = 1;

glyphs = (
{
glyphname = A;
kernLeft = A;
kernRight = A;
lastChange = "2024-04-12 10:11:14 +0000";
layers = (
{
anchors = (
{
name = bottom;
pos = (714,0);
},
{
name = ogonek;
pos = (1342,0);
},
{
name = top;
pos = (714,1446);
}
);
background = {
anchors = (
{
name = bottom;
pos = (714,0);
},
{
name = ogonek;
pos = (1342,0);
},
{
name = top;
pos = (714,1446);
}
);
shapes = (
{
closed = 1;
nodes = (
(295,0,l),
(734,1258,l),
(704,1259,l),
(1137,0,l),
(1342,0,l),
(802,1446,l),
(625,1446,l),
(86,0,l)
);
},
{
closed = 1;
nodes = (
(1123,282,l),
(1077,430,l),
(354,430,l),
(306,282,l)
);
}
);
};
layerId = "F85E8FEC-B3CD-4A54-BF30-AB1986ECE904";
shapes = (
{
closed = 1;
nodes = (
(295,0,l),
(734,1258,l),
(704,1259,l),
(1137,0,l),
(1342,0,l),
(802,1446,l),
(625,1446,l),
(86,0,l)
);
},
{
closed = 1;
nodes = (
(1123,282,l),
(1077,430,l),
(354,430,l),
(306,282,l)
);
}
);
width = 1428;
},
{
anchors = (
{
name = bottom;
pos = (756,0);
},
{
name = ogonek;
pos = (1442,0);
},
{
name = top;
pos = (756,1476);
}
);
background = {
anchors = (
{
name = bottom;
pos = (756,0);
},
{
name = ogonek;
pos = (1442,0);
},
{
name = top;
pos = (756,1476);
}
);
shapes = (
{
closed = 1;
nodes = (
(380,0,l),
(773,1298,l),
(747,1298,l),
(1127,0,l),
(1442,0,l),
(950,1476,l),
(556,1476,l),
(70,0,l)
);
},
{
closed = 1;
nodes = (
(1161,281,l),
(1104,511,l),
(410,511,l),
(351,281,l)
);
}
);
};
layerId = "C6C96970-2BBD-4A47-8C90-C83F37B7F23D";
shapes = (
{
closed = 1;
nodes = (
(380,0,l),
(773,1298,l),
(747,1298,l),
(1127,0,l),
(1442,0,l),
(950,1476,l),
(556,1476,l),
(70,0,l)
);
},
{
closed = 1;
nodes = (
(1161,281,l),
(1104,511,l),
(410,511,l),
(351,281,l)
);
}
);
width = 1512;
}
);
unicode = 65;
},
{
glyphname = Aacute;
kernLeft = A;
kernRight = A;
lastChange = "2024-04-12 10:11:21 +0000";
layers = (
{
background = {
anchors = (
{
name = bottom;
pos = (714,0);
},
{
name = ogonek;
pos = (1342,0);
},
{
name = top;
pos = (714,1982);
}
);
shapes = (
{
closed = 1;
nodes = (
(295,0,l),
(734,1258,l),
(704,1259,l),
(1137,0,l),
(1342,0,l),
(802,1446,l),
(625,1446,l),
(86,0,l)
);
},
{
closed = 1;
nodes = (
(1123,282,l),
(1077,430,l),
(354,430,l),
(306,282,l)
);
},
{
closed = 1;
nodes = (
(584,1632,l),
(712,1632,l),
(974,1982,l),
(749,1982,l)
);
}
);
};
layerId = "F85E8FEC-B3CD-4A54-BF30-AB1986ECE904";
shapes = (
{
ref = A;
},
{
pos = (714,0);
ref = acutecomb.case;
}
);
width = 1428;
},
{
background = {
anchors = (
{
name = bottom;
pos = (756,0);
},
{
name = ogonek;
pos = (1442,0);
},
{
name = top;
pos = (756,2022);
}
);
shapes = (
{
closed = 1;
nodes = (
(380,0,l),
(773,1298,l),
(747,1298,l),
(1127,0,l),
(1442,0,l),
(950,1476,l),
(556,1476,l),
(70,0,l)
);
},
{
closed = 1;
nodes = (
(1161,281,l),
(1104,511,l),
(410,511,l),
(351,281,l)
);
},
{
closed = 1;
nodes = (
(596,1657,l),
(795,1657,l),
(1076,2022,l),
(758,2022,l)
);
}
);
};
layerId = "C6C96970-2BBD-4A47-8C90-C83F37B7F23D";
shapes = (
{
ref = A;
},
{
pos = (756,0);
ref = acutecomb.case;
}
);
width = 1512;
}
);
unicode = 193;
},
{
glyphname = Abreve;
kernLeft = A;
kernRight = A;
lastChange = "2024-04-12 10:11:21 +0000";
layers = (
{
background = {
anchors = (
{
name = bottom;
pos = (714,0);
},
{
name = ogonek;
pos = (1342,0);
},
{
name = top;
pos = (714,1949);
}
);
shapes = (
{
closed = 1;
nodes = (
(295,0,l),
(734,1258,l),
(704,1259,l),
(1137,0,l),
(1342,0,l),
(802,1446,l),
(625,1446,l),
(86,0,l)
);
},
{
closed = 1;
nodes = (
(1123,282,l),
(1077,430,l),
(354,430,l),
(306,282,l)
);
},
{
closed = 1;
nodes = (
(894,1651,o),
(1015,1744,o),
(1015,1949,c),
(879,1949,l),
(879,1862,o),
(826,1806,o),
(714,1806,cs),
(601,1806,o),
(548,1862,o),
(548,1949,c),
(413,1949,l),
(413,1744,o),
(533,1651,o),
(714,1651,cs)
);
}
);
};
layerId = "F85E8FEC-B3CD-4A54-BF30-AB1986ECE904";
shapes = (
{
ref = A;
},
{
pos = (714,0);
ref = brevecomb.case;
}
);
width = 1428;
},
{
background = {
anchors = (
{
name = bottom;
pos = (756,0);
},
{
name = ogonek;
pos = (1442,0);
},
{
name = top;
pos = (756,1978);
}
);
shapes = (
{
closed = 1;
nodes = (
(380,0,l),
(773,1298,l),
(747,1298,l),
(1127,0,l),
(1442,0,l),
(950,1476,l),
(556,1476,l),
(70,0,l)
);
},
{
closed = 1;
nodes = (
(1161,281,l),
(1104,511,l),
(410,511,l),
(351,281,l)
);
},
{
closed = 1;
nodes = (
(965,1640,o),
(1095,1758,o),
(1095,1978,c),
(895,1978,l),
(895,1891,o),
(856,1845,o),
(756,1845,cs),
(656,1845,o),
(617,1891,o),
(617,1978,c),
(417,1978,l),
(417,1758,o),
(547,1640,o),
(756,1640,cs)
);
}
);
};
layerId = "C6C96970-2BBD-4A47-8C90-C83F37B7F23D";
shapes = (
{
ref = A;
},
{
pos = (756,0);
ref = brevecomb.case;
}
);
width = 1512;
}
);
unicode = 258;
},
{
glyphname = Abreveacute;
kernLeft = A;
kernRight = A;
lastChange = "2024-04-12 10:11:21 +0000";
layers = (
{
background = {
anchors = (
{
name = bottom;
pos = (714,0);
},
{
name = ogonek;
pos = (1342,0);
},
{
name = top;
pos = (714,2218);
}
);
shapes = (
{
closed = 1;
nodes = (
(295,0,l),
(734,1258,l),
(704,1259,l),
(1137,0,l),
(1342,0,l),
(802,1446,l),
(625,1446,l),
(86,0,l)
);
},
{
closed = 1;
nodes = (
(1123,282,l),
(1077,430,l),
(354,430,l),
(306,282,l)
);
},
{
closed = 1;
nodes = (
(894,1621,o),
(1015,1714,o),
(1015,1939,c),
(879,1939,l),
(879,1837,o),
(826,1763,o),
(714,1763,cs),
(601,1763,o),
(548,1837,o),
(548,1939,c),
(413,1939,l),
(413,1714,o),
(533,1621,o),
(714,1621,cs)
);
},
{
closed = 1;
nodes = (
(762,1908,l),
(954,2218,l),
(729,2218,l),
(634,1908,l)
);
}
);
};
layerId = "F85E8FEC-B3CD-4A54-BF30-AB1986ECE904";
shapes = (
{
ref = A;
},
{
pos = (714,386);
ref = brevecomb_acutecomb;
}
);
width = 1428;
},
{
background = {
anchors = (
{
name = bottom;
pos = (756,0);
},
{
name = ogonek;
pos = (1442,0);
},
{
name = top;
pos = (756,2295);
}
);
shapes = (
{
closed = 1;
nodes = (
(380,0,l),
(773,1298,l),
(747,1298,l),
(1127,0,l),
(1442,0,l),
(950,1476,l),
(556,1476,l),
(70,0,l)
);
},
{
closed = 1;
nodes = (
(1161,281,l),
(1104,511,l),
(410,511,l),
(351,281,l)
);
},
{
closed = 1;
nodes = (
(945,1638,o),
(1095,1721,o),
(1095,1991,c),
(923,1991,l),
(923,1884,o),
(864,1813,o),
(756,1813,cs),
(648,1813,o),
(589,1884,o),
(589,1991,c),
(417,1991,l),
(417,1721,o),
(567,1638,o),
(756,1638,cs)
);
},
{
closed = 1;
nodes = (
(825,1960,l),
(1046,2295,l),
(778,2295,l),
(676,1960,l)
);
}
);
};
layerId = "C6C96970-2BBD-4A47-8C90-C83F37B7F23D";
shapes = (
{
ref = A;
},
{
pos = (756,402);
ref = brevecomb_acutecomb;
}
);
width = 1512;
}
);
unicode = 7854;
},
{
glyphname = Abrevedotbelow;
kernLeft = A;
kernRight = A;
lastChange = "2024-04-12 10:11:21 +0000";
layers = (
{
background = {
anchors = (
{
name = bottom;
pos = (714,-343);
},
{
name = ogonek;
pos = (1342,0);
},
{
name = top;
pos = (714,1949);
}
);
shapes = (
{
closed = 1;
nodes = (
(295,0,l),
(734,1258,l),
(704,1259,l),
(1137,0,l),
(1342,0,l),
(802,1446,l),
(625,1446,l),
(86,0,l)
);
},
{
closed = 1;
nodes = (
(1123,282,l),
(1077,430,l),
(354,430,l),
(306,282,l)
);
},
{
closed = 1;
nodes = (
(617,-343,l),
(811,-343,l),
(811,-135,l),
(617,-135,l)
);
},
{
closed = 1;
nodes = (
(894,1651,o),
(1015,1744,o),
(1015,1949,c),
(879,1949,l),
(879,1862,o),
(826,1806,o),
(714,1806,cs),
(601,1806,o),
(548,1862,o),
(548,1949,c),
(413,1949,l),
(413,1744,o),
(533,1651,o),
(714,1651,cs)
);
}
);
};
layerId = "F85E8FEC-B3CD-4A54-BF30-AB1986ECE904";
shapes = (
{
ref = A;
},
{
pos = (714,0);
ref = dotbelowcomb.case;
},
{
pos = (714,0);
ref = brevecomb.case;
}
);
width = 1428;
},
{
background = {
anchors = (
{
name = bottom;
pos = (756,-382);
},
{
name = ogonek;
pos = (1442,0);
},
{
name = top;
pos = (756,1978);
}
);
shapes = (
{
closed = 1;
nodes = (
(380,0,l),
(773,1298,l),
(747,1298,l),
(1127,0,l),
(1442,0,l),
(950,1476,l),
(556,1476,l),
(70,0,l)
);
},
{
closed = 1;
nodes = (
(1161,281,l),
(1104,511,l),
(410,511,l),
(351,281,l)
);
},
{
closed = 1;
nodes = (
(629,-382,l),
(883,-382,l),
(883,-117,l),
(629,-117,l)
);
},
{
closed = 1;
nodes = (
(965,1640,o),
(1095,1758,o),
(1095,1978,c),
(895,1978,l),
(895,1891,o),
(856,1845,o),
(756,1845,cs),
(656,1845,o),
(617,1891,o),
(617,1978,c),
(417,1978,l),
(417,1758,o),
(547,1640,o),
(756,1640,cs)
);
}
);
};
layerId = "C6C96970-2BBD-4A47-8C90-C83F37B7F23D";
shapes = (
{
ref = A;
},
{
pos = (756,0);
ref = dotbelowcomb.case;
},
{
pos = (756,0);
ref = brevecomb.case;
}
);
width = 1512;
}
);
unicode = 7862;
},
{
glyphname = Abrevegrave;
kernLeft = A;
kernRight = A;
lastChange = "2024-04-12 10:11:21 +0000";
layers = (
{
background = {
anchors = (
{
name = bottom;
pos = (714,0);
},
{
name = ogonek;
pos = (1342,0);
},
{
name = top;
pos = (714,2218);
}
);
shapes = (
{
closed = 1;
nodes = (
(295,0,l),
(734,1258,l),
(704,1259,l),
(1137,0,l),
(1342,0,l),
(802,1446,l),
(625,1446,l),
(86,0,l)
);
},
{
closed = 1;
nodes = (
(1123,282,l),
(1077,430,l),
(354,430,l),
(306,282,l)
);
},
{
closed = 1;
nodes = (
(895,1621,o),
(1015,1714,o),
(1015,1939,c),
(880,1939,l),
(880,1837,o),
(827,1763,o),
(714,1763,cs),
(602,1763,o),
(549,1837,o),
(549,1939,c),
(413,1939,l),
(413,1714,o),
(534,1621,o),
(714,1621,cs)
);
},
{
closed = 1;
nodes = (
(474,2218,l),
(656,1908,l),
(784,1908,l),
(699,2218,l)
);
}
);
};
layerId = "F85E8FEC-B3CD-4A54-BF30-AB1986ECE904";
shapes = (
{
ref = A;
},
{
pos = (714,386);
ref = brevecomb_gravecomb;
}
);
width = 1428;
},
{
background = {
anchors = (
{
name = bottom;
pos = (756,0);
},
{
name = ogonek;
pos = (1442,0);
},
{
name = top;
pos = (756,2295);
}
);
shapes = (
{
closed = 1;
nodes = (
(380,0,l),
(773,1298,l),
(747,1298,l),
(1127,0,l),
(1442,0,l),
(950,1476,l),
(556,1476,l),
(70,0,l)
);
},
{
closed = 1;
nodes = (
(1161,281,l),
(1104,511,l),
(410,511,l),
(351,281,l)
);
},
{
closed = 1;
nodes = (
(945,1638,o),
(1095,1721,o),
(1095,1991,c),
(923,1991,l),
(923,1884,o),
(864,1813,o),
(756,1813,cs),
(648,1813,o),
(589,1884,o),
(589,1991,c),
(417,1991,l),
(417,1721,o),
(567,1638,o),
(756,1638,cs)
);
},
{
closed = 1;
nodes = (
(496,2295,l),
(697,1960,l),
(846,1960,l),
(764,2295,l)
);
}
);
};
layerId = "C6C96970-2BBD-4A47-8C90-C83F37B7F23D";
shapes = (
{
ref = A;
},
{
pos = (756,402);
ref = brevecomb_gravecomb;
}
);
width = 1512;
}
);
unicode = 7856;
},
{
glyphname = Abrevehookabove;
kernLeft = A;
kernRight = A;
lastChange = "2024-04-12 10:11:21 +0000";
layers = (
{
background = {
anchors = (
{
name = bottom;
pos = (714,0);
},
{
name = ogonek;
pos = (1342,0);
},
{
name = top;
pos = (714,2383);
}
);
shapes = (
{
closed = 1;
nodes = (
(295,0,l),
(734,1258,l),
(704,1259,l),
(1137,0,l),
(1342,0,l),
(802,1446,l),
(625,1446,l),
(86,0,l)
);
},
{
closed = 1;
nodes = (
(1123,282,l),
(1077,430,l),
(354,430,l),
(306,282,l)
);
},
{
closed = 1;
nodes = (
(533,1621,o),
(714,1621,cs),
(894,1621,o),
(1015,1714,o),
(1015,1939,c),
(879,1939,l),
(879,1837,o),
(826,1763,o),
(714,1763,cs),
(601,1763,o),
(548,1837,o),
(548,1939,c),
(413,1939,l),
(413,1714,o)
);
},
{
closed = 1;
nodes = (
(842,1986,o),
(913,2048,o),
(913,2175,cs),
(913,2292,o),
(826,2383,o),
(686,2383,cs),
(572,2383,o),
(486,2332,o),
(454,2233,c),
(582,2183,l),
(591,2223,o),
(629,2253,o),
(685,2253,cs),
(740,2253,o),
(771,2223,o),
(771,2173,cs),
(771,2124,o),
(748,2081,o),
(649,2049,c),
(704,1938,l)
);
}
);
};
layerId = "F85E8FEC-B3CD-4A54-BF30-AB1986ECE904";
shapes = (
{
ref = A;
},
{
pos = (714,386);
ref = brevecomb_hookabovecomb;
}
);
width = 1428;
},
{
background = {
anchors = (
{
name = bottom;
pos = (756,0);
},
{
name = ogonek;
pos = (1442,0);
},
{
name = top;
pos = (756,2420);
}
);
shapes = (
{
closed = 1;
nodes = (
(380,0,l),
(773,1298,l),
(747,1298,l),
(1127,0,l),
(1442,0,l),
(950,1476,l),
(556,1476,l),
(70,0,l)
);
},
{
closed = 1;
nodes = (
(1161,281,l),
(1104,511,l),
(410,511,l),
(351,281,l)
);
},
{
closed = 1;
nodes = (
(567,1638,o),
(756,1638,cs),
(945,1638,o),
(1095,1741,o),
(1095,1991,c),
(923,1991,l),
(923,1884,o),
(864,1813,o),
(756,1813,cs),
(648,1813,o),
(589,1884,o),
(589,1991,c),
(417,1991,l),
(417,1741,o)
);
},
{
closed = 1;
nodes = (
(878,1987,o),
(955,2055,o),
(955,2193,cs),
(955,2321,o),
(860,2420,o),
(708,2420,cs),
(583,2420,o),
(489,2365,o),
(455,2256,c),
(610,2197,l),
(624,2252,o),
(663,2272,o),
(706,2272,cs),
(748,2272,o),
(782,2246,o),
(782,2191,cs),
(782,2137,o),
(751,2102,o),
(662,2066,c),
(728,1932,l)
);
}
);
};
layerId = "C6C96970-2BBD-4A47-8C90-C83F37B7F23D";
shapes = (
{
ref = A;
},
{
pos = (756,402);
ref = brevecomb_hookabovecomb;
}
);
width = 1512;
}
);
unicode = 7858;
},
{
glyphname = Abrevetilde;
kernLeft = A;
kernRight = A;
lastChange = "2024-04-12 10:11:21 +0000";
layers = (
{
background = {
anchors = (
{
name = bottom;
pos = (714,0);
},
{
name = ogonek;
pos = (1342,0);
},
{
name = top;
pos = (714,2235);
}
);
shapes = (
{
closed = 1;
nodes = (
(295,0,l),
(734,1258,l),
(704,1259,l),
(1137,0,l),
(1342,0,l),
(802,1446,l),
(625,1446,l),
(86,0,l)
);
},
{
closed = 1;
nodes = (
(1123,282,l),
(1077,430,l),
(354,430,l),
(306,282,l)
);
},
{
closed = 1;
nodes = (
(894,1621,o),
(1015,1714,o),
(1015,1939,c),
(879,1939,l),
(879,1837,o),
(826,1763,o),
(714,1763,cs),
(601,1763,o),
(548,1837,o),
(548,1939,c),
(413,1939,l),
(413,1714,o),
(533,1621,o),
(714,1621,cs)
);
},
{
closed = 1;
nodes = (
(946,1992,o),
(1012,2056,o),
(1012,2221,c),
(905,2221,l),
(905,2159,o),
(876,2128,o),
(835,2128,cs),
(769,2128,o),
(742,2235,o),
(605,2235,cs),
(485,2235,o),
(419,2171,o),
(419,2006,c),
(526,2006,l),
(526,2068,o),
(555,2099,o),
(596,2099,cs),
(662,2099,o),
(689,1992,o),
(826,1992,cs)
);
}
);
};
layerId = "F85E8FEC-B3CD-4A54-BF30-AB1986ECE904";
shapes = (
{
ref = A;
},
{
pos = (714,386);
ref = brevecomb_tildecomb;
}
);
width = 1428;
},
{
background = {
anchors = (
{
name = bottom;
pos = (756,0);
},
{
name = ogonek;
pos = (1442,0);
},
{
name = top;
pos = (756,2327);
}
);
shapes = (
{
closed = 1;
nodes = (
(380,0,l),
(773,1298,l),
(747,1298,l),
(1127,0,l),
(1442,0,l),
(950,1476,l),
(556,1476,l),
(70,0,l)
);
},
{
closed = 1;
nodes = (
(1161,281,l),
(1104,511,l),
(410,511,l),
(351,281,l)
);
},
{
closed = 1;
nodes = (
(945,1638,o),
(1095,1741,o),
(1095,1991,c),
(923,1991,l),
(923,1884,o),
(864,1813,o),
(756,1813,cs),
(648,1813,o),
(589,1884,o),
(589,1991,c),
(417,1991,l),
(417,1741,o),
(567,1638,o),
(756,1638,cs)
);
},
{
closed = 1;
nodes = (
(1018,2051,o),
(1109,2124,o),
(1109,2311,c),
(975,2311,l),
(975,2242,o),
(943,2219,o),
(903,2219,cs),
(826,2219,o),
(805,2327,o),
(630,2327,cs),
(494,2327,o),
(403,2254,o),
(403,2067,c),
(537,2067,l),
(537,2134,o),
(563,2160,o),
(601,2160,cs),
(681,2160,o),
(708,2051,o),
(882,2051,cs)
);
}
);
};
layerId = "C6C96970-2BBD-4A47-8C90-C83F37B7F23D";
shapes = (
{
ref = A;
},
{
pos = (756,402);
ref = brevecomb_tildecomb;
}
);
width = 1512;
}
);
unicode = 7860;
},
{
glyphname = Acaron;
kernLeft = A;
kernRight = A;
lastChange = "2024-04-12 10:11:21 +0000";
layers = (
{
background = {
anchors = (
{
name = bottom;
pos = (714,0);
},
{
name = ogonek;
pos = (1342,0);
},
{
name = top;
pos = (714,1955);
}
);
shapes = (
{
closed = 1;
nodes = (
(295,0,l),
(734,1258,l),
(704,1259,l),
(1137,0,l),
(1342,0,l),
(802,1446,l),
(625,1446,l),
(86,0,l)
);
},
{
closed = 1;
nodes = (
(1123,282,l),
(1077,430,l),
(354,430,l),
(306,282,l)
);
},
{
closed = 1;
nodes = (
(802,1635,l),
(1057,1955,l),
(919,1955,l),
(663,1725,l),
(767,1725,l),
(510,1955,l),
(372,1955,l),
(627,1635,l)
);
}
);
};
layerId = "F85E8FEC-B3CD-4A54-BF30-AB1986ECE904";
shapes = (
{
ref = A;
},
{
pos = (715,0);
ref = caroncomb.case;
}
);
width = 1428;
},
{
background = {
anchors = (
{
name = bottom;
pos = (756,0);
},
{
name = ogonek;
pos = (1442,0);
},
{
name = top;
pos = (756,1993);
}
);
shapes = (
{
closed = 1;
nodes = (
(380,0,l),
(773,1298,l),
(747,1298,l),
(1127,0,l),
(1442,0,l),
(950,1476,l),
(556,1476,l),
(70,0,l)
);
},
{
closed = 1;
nodes = (
(1161,281,l),
(1104,511,l),
(410,511,l),
(351,281,l)
);
},
{
closed = 1;
nodes = (
(855,1638,l),
(1132,1993,l),
(953,1993,l),
(723,1788,l),
(790,1788,l),
(559,1993,l),
(380,1993,l),
(657,1638,l)
);
}
);
};
layerId = "C6C96970-2BBD-4A47-8C90-C83F37B7F23D";
shapes = (
{
ref = A;
},
{
pos = (756,0);
ref = caroncomb.case;
}
);
width = 1512;
}
);
unicode = 461;
},
{
glyphname = Acircumflex;
kernLeft = A;
kernRight = A;
lastChange = "2024-04-12 10:11:21 +0000";
layers = (
{
background = {
anchors = (
{
name = bottom;
pos = (714,0);
},
{
name = ogonek;
pos = (1342,0);
},
{
name = top;
pos = (714,1955);
}
);
shapes = (
{
closed = 1;
nodes = (
(295,0,l),
(734,1258,l),
(704,1259,l),
(1137,0,l),
(1342,0,l),
(802,1446,l),
(625,1446,l),
(86,0,l)
);
},
{
closed = 1;
nodes = (
(1123,282,l),
(1077,430,l),
(354,430,l),
(306,282,l)
);
},
{
closed = 1;
nodes = (
(510,1635,l),
(767,1865,l),
(663,1865,l),
(919,1635,l),
(1057,1635,l),
(802,1955,l),
(627,1955,l),
(372,1635,l)
);
}
);
};
layerId = "F85E8FEC-B3CD-4A54-BF30-AB1986ECE904";
shapes = (
{
ref = A;
},
{
pos = (715,0);
ref = circumflexcomb.case;
}
);
width = 1428;
},
{
background = {
anchors = (
{
name = bottom;
pos = (756,0);
},
{
name = ogonek;
pos = (1442,0);
},
{
name = top;
pos = (756,1993);
}
);
shapes = (
{
closed = 1;
nodes = (
(380,0,l),
(773,1298,l),
(747,1298,l),
(1127,0,l),
(1442,0,l),
(950,1476,l),
(556,1476,l),
(70,0,l)
);
},
{
closed = 1;
nodes = (
(1161,281,l),
(1104,511,l),
(410,511,l),
(351,281,l)
);
},
{
closed = 1;
nodes = (
(559,1638,l),
(790,1843,l),
(723,1843,l),
(953,1638,l),
(1132,1638,l),
(855,1993,l),
(657,1993,l),
(380,1638,l)
);
}
);
};
layerId = "C6C96970-2BBD-4A47-8C90-C83F37B7F23D";
shapes = (
{
ref = A;
},
{
pos = (756,0);
ref = circumflexcomb.case;
}
);
width = 1512;
}
);
unicode = 194;
},
{
glyphname = Acircumflexacute;
kernLeft = A;
kernRight = A;
lastChange = "2024-04-12 10:11:21 +0000";
layers = (
{
background = {
anchors = (
{
name = bottom;
pos = (714,0);
},
{
name = ogonek;
pos = (1342,0);
},
{
name = top;
pos = (714,2101);
}
);
shapes = (
{
closed = 1;
nodes = (
(295,0,l),
(734,1258,l),
(704,1259,l),
(1137,0,l),
(1342,0,l),
(802,1446,l),
(625,1446,l),
(86,0,l)
);
},
{
closed = 1;
nodes = (
(1123,282,l),
(1077,430,l),
(354,430,l),
(306,282,l)
);
},
{
closed = 1;
nodes = (
(509,1611,l),
(766,1841,l),
(662,1841,l),
(918,1611,l),
(1056,1611,l),
(801,1931,l),
(626,1931,l),
(371,1611,l)
);
},
{
closed = 1;
nodes = (
(1007,1851,l),
(1177,2101,l),
(972,2101,l),
(899,1851,l)
);
}
);
};
layerId = "F85E8FEC-B3CD-4A54-BF30-AB1986ECE904";
shapes = (
{
ref = A;
},
{
pos = (714,386);
ref = circumflexcomb_acutecomb;
}
);
width = 1428;
},
{
background = {
anchors = (
{
name = bottom;
pos = (756,0);
},
{
name = ogonek;
pos = (1442,0);
},
{
name = top;
pos = (756,2201);
}
);
shapes = (
{
closed = 1;
nodes = (
(380,0,l),
(773,1298,l),
(747,1298,l),
(1127,0,l),
(1442,0,l),
(950,1476,l),
(556,1476,l),
(70,0,l)
);
},
{
closed = 1;
nodes = (
(1161,281,l),
(1104,511,l),
(410,511,l),
(351,281,l)
);
},
{
closed = 1;
nodes = (
(558,1658,l),
(789,1863,l),
(722,1863,l),
(952,1658,l),
(1131,1658,l),
(854,2013,l),
(656,2013,l),
(379,1658,l)
);
},
{
closed = 1;
nodes = (
(1109,1932,l),
(1300,2201,l),
(1052,2201,l),
(980,1932,l)
);
}
);
};
layerId = "C6C96970-2BBD-4A47-8C90-C83F37B7F23D";
shapes = (
{
ref = A;
},
{
pos = (755,402);
ref = circumflexcomb_acutecomb;
}
);
width = 1512;
}
);
unicode = 7844;
},
{
glyphname = Acircumflexdotbelow;
kernLeft = A;
kernRight = A;
lastChange = "2024-04-12 10:11:21 +0000";
layers = (
{
background = {
anchors = (
{
name = bottom;
pos = (714,-343);
},
{
name = ogonek;
pos = (1342,0);
},
{
name = top;
pos = (714,1955);
}
);
shapes = (
{
closed = 1;
nodes = (
(295,0,l),
(734,1258,l),
(704,1259,l),
(1137,0,l),
(1342,0,l),
(802,1446,l),
(625,1446,l),
(86,0,l)
);
},
{
closed = 1;
nodes = (
(1123,282,l),
(1077,430,l),
(354,430,l),
(306,282,l)
);
},
{
closed = 1;
nodes = (
(617,-343,l),
(811,-343,l),
(811,-135,l),
(617,-135,l)
);
},
{
closed = 1;
nodes = (
(510,1635,l),
(767,1865,l),
(663,1865,l),
(919,1635,l),
(1057,1635,l),
(802,1955,l),
(627,1955,l),
(372,1635,l)
);
}
);
};
layerId = "F85E8FEC-B3CD-4A54-BF30-AB1986ECE904";
shapes = (
{
ref = A;
},
{
pos = (714,0);
ref = dotbelowcomb.case;
},
{
pos = (715,0);
ref = circumflexcomb.case;
}
);
width = 1428;
},
{
background = {
anchors = (
{
name = bottom;
pos = (756,-382);
},
{
name = ogonek;
pos = (1442,0);
},
{
name = top;
pos = (756,1993);
}
);
shapes = (
{
closed = 1;
nodes = (
(380,0,l),
(773,1298,l),
(747,1298,l),
(1127,0,l),
(1442,0,l),
(950,1476,l),
(556,1476,l),
(70,0,l)
);
},
{
closed = 1;
nodes = (
(1161,281,l),
(1104,511,l),
(410,511,l),
(351,281,l)
);
},
{
closed = 1;
nodes = (
(629,-382,l),
(883,-382,l),
(883,-117,l),
(629,-117,l)
);
},
{
closed = 1;
nodes = (
(559,1638,l),
(790,1843,l),
(723,1843,l),
(953,1638,l),
(1132,1638,l),
(855,1993,l),
(657,1993,l),
(380,1638,l)
);
}
);
};
layerId = "C6C96970-2BBD-4A47-8C90-C83F37B7F23D";
shapes = (
{
ref = A;
},
{
pos = (756,0);
ref = dotbelowcomb.case;
},
{
pos = (756,0);
ref = circumflexcomb.case;
}
);
width = 1512;
}
);
unicode = 7852;
},
{
glyphname = Acircumflexgrave;
kernLeft = A;
kernRight = A;
lastChange = "2024-04-12 10:11:21 +0000";
layers = (
{
background = {
anchors = (
{
name = bottom;
pos = (714,0);
},
{
name = ogonek;
pos = (1342,0);
},
{
name = top;
pos = (714,2101);
}
);
shapes = (
{
closed = 1;
nodes = (
(295,0,l),
(734,1258,l),
(704,1259,l),
(1137,0,l),
(1342,0,l),
(802,1446,l),
(625,1446,l),
(86,0,l)
);
},
{
closed = 1;
nodes = (
(1123,282,l),
(1077,430,l),
(354,430,l),
(306,282,l)
);
},
{
closed = 1;
nodes = (
(509,1611,l),
(766,1841,l),
(662,1841,l),
(918,1611,l),
(1056,1611,l),
(801,1931,l),
(626,1931,l),
(371,1611,l)
);
},
{
closed = 1;
nodes = (
(1119,1851,l),
(1046,2101,l),
(841,2101,l),
(1011,1851,l)
);
}
);
};
layerId = "F85E8FEC-B3CD-4A54-BF30-AB1986ECE904";
shapes = (
{
ref = A;
},
{
pos = (714,386);
ref = circumflexcomb_gravecomb;
}
);
width = 1428;
},
{
background = {
anchors = (
{
name = bottom;
pos = (756,0);
},
{
name = ogonek;
pos = (1442,0);
},
{
name = top;
pos = (756,2201);
}
);
shapes = (
{
closed = 1;
nodes = (
(380,0,l),
(773,1298,l),
(747,1298,l),
(1127,0,l),
(1442,0,l),
(950,1476,l),
(556,1476,l),
(70,0,l)
);
},
{
closed = 1;
nodes = (
(1161,281,l),
(1104,511,l),
(410,511,l),
(351,281,l)
);
},
{
closed = 1;
nodes = (
(559,1658,l),
(790,1863,l),
(723,1863,l),
(953,1658,l),
(1132,1658,l),
(855,2013,l),
(657,2013,l),
(380,1658,l)
);
},
{
closed = 1;
nodes = (
(1191,1932,l),
(1119,2201,l),
(871,2201,l),
(1062,1932,l)
);
}
);
};
layerId = "C6C96970-2BBD-4A47-8C90-C83F37B7F23D";
shapes = (
{
ref = A;
},
{
pos = (756,402);
ref = circumflexcomb_gravecomb;
}
);
width = 1512;
}
);
unicode = 7846;
},
{
glyphname = Acircumflexhookabove;
kernLeft = A;
kernRight = A;
lastChange = "2024-04-12 10:11:21 +0000";
layers = (
{
background = {
anchors = (
{
name = bottom;
pos = (714,0);
},
{
name = ogonek;
pos = (1342,0);
},
{
name = top;
pos = (777,2275);
}
);
shapes = (
{
closed = 1;
nodes = (
(295,0,l),
(734,1258,l),
(704,1259,l),
(1137,0,l),
(1342,0,l),
(802,1446,l),
(625,1446,l),
(86,0,l)
);
},
{
closed = 1;
nodes = (
(1123,282,l),
(1077,430,l),
(354,430,l),
(306,282,l)
);
},
{
closed = 1;
nodes = (
(509,1601,l),
(766,1851,l),
(662,1851,l),
(918,1601,l),
(1056,1601,l),
(801,1941,l),
(626,1941,l),
(371,1601,l)
);
},
{
closed = 1;
nodes = (
(1112,1878,o),
(1183,1940,o),
(1183,2067,cs),
(1183,2184,o),
(1096,2275,o),
(956,2275,cs),
(842,2275,o),
(756,2224,o),
(724,2125,c),
(852,2075,l),
(861,2115,o),
(899,2145,o),
(955,2145,cs),
(1010,2145,o),
(1041,2115,o),
(1041,2065,cs),
(1041,2016,o),
(1018,1973,o),
(919,1941,c),
(974,1830,l)
);
}
);
};
layerId = "F85E8FEC-B3CD-4A54-BF30-AB1986ECE904";
shapes = (
{
ref = A;
},
{
pos = (714,386);
ref = circumflexcomb_hookabovecomb;
}
);
width = 1428;
},
{
background = {
anchors = (
{
name = bottom;
pos = (756,0);
},
{
name = ogonek;
pos = (1442,0);
},
{
name = top;
pos = (756,2397);
}
);
shapes = (
{
closed = 1;
nodes = (
(380,0,l),
(773,1298,l),
(747,1298,l),
(1127,0,l),
(1442,0,l),
(950,1476,l),
(556,1476,l),
(70,0,l)
);
},
{
closed = 1;
nodes = (
(1161,281,l),
(1104,511,l),
(410,511,l),
(351,281,l)
);
},
{
closed = 1;
nodes = (
(559,1658,l),
(790,1873,l),
(723,1873,l),
(953,1658,l),
(1132,1658,l),
(855,2023,l),
(657,2023,l),
(380,1658,l)
);
},
{
closed = 1;
nodes = (
(1205,1944,o),
(1282,2022,o),
(1282,2156,cs),
(1282,2298,o),
(1187,2397,o),
(1025,2397,cs),
(900,2397,o),
(806,2342,o),
(772,2233,c),
(927,2174,l),
(941,2229,o),
(980,2249,o),
(1023,2249,cs),
(1075,2249,o),
(1109,2223,o),
(1109,2162,cs),
(1109,2104,o),
(1078,2059,o),
(989,2023,c),
(1055,1889,l)
);
}
);
};
layerId = "C6C96970-2BBD-4A47-8C90-C83F37B7F23D";
shapes = (
{
ref = A;
},
{
pos = (756,402);
ref = circumflexcomb_hookabovecomb;
}
);
width = 1512;
}
);
unicode = 7848;
},
{
glyphname = Acircumflextilde;
kernLeft = A;
kernRight = A;
lastChange = "2024-04-12 10:11:21 +0000";
layers = (
{
background = {
anchors = (
{
name = bottom;
pos = (714,0);
},
{
name = ogonek;
pos = (1342,0);
},
{
name = top;
pos = (714,2242);
}
);
shapes = (
{
closed = 1;
nodes = (
(295,0,l),
(734,1258,l),
(704,1259,l),
(1137,0,l),
(1342,0,l),
(802,1446,l),
(625,1446,l),
(86,0,l)
);
},
{
closed = 1;
nodes = (
(1123,282,l),
(1077,430,l),
(354,430,l),
(306,282,l)
);
},
{
closed = 1;
nodes = (
(510,1601,l),
(767,1851,l),
(663,1851,l),
(919,1601,l),
(1057,1601,l),
(802,1941,l),
(627,1941,l),
(372,1601,l)
);
},
{
closed = 1;
nodes = (
(949,1999,o),
(1015,2063,o),
(1015,2228,c),
(918,2228,l),
(918,2166,o),
(889,2135,o),
(848,2135,cs),
(777,2135,o),
(745,2242,o),
(608,2242,cs),
(488,2242,o),
(422,2178,o),
(422,2013,c),
(519,2013,l),
(519,2075,o),
(548,2106,o),
(589,2106,cs),
(660,2106,o),
(692,1999,o),
(829,1999,cs)
);
}
);
};
layerId = "F85E8FEC-B3CD-4A54-BF30-AB1986ECE904";
shapes = (
{
ref = A;
},
{
pos = (715,386);
ref = circumflexcomb_tildecomb;
}
);
width = 1428;
},
{
background = {
anchors = (
{
name = bottom;
pos = (756,0);
},
{
name = ogonek;
pos = (1442,0);
},
{
name = top;
pos = (756,2355);
}
);
shapes = (
{
closed = 1;
nodes = (
(380,0,l),
(773,1298,l),
(747,1298,l),
(1127,0,l),
(1442,0,l),
(950,1476,l),
(556,1476,l),
(70,0,l)
);
},
{
closed = 1;
nodes = (
(1161,281,l),
(1104,511,l),
(410,511,l),
(351,281,l)
);
},
{
closed = 1;
nodes = (
(559,1627,l),
(790,1842,l),
(723,1842,l),
(953,1627,l),
(1132,1627,l),
(855,1992,l),
(657,1992,l),
(380,1627,l)
);
},
{
closed = 1;
nodes = (
(1017,2079,o),
(1108,2152,o),
(1108,2339,c),
(974,2339,l),
(974,2276,o),
(942,2253,o),
(902,2253,cs),
(825,2253,o),
(804,2355,o),
(629,2355,cs),
(493,2355,o),
(402,2282,o),
(402,2095,c),
(536,2095,l),
(536,2156,o),
(562,2182,o),
(600,2182,cs),
(680,2182,o),
(707,2079,o),
(881,2079,cs)
);
}
);
};
layerId = "C6C96970-2BBD-4A47-8C90-C83F37B7F23D";
shapes = (
{
ref = A;
},
{
pos = (756,402);
ref = circumflexcomb_tildecomb;
}
);
width = 1512;
}
);
unicode = 7850;
},
{
glyphname = Adblgrave;
kernLeft = A;
kernRight = A;
lastChange = "2024-04-12 10:11:21 +0000";
layers = (
{
background = {
anchors = (
{
name = bottom;
pos = (714,0);
},
{
name = ogonek;
pos = (1342,0);
},
{
name = top;
pos = (714,1941);
}
);
shapes = (
{
closed = 1;
nodes = (
(295,0,l),
(734,1258,l),
(704,1259,l),
(1137,0,l),
(1342,0,l),
(802,1446,l),
(625,1446,l),
(86,0,l)
);
},
{
closed = 1;
nodes = (
(1123,282,l),
(1077,430,l),
(354,430,l),
(306,282,l)
);
},
{
closed = 1;
nodes = (
(924,1591,l),
(882,1941,l),
(684,1941,l),
(813,1591,l)
);
},
{
closed = 1;
nodes = (
(643,1591,l),
(601,1941,l),
(403,1941,l),
(532,1591,l)
);
}
);
};
layerId = "F85E8FEC-B3CD-4A54-BF30-AB1986ECE904";
shapes = (
{
ref = A;
},
{
pos = (714,0);
ref = dblgravecomb.case;
}
);
width = 1428;
},
{
background = {
anchors = (
{
name = bottom;
pos = (756,0);
},
{
name = ogonek;
pos = (1442,0);
},
{
name = top;
pos = (756,1995);
}
);
shapes = (
{
closed = 1;
nodes = (
(380,0,l),
(773,1298,l),
(747,1298,l),
(1127,0,l),
(1442,0,l),
(950,1476,l),
(556,1476,l),
(70,0,l)
);
},
{
closed = 1;
nodes = (
(1161,281,l),
(1104,511,l),
(410,511,l),
(351,281,l)
);
},
{
closed = 1;
nodes = (
(1000,1630,l),
(958,1995,l),
(700,1995,l),
(861,1630,l)
);
},
{
closed = 1;
nodes = (
(700,1630,l),
(658,1995,l),
(400,1995,l),
(561,1630,l)
);
}
);
};
layerId = "C6C96970-2BBD-4A47-8C90-C83F37B7F23D";
shapes = (
{
ref = A;
},
{
pos = (756,0);
ref = dblgravecomb.case;
}
);
width = 1512;
}
);
unicode = 512;
},
{
glyphname = Adieresis;
kernLeft = A;
kernRight = A;
lastChange = "2024-04-12 10:11:21 +0000";
layers = (
{
background = {
anchors = (
{
name = bottom;
pos = (714,0);
},
{
name = ogonek;
pos = (1342,0);
},
{
name = top;
pos = (714,1830);
}
);
shapes = (
{
closed = 1;
nodes = (
(295,0,l),
(734,1258,l),
(704,1259,l),
(1137,0,l),
(1342,0,l),
(802,1446,l),
(625,1446,l),
(86,0,l)
);
},
{
closed = 1;
nodes = (
(1123,282,l),
(1077,430,l),
(354,430,l),
(306,282,l)
);
},
{
closed = 1;
nodes = (
(429,1649,l),
(635,1649,l),
(635,1830,l),
(429,1830,l)
);
},
{
closed = 1;
nodes = (
(793,1649,l),
(999,1649,l),
(999,1830,l),
(793,1830,l)
);
}
);
};
layerId = "F85E8FEC-B3CD-4A54-BF30-AB1986ECE904";
shapes = (
{
ref = A;
},
{
pos = (714,0);
ref = dieresiscomb.case;
}
);
width = 1428;
},
{
background = {
anchors = (
{
name = bottom;
pos = (756,0);
},
{
name = ogonek;
pos = (1442,0);
},
{
name = top;
pos = (756,1916);
}
);
shapes = (
{
closed = 1;
nodes = (
(380,0,l),
(773,1298,l),
(747,1298,l),
(1127,0,l),
(1442,0,l),
(950,1476,l),
(556,1476,l),
(70,0,l)
);
},
{
closed = 1;
nodes = (
(1161,281,l),
(1104,511,l),
(410,511,l),
(351,281,l)
);
},
{
closed = 1;
nodes = (
(419,1683,l),
(683,1683,l),
(683,1916,l),
(419,1916,l)
);
},
{
closed = 1;
nodes = (
(828,1683,l),
(1093,1683,l),
(1093,1916,l),
(828,1916,l)
);
}
);
};
layerId = "C6C96970-2BBD-4A47-8C90-C83F37B7F23D";
shapes = (
{
ref = A;
},
{
pos = (756,0);
ref = dieresiscomb.case;
}
);
width = 1512;
}
);
unicode = 196;
},
{
glyphname = Adieresismacron;
kernLeft = A;
kernRight = A;
lastChange = "2024-04-12 10:11:21 +0000";
layers = (
{
background = {
anchors = (
{
name = bottom;
pos = (714,0);
},
{
name = ogonek;
pos = (1342,0);
},
{
name = top;
pos = (714,2097);
}
);
shapes = (
{
closed = 1;
nodes = (
(295,0,l),
(734,1258,l),
(704,1259,l),
(1137,0,l),
(1342,0,l),
(802,1446,l),
(625,1446,l),
(86,0,l)
);
},
{
closed = 1;
nodes = (
(1123,282,l),
(1077,430,l),
(354,430,l),
(306,282,l)
);
},
{
closed = 1;
nodes = (
(429,1619,l),
(635,1619,l),
(635,1800,l),
(429,1800,l)
);
},
{
closed = 1;
nodes = (
(793,1619,l),
(999,1619,l),
(999,1800,l),
(793,1800,l)
);
},
{
closed = 1;
nodes = (
(462,1942,l),
(966,1942,l),
(966,2097,l),
(462,2097,l)
);
}
);
};
layerId = "F85E8FEC-B3CD-4A54-BF30-AB1986ECE904";
shapes = (
{
ref = A;
},
{
alignment = -1;
pos = (714,-30);
ref = dieresiscomb.case;
},
{
alignment = -1;
pos = (714,284);
ref = macroncomb.case;
}
);
width = 1428;
},
{
background = {
anchors = (
{
name = bottom;
pos = (756,0);
},
{
name = ogonek;
pos = (1442,0);
},
{
name = top;
pos = (756,2244);
}
);
shapes = (
{
closed = 1;
nodes = (
(380,0,l),
(773,1298,l),
(747,1298,l),
(1127,0,l),
(1442,0,l),
(950,1476,l),
(556,1476,l),
(70,0,l)
);
},
{
closed = 1;
nodes = (
(1161,281,l),
(1104,511,l),
(410,511,l),
(351,281,l)
);
},
{
closed = 1;
nodes = (
(419,1683,l),
(683,1683,l),
(683,1916,l),
(419,1916,l)
);
},
{
closed = 1;
nodes = (
(828,1683,l),
(1093,1683,l),
(1093,1916,l),
(828,1916,l)
);
},
{
closed = 1;
nodes = (
(414,2077,l),
(1098,2077,l),
(1098,2244,l),
(414,2244,l)
);
}
);
};
layerId = "C6C96970-2BBD-4A47-8C90-C83F37B7F23D";
shapes = (
{
ref = A;
},
{
pos = (756,0);
ref = dieresiscomb.case;
},
{
alignment = -1;
pos = (756,340);
ref = macroncomb.case;
}
);
width = 1512;
}
);
unicode = 478;
},
{
glyphname = Adotaccent;
kernLeft = A;
kernRight = A;
lastChange = "2024-04-12 10:11:21 +0000";
layers = (
{
background = {
anchors = (
{
name = bottom;
pos = (714,0);
},
{
name = ogonek;
pos = (1342,0);
},
{
name = top;
pos = (714,1822);
}
);
shapes = (
{
closed = 1;
nodes = (
(295,0,l),
(734,1258,l),
(704,1259,l),
(1137,0,l),
(1342,0,l),
(802,1446,l),
(625,1446,l),
(86,0,l)
);
},
{
closed = 1;
nodes = (
(1123,282,l),
(1077,430,l),
(354,430,l),
(306,282,l)
);
},
{
closed = 1;
nodes = (
(617,1614,l),
(811,1614,l),
(811,1822,l),
(617,1822,l)
);
}
);
};
layerId = "F85E8FEC-B3CD-4A54-BF30-AB1986ECE904";
shapes = (
{
ref = A;
},
{
pos = (714,0);
ref = dotaccentcomb.case;
}
);
width = 1428;
},
{
background = {
anchors = (
{
name = bottom;
pos = (756,0);
},
{
name = ogonek;
pos = (1442,0);
},
{
name = top;
pos = (756,1933);
}
);
shapes = (
{
closed = 1;
nodes = (
(380,0,l),
(773,1298,l),
(747,1298,l),
(1127,0,l),
(1442,0,l),
(950,1476,l),
(556,1476,l),
(70,0,l)
);
},
{
closed = 1;
nodes = (
(1161,281,l),
(1104,511,l),
(410,511,l),
(351,281,l)
);
},
{
closed = 1;
nodes = (
(629,1668,l),
(883,1668,l),
(883,1933,l),
(629,1933,l)
);
}
);
};
layerId = "C6C96970-2BBD-4A47-8C90-C83F37B7F23D";
shapes = (
{
ref = A;
},
{
pos = (756,0);
ref = dotaccentcomb.case;
}
);
width = 1512;
}
);
unicode = 550;
},
{
glyphname = Adotbelow;
kernLeft = A;
kernRight = A;
lastChange = "2024-04-12 10:11:21 +0000";
layers = (
{
background = {
anchors = (
{
name = bottom;
pos = (714,-343);
},
{
name = ogonek;
pos = (1342,0);
},
{
name = top;
pos = (714,1446);
}
);
shapes = (
{
closed = 1;
nodes = (
(295,0,l),
(734,1258,l),
(704,1259,l),
(1137,0,l),
(1342,0,l),
(802,1446,l),
(625,1446,l),
(86,0,l)
);
},
{
closed = 1;
nodes = (
(1123,282,l),
(1077,430,l),
(354,430,l),
(306,282,l)
);
},
{
closed = 1;
nodes = (
(617,-343,l),
(811,-343,l),
(811,-135,l),
(617,-135,l)
);
}
);
};
layerId = "F85E8FEC-B3CD-4A54-BF30-AB1986ECE904";
shapes = (
{
ref = A;
},
{
pos = (714,0);
ref = dotbelowcomb.case;
}
);
width = 1428;
},
{
background = {
anchors = (
{
name = bottom;
pos = (756,-382);
},
{
name = ogonek;
pos = (1442,0);
},
{
name = top;
pos = (756,1476);
}
);
shapes = (
{
closed = 1;
nodes = (
(380,0,l),
(773,1298,l),
(747,1298,l),
(1127,0,l),
(1442,0,l),
(950,1476,l),
(556,1476,l),
(70,0,l)
);
},
{
closed = 1;
nodes = (
(1161,281,l),
(1104,511,l),
(410,511,l),
(351,281,l)
);
},
{
closed = 1;
nodes = (
(629,-382,l),
(883,-382,l),
(883,-117,l),
(629,-117,l)
);
}
);
};
layerId = "C6C96970-2BBD-4A47-8C90-C83F37B7F23D";
shapes = (
{
ref = A;
},
{
pos = (756,0);
ref = dotbelowcomb.case;
}
);
width = 1512;
}
);
unicode = 7840;
},
{
glyphname = Adotmacron;
kernLeft = A;
kernRight = A;
lastChange = "2024-04-12 10:11:21 +0000";
layers = (
{
background = {
anchors = (
{
name = bottom;
pos = (714,0);
},
{
name = ogonek;
pos = (1342,0);
},
{
name = top;
pos = (714,2099);
}
);
shapes = (
{
closed = 1;
nodes = (
(295,0,l),
(734,1258,l),
(704,1259,l),
(1137,0,l),
(1342,0,l),
(802,1446,l),
(625,1446,l),
(86,0,l)
);
},
{
closed = 1;
nodes = (
(1123,282,l),
(1077,430,l),
(354,430,l),
(306,282,l)
);
},
{
closed = 1;
nodes = (
(617,1614,l),
(811,1614,l),
(811,1822,l),
(617,1822,l)
);
},
{
closed = 1;
nodes = (
(462,1944,l),
(966,1944,l),
(966,2099,l),
(462,2099,l)
);
}
);
};
layerId = "F85E8FEC-B3CD-4A54-BF30-AB1986ECE904";
shapes = (
{
ref = A;
},
{
pos = (714,0);
ref = dotaccentcomb.case;
},
{
alignment = -1;
pos = (714,286);
ref = macroncomb.case;
}
);
width = 1428;
},
{
background = {
anchors = (
{
name = bottom;
pos = (756,0);
},
{
name = ogonek;
pos = (1442,0);
},
{
name = top;
pos = (756,2241);
}
);
shapes = (
{
closed = 1;
nodes = (
(380,0,l),
(773,1298,l),
(747,1298,l),
(1127,0,l),
(1442,0,l),
(950,1476,l),
(556,1476,l),
(70,0,l)
);
},
{
closed = 1;
nodes = (
(1161,281,l),
(1104,511,l),
(410,511,l),
(351,281,l)
);
},
{
closed = 1;
nodes = (
(629,1668,l),
(883,1668,l),
(883,1933,l),
(629,1933,l)
);
},
{
closed = 1;
nodes = (
(414,2074,l),
(1098,2074,l),
(1098,2241,l),
(414,2241,l)
);
}
);
};
layerId = "C6C96970-2BBD-4A47-8C90-C83F37B7F23D";
shapes = (
{
ref = A;
},
{
pos = (756,0);
ref = dotaccentcomb.case;
},
{
alignment = -1;
pos = (756,337);
ref = macroncomb.case;
}
);
width = 1512;
}
);
unicode = 480;
},
{
glyphname = Agrave;
kernLeft = A;
kernRight = A;
lastChange = "2024-04-12 10:11:21 +0000";
layers = (
{
background = {
anchors = (
{
name = bottom;
pos = (714,0);
},
{
name = ogonek;
pos = (1342,0);
},
{
name = top;
pos = (714,1982);
}
);
shapes = (
{
closed = 1;
nodes = (
(295,0,l),
(734,1258,l),
(704,1259,l),
(1137,0,l),
(1342,0,l),
(802,1446,l),
(625,1446,l),
(86,0,l)
);
},
{
closed = 1;
nodes = (
(1123,282,l),
(1077,430,l),
(354,430,l),
(306,282,l)
);
},
{
closed = 1;
nodes = (
(454,1982,l),
(716,1632,l),
(844,1632,l),
(679,1982,l)
);
}
);
};
layerId = "F85E8FEC-B3CD-4A54-BF30-AB1986ECE904";
shapes = (
{
ref = A;
},
{
pos = (714,0);
ref = gravecomb.case;
}
);
width = 1428;
},
{
background = {
anchors = (
{
name = bottom;
pos = (756,0);
},
{
name = ogonek;
pos = (1442,0);
},
{
name = top;
pos = (756,2022);
}
);
shapes = (
{
closed = 1;
nodes = (
(380,0,l),
(773,1298,l),
(747,1298,l),
(1127,0,l),
(1442,0,l),
(950,1476,l),
(556,1476,l),
(70,0,l)
);
},
{
closed = 1;
nodes = (
(1161,281,l),
(1104,511,l),
(410,511,l),
(351,281,l)
);
},
{
closed = 1;
nodes = (
(436,2022,l),
(717,1657,l),
(916,1657,l),
(754,2022,l)
);
}
);
};
layerId = "C6C96970-2BBD-4A47-8C90-C83F37B7F23D";
shapes = (
{
ref = A;
},
{
pos = (756,0);
ref = gravecomb.case;
}
);
width = 1512;
}
);
unicode = 192;
},
{
glyphname = Ahookabove;
kernLeft = A;
kernRight = A;
lastChange = "2024-04-12 10:11:21 +0000";
layers = (
{
background = {
anchors = (
{
name = bottom;
pos = (714,0);
},
{
name = ogonek;
pos = (1342,0);
},
{
name = top;
pos = (714,2001);
}
);
shapes = (
{
closed = 1;
nodes = (
(295,0,l),
(734,1258,l),
(704,1259,l),
(1137,0,l),
(1342,0,l),
(802,1446,l),
(625,1446,l),
(86,0,l)
);
},
{
closed = 1;
nodes = (
(1123,282,l),
(1077,430,l),
(354,430,l),
(306,282,l)
);
},
{
closed = 1;
nodes = (
(856,1604,o),
(927,1666,o),
(927,1793,cs),
(927,1910,o),
(840,2001,o),
(700,2001,cs),
(586,2001,o),
(500,1950,o),
(468,1851,c),
(596,1801,l),
(605,1841,o),
(643,1871,o),
(699,1871,cs),
(754,1871,o),
(785,1841,o),
(785,1791,cs),
(785,1742,o),
(762,1699,o),
(663,1667,c),
(718,1556,l)
);
}
);
};
layerId = "F85E8FEC-B3CD-4A54-BF30-AB1986ECE904";
shapes = (
{
ref = A;
},
{
pos = (714,0);
ref = hookabovecomb.case;
}
);
width = 1428;
},
{
background = {
anchors = (
{
name = bottom;
pos = (756,0);
},
{
name = ogonek;
pos = (1442,0);
},
{
name = top;
pos = (756,2099);
}
);
shapes = (
{
closed = 1;
nodes = (
(380,0,l),
(773,1298,l),
(747,1298,l),
(1127,0,l),
(1442,0,l),
(950,1476,l),
(556,1476,l),
(70,0,l)
);
},
{
closed = 1;
nodes = (
(1161,281,l),
(1104,511,l),
(410,511,l),
(351,281,l)
);
},
{
closed = 1;
nodes = (
(904,1646,o),
(981,1724,o),
(981,1858,cs),
(981,2000,o),
(886,2099,o),
(724,2099,cs),
(599,2099,o),
(505,2044,o),
(471,1935,c),
(626,1876,l),
(640,1931,o),
(679,1951,o),
(722,1951,cs),
(774,1951,o),
(808,1925,o),
(808,1864,cs),
(808,1806,o),
(777,1761,o),
(688,1725,c),
(754,1591,l)
);
}
);
};
layerId = "C6C96970-2BBD-4A47-8C90-C83F37B7F23D";
shapes = (
{
ref = A;
},
{
pos = (756,0);
ref = hookabovecomb.case;
}
);
width = 1512;
}
);
unicode = 7842;
},
{
glyphname = Ainvertedbreve;
kernLeft = A;
kernRight = A;
lastChange = "2024-04-12 10:11:21 +0000";
layers = (
{
background = {
anchors = (
{
name = bottom;
pos = (714,0);
},
{
name = ogonek;
pos = (1342,0);
},
{
name = top;
pos = (714,1949);
}
);
shapes = (
{
closed = 1;
nodes = (
(295,0,l),
(734,1258,l),
(704,1259,l),
(1137,0,l),
(1342,0,l),
(802,1446,l),
(625,1446,l),
(86,0,l)
);
},
{
closed = 1;
nodes = (
(1123,282,l),
(1077,430,l),
(354,430,l),
(306,282,l)
);
},
{
closed = 1;
nodes = (
(533,1949,o),
(413,1856,o),
(413,1651,c),
(548,1651,l),
(548,1738,o),
(601,1794,o),
(714,1794,cs),
(826,1794,o),
(879,1738,o),
(879,1651,c),
(1015,1651,l),
(1015,1856,o),
(894,1949,o),
(714,1949,cs)
);
}
);
};
layerId = "F85E8FEC-B3CD-4A54-BF30-AB1986ECE904";
shapes = (
{
ref = A;
},
{
pos = (714,0);
ref = breveinvertedcomb.case;
}
);
width = 1428;
},
{
background = {
anchors = (
{
name = bottom;
pos = (756,0);
},
{
name = ogonek;
pos = (1442,0);
},
{
name = top;
pos = (756,1988);
}
);
shapes = (
{
closed = 1;
nodes = (
(380,0,l),
(773,1298,l),
(747,1298,l),
(1127,0,l),
(1442,0,l),
(950,1476,l),
(556,1476,l),
(70,0,l)
);
},
{
closed = 1;
nodes = (
(1161,281,l),
(1104,511,l),
(410,511,l),
(351,281,l)
);
},
{
closed = 1;
nodes = (
(547,1988,o),
(417,1870,o),
(417,1650,c),
(617,1650,l),
(617,1737,o),
(656,1783,o),
(756,1783,cs),
(856,1783,o),
(895,1737,o),
(895,1650,c),
(1095,1650,l),
(1095,1870,o),
(965,1988,o),
(756,1988,cs)
);
}
);
};
layerId = "C6C96970-2BBD-4A47-8C90-C83F37B7F23D";
shapes = (
{
ref = A;
},
{
pos = (756,0);
ref = breveinvertedcomb.case;
}
);
width = 1512;
}
);
unicode = 514;
},
{
glyphname = "Alpha-latin";
lastChange = "2024-04-12 10:11:14 +0000";
layers = (
{
background = {
shapes = (
{
closed = 1;
nodes = (
(905,-22,o),
(1048,23,o),
(1213,159,c),
(1140,211,l),
(1184,76,o),
(1213,0,o),
(1404,0,cs),
(1456,0,l),
(1480,152,l),
(1356,152,o),
(1335,179,o),
(1335,331,cs),
(1335,1446,l),
(1143,1446,l),
(1143,1286,l),
(1153,1311,l),
(1096,1392,o),
(964,1473,o),
(741,1473,cs),
(377,1473,o),
(186,1285,o),
(186,995,cs),
(186,437,ls),
(186,139,o),
(363,-22,o),
(721,-22,cs)
);
},
{
closed = 1;
nodes = (
(506,141,o),
(388,231,o),
(388,419,cs),
(388,1016,ls),
(388,1192,o),
(504,1306,o),
(761,1306,cs),
(1039,1306,o),
(1133,1188,o),
(1133,1056,cs),
(1133,255,l),
(1085,211,o),
(975,141,o),
(764,141,cs)
);
}
);
};
guides = (
{
angle = 81.2538;
pos = (1471,95);
}
);
layerId = "F85E8FEC-B3CD-4A54-BF30-AB1986ECE904";
shapes = (
{
closed = 1;
nodes = (
(905,-22,o),
(1048,23,o),
(1213,159,c),
(1140,211,l),
(1184,76,o),
(1213,0,o),
(1404,0,cs),
(1456,0,l),
(1480,152,l),
(1356,152,o),
(1335,179,o),
(1335,331,cs),
(1335,1446,l),
(1143,1446,l),
(1143,1286,l),
(1153,1311,l),
(1096,1392,o),
(964,1473,o),
(741,1473,cs),
(377,1473,o),
(186,1285,o),
(186,995,cs),
(186,437,ls),
(186,139,o),
(363,-22,o),
(721,-22,cs)
);
},
{
closed = 1;
nodes = (
(506,141,o),
(388,231,o),
(388,419,cs),
(388,1016,ls),
(388,1192,o),
(504,1306,o),
(761,1306,cs),
(1039,1306,o),
(1133,1188,o),
(1133,1056,cs),
(1133,255,l),
(1085,211,o),
(975,141,o),
(764,141,cs)
);
}
);
width = 1546;
},
{
background = {
shapes = (
{
closed = 1;
nodes = (
(914,-23,o),
(1043,17,o),
(1186,156,c),
(1081,211,l),
(1110,53,o),
(1209,-2,o),
(1400,-2,cs),
(1473,-2,l),
(1485,223,l),
(1399,223,o),
(1376,251,o),
(1376,345,cs),
(1376,1476,l),
(1117,1476,l),
(1071,1313,l),
(1112,1368,l),
(1034,1452,o),
(885,1500,o),
(716,1500,cs),
(331,1500,o),
(160,1289,o),
(160,1018,cs),
(160,472,ls),
(160,176,o),
(351,-23,o),
(733,-23,cs)
);
},
{
closed = 1;
nodes = (
(595,207,o),
(458,287,o),
(458,446,cs),
(458,1016,ls),
(458,1188,o),
(590,1267,o),
(801,1267,cs),
(1000,1267,o),
(1078,1211,o),
(1078,1181,cs),
(1078,276,l),
(1024,242,o),
(924,207,o),
(767,207,cs)
);
}
);
};
guides = (
{
angle = 87.0318;
pos = (1440,133);
}
);
layerId = "C6C96970-2BBD-4A47-8C90-C83F37B7F23D";
shapes = (
{
closed = 1;
nodes = (
(914,-23,o),
(1043,17,o),
(1186,156,c),
(1081,211,l),
(1110,53,o),
(1209,-2,o),
(1400,-2,cs),
(1473,-2,l),
(1485,223,l),
(1399,223,o),
(1376,251,o),
(1376,345,cs),
(1376,1476,l),
(1117,1476,l),
(1071,1313,l),
(1112,1368,l),
(1034,1452,o),
(885,1500,o),
(716,1500,cs),
(331,1500,o),
(160,1289,o),
(160,1018,cs),
(160,472,ls),
(160,176,o),
(351,-23,o),
(733,-23,cs)
);
},
{
closed = 1;
nodes = (
(595,207,o),
(458,287,o),
(458,446,cs),
(458,1016,ls),
(458,1188,o),
(590,1267,o),
(801,1267,cs),
(1000,1267,o),
(1078,1211,o),
(1078,1181,cs),
(1078,276,l),
(1024,242,o),
(924,207,o),
(767,207,cs)
);
}
);
width = 1595;
}
);
unicode = 11373;
},
{
glyphname = Amacron;
kernLeft = A;
kernRight = A;
lastChange = "2024-04-12 10:11:21 +0000";
layers = (
{
background = {
anchors = (
{
name = bottom;
pos = (714,0);
},
{
name = ogonek;
pos = (1342,0);
},
{
name = top;
pos = (714,1813);
}
);
shapes = (
{
closed = 1;
nodes = (
(295,0,l),
(734,1258,l),
(704,1259,l),
(1137,0,l),
(1342,0,l),
(802,1446,l),
(625,1446,l),
(86,0,l)
);
},
{
closed = 1;
nodes = (
(1123,282,l),
(1077,430,l),
(354,430,l),
(306,282,l)
);
},
{
closed = 1;
nodes = (
(462,1658,l),
(966,1658,l),
(966,1813,l),
(462,1813,l)
);
}
);
};
layerId = "F85E8FEC-B3CD-4A54-BF30-AB1986ECE904";
shapes = (
{
ref = A;
},
{
pos = (714,0);
ref = macroncomb.case;
}
);
width = 1428;
},
{
background = {
anchors = (
{
name = bottom;
pos = (756,0);
},
{
name = ogonek;
pos = (1442,0);
},
{
name = top;
pos = (756,1904);
}
);
shapes = (
{
closed = 1;
nodes = (
(380,0,l),
(773,1298,l),
(747,1298,l),
(1127,0,l),
(1442,0,l),
(950,1476,l),
(556,1476,l),
(70,0,l)
);
},
{
closed = 1;
nodes = (
(1161,281,l),
(1104,511,l),
(410,511,l),
(351,281,l)
);
},
{
closed = 1;
nodes = (
(414,1737,l),
(1098,1737,l),
(1098,1904,l),
(414,1904,l)
);
}
);
};
layerId = "C6C96970-2BBD-4A47-8C90-C83F37B7F23D";
shapes = (
{
ref = A;
},
{
pos = (756,0);
ref = macroncomb.case;
}
);
width = 1512;
}
);
unicode = 256;
},
{
glyphname = Aogonek;
kernLeft = A;
kernRight = A;
lastChange = "2024-04-12 10:11:21 +0000";
layers = (
{
background = {
anchors = (
{
name = bottom;
pos = (714,0);
},
{
name = ogonek;
pos = (1342,0);
},
{
name = top;
pos = (714,1446);
}
);
shapes = (
{
closed = 1;
nodes = (
(295,0,l),
(734,1258,l),
(704,1259,l),
(1137,0,l),
(1342,0,l),
(802,1446,l),
(625,1446,l),
(86,0,l)
);
},
{
closed = 1;
nodes = (
(1123,282,l),
(1077,430,l),
(354,430,l),
(306,282,l)
);
},
{
closed = 1;
nodes = (
(1044,-387,o),
(1129,-454,o),
(1277,-454,cs),
(1353,-454,l),
(1365,-313,l),
(1305,-313,ls),
(1235,-313,o),
(1204,-274,o),
(1204,-211,cs),
(1204,-142,o),
(1262,-68,o),
(1342,0,c),
(1229,10,l),
(1119,-56,o),
(1044,-174,o),
(1044,-260,cs)
);
}
);
};
layerId = "F85E8FEC-B3CD-4A54-BF30-AB1986ECE904";
shapes = (
{
ref = A;
},
{
pos = (1342,0);
ref = ogonekcomb.case;
}
);
width = 1428;
},
{
background = {
anchors = (
{
name = bottom;
pos = (756,0);
},
{
name = ogonek;
pos = (1442,0);
},
{
name = top;
pos = (756,1476);
}
);
shapes = (
{
closed = 1;
nodes = (
(380,0,l),
(773,1298,l),
(747,1298,l),
(1127,0,l),
(1442,0,l),
(950,1476,l),
(556,1476,l),
(70,0,l)
);
},
{
closed = 1;
nodes = (
(1161,281,l),
(1104,511,l),
(410,511,l),
(351,281,l)
);
},
{
closed = 1;
nodes = (
(1124,-411,o),
(1209,-484,o),
(1407,-484,cs),
(1462,-484,l),
(1475,-333,l),
(1440,-333,ls),
(1350,-333,o),
(1309,-294,o),
(1309,-221,cs),
(1309,-142,o),
(1362,-68,o),
(1442,0,c),
(1316,10,l),
(1206,-56,o),
(1124,-174,o),
(1124,-270,cs)
);
}
);
};
layerId = "C6C96970-2BBD-4A47-8C90-C83F37B7F23D";
shapes = (
{
ref = A;
},
{
pos = (1442,0);
ref = ogonekcomb.case;
}
);
width = 1512;
}
);
unicode = 260;
},
{
glyphname = Aring;
kernLeft = A;
kernRight = A;
lastChange = "2024-04-12 10:11:21 +0000";
layers = (
{
background = {
anchors = (
{
name = bottom;
pos = (714,0);
},
{
name = ogonek;
pos = (1342,0);
},
{
name = top;
pos = (714,1992);
}
);
shapes = (
{
closed = 1;
nodes = (
(295,0,l),
(734,1258,l),
(704,1259,l),
(1137,0,l),
(1342,0,l),
(802,1446,l),
(625,1446,l),
(86,0,l)
);
},
{
closed = 1;
nodes = (
(1123,282,l),
(1077,430,l),
(354,430,l),
(306,282,l)
);
},
{
closed = 1;
nodes = (
(856,1542,o),
(948,1623,o),
(948,1768,cs),
(948,1912,o),
(855,1992,o),
(714,1992,cs),
(572,1992,o),
(480,1912,o),
(480,1768,cs),
(480,1623,o),
(572,1542,o),
(714,1542,cs)
);
},
{
closed = 1;
nodes = (
(655,1645,o),
(599,1672,o),
(599,1769,cs),
(599,1864,o),
(655,1891,o),
(713,1891,cs),
(770,1891,o),
(829,1862,o),
(829,1767,cs),
(829,1671,o),
(770,1645,o),
(714,1645,cs)
);
}
);
};
layerId = "F85E8FEC-B3CD-4A54-BF30-AB1986ECE904";
shapes = (
{
ref = A;
},
{
pos = (714,0);
ref = ringcomb.case;
}
);
width = 1428;
},
{
background = {
anchors = (
{
name = bottom;
pos = (756,0);
},
{
name = ogonek;
pos = (1442,0);
},
{
name = top;
pos = (756,2038);
}
);
shapes = (
{
closed = 1;
nodes = (
(380,0,l),
(773,1298,l),
(747,1298,l),
(1127,0,l),
(1442,0,l),
(950,1476,l),
(556,1476,l),
(70,0,l)
);
},
{
closed = 1;
nodes = (
(1161,281,l),
(1104,511,l),
(410,511,l),
(351,281,l)
);
},
{
closed = 1;
nodes = (
(924,1540,o),
(1026,1630,o),
(1026,1790,cs),
(1026,1949,o),
(923,2038,o),
(756,2038,cs),
(588,2038,o),
(486,1949,o),
(486,1790,cs),
(486,1630,o),
(588,1540,o),
(756,1540,cs)
);
},
{
closed = 1;
nodes = (
(705,1699,o),
(670,1719,o),
(670,1791,cs),
(670,1861,o),
(705,1881,o),
(755,1881,cs),
(805,1881,o),
(842,1860,o),
(842,1789,cs),
(842,1718,o),
(805,1699,o),
(756,1699,cs)
);
}
);
};
layerId = "C6C96970-2BBD-4A47-8C90-C83F37B7F23D";
shapes = (
{
ref = A;
},
{
pos = (756,0);
ref = ringcomb.case;
}
);
width = 1512;
}
);
unicode = 197;
},
{
glyphname = Aringacute;
kernLeft = A;
kernRight = A;
lastChange = "2024-04-12 10:11:21 +0000";
layers = (
{
background = {
anchors = (
{
name = bottom;
pos = (714,0);
},
{
name = ogonek;
pos = (1342,0);
},
{
name = top;
pos = (754,2249);
}
);
shapes = (
{
closed = 1;
nodes = (
(295,0,l),
(734,1258,l),
(704,1259,l),
(1137,0,l),
(1342,0,l),
(802,1446,l),
(625,1446,l),
(86,0,l)
);
},
{
closed = 1;
nodes = (
(1123,282,l),
(1077,430,l),
(354,430,l),
(306,282,l)
);
},
{
closed = 1;
nodes = (
(856,1542,o),
(948,1623,o),
(948,1768,cs),
(948,1912,o),
(855,1992,o),
(714,1992,cs),
(572,1992,o),
(480,1912,o),
(480,1768,cs),
(480,1623,o),
(572,1542,o),
(714,1542,cs)
);
},
{
closed = 1;
nodes = (
(655,1645,o),
(599,1672,o),
(599,1769,cs),
(599,1864,o),
(655,1891,o),
(713,1891,cs),
(770,1891,o),
(829,1862,o),
(829,1767,cs),
(829,1671,o),
(770,1645,o),
(714,1645,cs)
);
},
{
closed = 1;
nodes = (
(624,1899,l),
(752,1899,l),
(1014,2249,l),
(789,2249,l)
);
}
);
};
layerId = "F85E8FEC-B3CD-4A54-BF30-AB1986ECE904";
shapes = (
{
ref = A;
},
{
pos = (714,0);
ref = ringcomb.case;
},
{
alignment = -1;
pos = (754,267);
ref = acutecomb.case;
}
);
width = 1428;
},
{
background = {
anchors = (
{
name = bottom;
pos = (756,0);
},
{
name = ogonek;
pos = (1442,0);
},
{
name = top;
pos = (782,2266);
}
);
shapes = (
{
closed = 1;
nodes = (
(380,0,l),
(773,1298,l),
(747,1298,l),
(1127,0,l),
(1442,0,l),
(950,1476,l),
(556,1476,l),
(70,0,l)
);
},
{
closed = 1;
nodes = (
(1161,281,l),
(1104,511,l),
(410,511,l),
(351,281,l)
);
},
{
closed = 1;
nodes = (
(924,1540,o),
(1026,1630,o),
(1026,1790,cs),
(1026,1949,o),
(923,2038,o),
(756,2038,cs),
(588,2038,o),
(486,1949,o),
(486,1790,cs),
(486,1630,o),
(588,1540,o),
(756,1540,cs)
);
},
{
closed = 1;
nodes = (
(705,1699,o),
(670,1719,o),
(670,1791,cs),
(670,1861,o),
(705,1881,o),
(755,1881,cs),
(805,1881,o),
(842,1860,o),
(842,1789,cs),
(842,1718,o),
(805,1699,o),
(756,1699,cs)
);
},
{
closed = 1;
nodes = (
(622,1901,l),
(821,1901,l),
(1102,2266,l),
(784,2266,l)
);
}
);
};
layerId = "C6C96970-2BBD-4A47-8C90-C83F37B7F23D";
shapes = (
{
ref = A;
},
{
pos = (756,0);
ref = ringcomb.case;
},
{
alignment = -1;
pos = (782,244);
ref = acutecomb.case;
}
);
width = 1512;
}
);
unicode = 506;
},
{
glyphname = Aringbelow;
kernLeft = A;
kernRight = A;
lastChange = "2024-04-12 10:11:21 +0000";
layers = (
{
background = {
anchors = (
{
name = bottom;
pos = (714,-515);
},
{
name = ogonek;
pos = (1342,0);
},
{
name = top;
pos = (714,1446);
}
);
shapes = (
{
closed = 1;
nodes = (
(295,0,l),
(734,1258,l),
(704,1259,l),
(1137,0,l),
(1342,0,l),
(802,1446,l),
(625,1446,l),
(86,0,l)
);
},
{
closed = 1;
nodes = (
(1123,282,l),
(1077,430,l),
(354,430,l),
(306,282,l)
);
},
{
closed = 1;
nodes = (
(856,-515,o),
(948,-434,o),
(948,-289,cs),
(948,-145,o),
(855,-65,o),
(714,-65,cs),
(572,-65,o),
(480,-145,o),
(480,-289,cs),
(480,-434,o),
(572,-515,o),
(714,-515,cs)
);
},
{
closed = 1;
nodes = (
(655,-412,o),
(599,-385,o),
(599,-288,cs),
(599,-193,o),
(655,-166,o),
(713,-166,cs),
(770,-166,o),
(829,-195,o),
(829,-290,cs),
(829,-386,o),
(770,-412,o),
(714,-412,cs)
);
}
);
};
layerId = "F85E8FEC-B3CD-4A54-BF30-AB1986ECE904";
shapes = (
{
ref = A;
},
{
pos = (714,0);
ref = ringbelowcomb;
}
);
width = 1428;
},
{
background = {
anchors = (
{
name = bottom;
pos = (756,-532);
},
{
name = ogonek;
pos = (1442,0);
},
{
name = top;
pos = (756,1476);
}
);
shapes = (
{
closed = 1;
nodes = (
(380,0,l),
(773,1298,l),
(747,1298,l),
(1127,0,l),
(1442,0,l),
(950,1476,l),
(556,1476,l),
(70,0,l)
);
},
{
closed = 1;
nodes = (
(1161,281,l),
(1104,511,l),
(410,511,l),
(351,281,l)
);
},
{
closed = 1;
nodes = (
(924,-532,o),
(1026,-442,o),
(1026,-282,cs),
(1026,-123,o),
(923,-34,o),
(756,-34,cs),
(588,-34,o),
(486,-123,o),
(486,-282,cs),
(486,-442,o),
(588,-532,o),
(756,-532,cs)
);
},
{
closed = 1;
nodes = (
(705,-373,o),
(670,-353,o),
(670,-281,cs),
(670,-211,o),
(705,-191,o),
(755,-191,cs),
(805,-191,o),
(842,-212,o),
(842,-283,cs),
(842,-354,o),
(805,-373,o),
(756,-373,cs)
);
}
);
};
layerId = "C6C96970-2BBD-4A47-8C90-C83F37B7F23D";
shapes = (
{
ref = A;
},
{
pos = (756,0);
ref = ringbelowcomb;
}
);
width = 1512;
}
);
unicode = 7680;
},
{
glyphname = Astroke;
kernLeft = A;
kernRight = A;
lastChange = "2024-04-12 10:11:21 +0000";
layers = (
{
background = {
anchors = (
{
name = bottom;
pos = (714,0);
},
{
name = ogonek;
pos = (1342,0);
},
{
name = top;
pos = (714,1446);
}
);
shapes = (
{
closed = 1;
nodes = (
(489,-245,l),
(1168,1588,l),
(1064,1626,l),
(386,-207,l)
);
},
{
closed = 1;
nodes = (
(295,0,l),
(734,1258,l),
(704,1259,l),
(1137,0,l),
(1342,0,l),
(802,1446,l),
(625,1446,l),
(86,0,l)
);
},
{
closed = 1;
nodes = (
(1123,282,l),
(1077,430,l),
(354,430,l),
(306,282,l)
);
}
);
};
layerId = "F85E8FEC-B3CD-4A54-BF30-AB1986ECE904";
shapes = (
{
closed = 1;
nodes = (
(489,-245,l),
(1168,1588,l),
(1064,1626,l),
(386,-207,l)
);
},
{
ref = A;
}
);
width = 1428;
},
{
background = {
anchors = (
{
name = bottom;
pos = (756,0);
},
{
name = ogonek;
pos = (1442,0);
},
{
name = top;
pos = (756,1476);
}
);
shapes = (
{
closed = 1;
nodes = (
(538,-195,l),
(1237,1638,l),
(1133,1676,l),
(435,-157,l)
);
},
{
closed = 1;
nodes = (
(380,0,l),
(773,1298,l),
(747,1298,l),
(1127,0,l),
(1442,0,l),
(950,1476,l),
(556,1476,l),
(70,0,l)
);
},
{
closed = 1;
nodes = (
(1161,281,l),
(1104,511,l),
(410,511,l),
(351,281,l)
);
}
);
};
layerId = "C6C96970-2BBD-4A47-8C90-C83F37B7F23D";
shapes = (
{
closed = 1;
nodes = (
(538,-195,l),
(1237,1638,l),
(1133,1676,l),
(435,-157,l)
);
},
{
ref = A;
}
);
width = 1512;
}
);
unicode = 570;
},
{
glyphname = Atilde;
kernLeft = A;
kernRight = A;
lastChange = "2024-04-12 10:11:21 +0000";
layers = (
{
background = {
anchors = (
{
name = bottom;
pos = (714,0);
},
{
name = ogonek;
pos = (1342,0);
},
{
name = top;
pos = (714,1845);
}
);
shapes = (
{
closed = 1;
nodes = (
(295,0,l),
(734,1258,l),
(704,1259,l),
(1137,0,l),
(1342,0,l),
(802,1446,l),
(625,1446,l),
(86,0,l)
);
},
{
closed = 1;
nodes = (
(1123,282,l),
(1077,430,l),
(354,430,l),
(306,282,l)
);
},
{
closed = 1;
nodes = (
(944,1602,o),
(1010,1666,o),
(1010,1831,c),
(913,1831,l),
(913,1769,o),
(884,1738,o),
(843,1738,cs),
(772,1738,o),
(740,1845,o),
(603,1845,cs),
(483,1845,o),
(417,1781,o),
(417,1616,c),
(514,1616,l),
(514,1678,o),
(543,1709,o),
(584,1709,cs),
(655,1709,o),
(687,1602,o),
(824,1602,cs)
);
}
);
};
layerId = "F85E8FEC-B3CD-4A54-BF30-AB1986ECE904";
shapes = (
{
ref = A;
},
{
pos = (710,0);
ref = tildecomb.case;
}
);
width = 1428;
},
{
background = {
anchors = (
{
name = bottom;
pos = (756,0);
},
{
name = ogonek;
pos = (1442,0);
},
{
name = top;
pos = (756,1924);
}
);
shapes = (
{
closed = 1;
nodes = (
(380,0,l),
(773,1298,l),
(747,1298,l),
(1127,0,l),
(1442,0,l),
(950,1476,l),
(556,1476,l),
(70,0,l)
);
},
{
closed = 1;
nodes = (
(1161,281,l),
(1104,511,l),
(410,511,l),
(351,281,l)
);
},
{
closed = 1;
nodes = (
(1018,1648,o),
(1109,1721,o),
(1109,1908,c),
(975,1908,l),
(975,1845,o),
(943,1822,o),
(903,1822,cs),
(826,1822,o),
(805,1924,o),
(630,1924,cs),
(494,1924,o),
(403,1851,o),
(403,1664,c),
(537,1664,l),
(537,1725,o),
(563,1751,o),
(601,1751,cs),
(681,1751,o),
(708,1648,o),
(882,1648,cs)
);
}
);
};
layerId = "C6C96970-2BBD-4A47-8C90-C83F37B7F23D";
shapes = (
{
ref = A;
},
{
pos = (756,0);
ref = tildecomb.case;
}
);
width = 1512;
}
);
unicode = 195;
},
{
glyphname = AE;
lastChange = "2024-04-12 10:11:14 +0000";
layers = (
{
anchors = (
{
name = top;
pos = (987,1446);
}
);
background = {
anchors = (
{
name = top;
pos = (987,1446);
}
);
shapes = (
{
closed = 1;
nodes = (
(874,502,l),
(874,0,l),
(1559,0,l),
(1559,150,l),
(1065,150,l),
(1065,664,l),
(1489,664,l),
(1489,814,l),
(1065,814,l),
(1065,1296,l),
(1550,1296,l),
(1550,1446,l),
(492,1446,l),
(98,3,l),
(302,0,l),
(632,1296,l),
(874,1296,l),
(874,650,l),
(335,650,l),
(299,502,l)
);
}
);
};
layerId = "F85E8FEC-B3CD-4A54-BF30-AB1986ECE904";
shapes = (
{
closed = 1;
nodes = (
(874,502,l),
(874,0,l),
(1559,0,l),
(1559,150,l),
(1065,150,l),
(1065,664,l),
(1489,664,l),
(1489,814,l),
(1065,814,l),
(1065,1296,l),
(1550,1296,l),
(1550,1446,l),
(492,1446,l),
(98,3,l),
(302,0,l),
(632,1296,l),
(874,1296,l),
(874,650,l),
(335,650,l),
(299,502,l)
);
}
);
width = 1686;
},
{
anchors = (
{
name = top;
pos = (1066,1476);
}
);
background = {
anchors = (
{
name = top;
pos = (1066,1476);
}
);
shapes = (
{
closed = 1;
nodes = (
(893,414,l),
(893,0,l),
(1710,0,l),
(1710,227,l),
(1173,227,l),
(1173,645,l),
(1630,645,l),
(1630,858,l),
(1173,858,l),
(1173,1249,l),
(1700,1249,l),
(1700,1477,l),
(539,1477,l),
(83,0,l),
(393,0,l),
(757,1249,l),
(893,1249,l),
(893,644,l),
(451,644,l),
(396,414,l)
);
}
);
};
layerId = "C6C96970-2BBD-4A47-8C90-C83F37B7F23D";
shapes = (
{
closed = 1;
nodes = (
(893,414,l),
(893,0,l),
(1710,0,l),
(1710,227,l),
(1173,227,l),
(1173,645,l),
(1630,645,l),
(1630,858,l),
(1173,858,l),
(1173,1249,l),
(1700,1249,l),
(1700,1477,l),
(539,1477,l),
(83,0,l),
(393,0,l),
(757,1249,l),
(893,1249,l),
(893,644,l),
(451,644,l),
(396,414,l)
);
}
);
width = 1834;
}
);
unicode = 198;
},
{
glyphname = AEacute;
lastChange = "2024-04-12 10:11:21 +0000";
layers = (
{
background = {
anchors = (
{
name = top;
pos = (987,1982);
}
);
shapes = (
{
closed = 1;
nodes = (
(874,502,l),
(874,0,l),
(1559,0,l),
(1559,150,l),
(1065,150,l),
(1065,664,l),
(1489,664,l),
(1489,814,l),
(1065,814,l),
(1065,1296,l),
(1550,1296,l),
(1550,1446,l),
(492,1446,l),
(98,3,l),
(302,0,l),
(632,1296,l),
(874,1296,l),
(874,650,l),
(335,650,l),
(299,502,l)
);
},
{
closed = 1;
nodes = (
(857,1632,l),
(985,1632,l),
(1247,1982,l),
(1022,1982,l)
);
}
);
};
layerId = "F85E8FEC-B3CD-4A54-BF30-AB1986ECE904";
shapes = (
{
ref = AE;
},
{
pos = (987,0);
ref = acutecomb.case;
}
);
width = 1686;
},
{
background = {
anchors = (
{
name = top;
pos = (1066,2022);
}
);
shapes = (
{
closed = 1;
nodes = (
(893,414,l),
(893,0,l),
(1710,0,l),
(1710,227,l),
(1173,227,l),
(1173,645,l),
(1630,645,l),
(1630,858,l),
(1173,858,l),
(1173,1249,l),
(1700,1249,l),
(1700,1477,l),
(539,1477,l),
(83,0,l),
(393,0,l),
(757,1249,l),
(893,1249,l),
(893,644,l),
(451,644,l),
(396,414,l)
);
},
{
closed = 1;
nodes = (
(906,1657,l),
(1105,1657,l),
(1386,2022,l),
(1068,2022,l)
);
}
);
};
layerId = "C6C96970-2BBD-4A47-8C90-C83F37B7F23D";
shapes = (
{
ref = AE;
},
{
pos = (1066,0);
ref = acutecomb.case;
}
);
width = 1834;
}
);
unicode = 508;
},
{
glyphname = AEmacron;
lastChange = "2024-04-12 10:11:21 +0000";
layers = (
{
background = {
anchors = (
{
name = top;
pos = (987,1813);
}
);
shapes = (
{
closed = 1;
nodes = (
(874,502,l),
(874,0,l),
(1559,0,l),
(1559,150,l),
(1065,150,l),
(1065,664,l),
(1489,664,l),
(1489,814,l),
(1065,814,l),
(1065,1296,l),
(1550,1296,l),
(1550,1446,l),
(492,1446,l),
(98,3,l),
(302,0,l),
(632,1296,l),
(874,1296,l),
(874,650,l),
(335,650,l),
(299,502,l)
);
},
{
closed = 1;
nodes = (
(735,1658,l),
(1239,1658,l),
(1239,1813,l),
(735,1813,l)
);
}
);
};
layerId = "F85E8FEC-B3CD-4A54-BF30-AB1986ECE904";
shapes = (
{
ref = AE;
},
{
pos = (987,0);
ref = macroncomb.case;
}
);
width = 1686;
},
{
background = {
anchors = (
{
name = top;
pos = (1066,1904);
}
);
shapes = (
{
closed = 1;
nodes = (
(893,414,l),
(893,0,l),
(1710,0,l),
(1710,227,l),
(1173,227,l),
(1173,645,l),
(1630,645,l),
(1630,858,l),
(1173,858,l),
(1173,1249,l),
(1700,1249,l),
(1700,1477,l),
(539,1477,l),
(83,0,l),
(393,0,l),
(757,1249,l),
(893,1249,l),
(893,644,l),
(451,644,l),
(396,414,l)
);
},
{
closed = 1;
nodes = (
(724,1737,l),
(1408,1737,l),
(1408,1904,l),
(724,1904,l)
);
}
);
};
layerId = "C6C96970-2BBD-4A47-8C90-C83F37B7F23D";
shapes = (
{
ref = AE;
},
{
pos = (1066,0);
ref = macroncomb.case;
}
);
width = 1834;
}
);
unicode = 482;
},
{
glyphname = B;
kernRight = B;
lastChange = "2024-04-12 10:11:14 +0000";
layers = (
{
anchors = (
{
name = bottom;
pos = (710,0);
},
{
name = top;
pos = (710,1446);
}
);
background = {
anchors = (
{
name = bottom;
pos = (710,0);
},
{
name = top;
pos = (710,1446);
}
);
shapes = (
{
closed = 1;
nodes = (
(786,0,ls),
(1138,0,o),
(1292,124,o),
(1292,411,cs),
(1292,606,o),
(1198,752,o),
(1007,779,c),
(1004,763,l),
(1166,802,o),
(1222,911,o),
(1222,1049,cs),
(1222,1301,o),
(1143,1446,o),
(742,1446,cs),
(218,1446,l),
(218,0,l)
);
},
{
closed = 1;
nodes = (
(420,696,l),
(820,696,ls),
(1041,696,o),
(1094,565,o),
(1094,433,cs),
(1094,197,o),
(995,149,o),
(771,149,cs),
(420,149,l)
);
},
{
closed = 1;
nodes = (
(420,1295,l),
(711,1295,ls),
(955,1295,o),
(1021,1256,o),
(1021,1047,cs),
(1021,917,o),
(973,833,o),
(791,833,cs),
(420,833,l)
);
}
);
};
layerId = "F85E8FEC-B3CD-4A54-BF30-AB1986ECE904";
shapes = (
{
closed = 1;
nodes = (
(786,0,ls),
(1138,0,o),
(1292,124,o),
(1292,411,cs),
(1292,606,o),
(1198,752,o),
(1007,779,c),
(1004,763,l),
(1166,802,o),
(1222,911,o),
(1222,1049,cs),
(1222,1301,o),
(1143,1446,o),
(742,1446,cs),
(218,1446,l),
(218,0,l)
);
},
{
closed = 1;
nodes = (
(420,696,l),
(820,696,ls),
(1041,696,o),
(1094,565,o),
(1094,433,cs),
(1094,197,o),
(995,149,o),
(771,149,cs),
(420,149,l)
);
},
{
closed = 1;
nodes = (
(420,1295,l),
(711,1295,ls),
(955,1295,o),
(1021,1256,o),
(1021,1047,cs),
(1021,917,o),
(973,833,o),
(791,833,cs),
(420,833,l)
);
}
);
width = 1420;
},
{
anchors = (
{
name = bottom;
pos = (728,0);
},
{
name = top;
pos = (728,1476);
}
);
background = {
anchors = (
{
name = bottom;
pos = (728,0);
},
{
name = top;
pos = (728,1476);
}
);
shapes = (
{
closed = 1;
nodes = (
(830,0,ls),
(1196,0,o),
(1344,139,o),
(1344,448,cs),
(1344,653,o),
(1291,792,o),
(1053,808,c),
(1053,796,l),
(1240,828,o),
(1281,926,o),
(1281,1088,cs),
(1281,1353,o),
(1171,1476,o),
(758,1476,cs),
(190,1476,l),
(190,0,l)
);
},
{
closed = 1;
nodes = (
(487,703,l),
(805,703,ls),
(1027,703,o),
(1048,602,o),
(1048,455,cs),
(1048,250,o),
(1006,208,o),
(775,208,cs),
(487,208,l)
);
},
{
closed = 1;
nodes = (
(487,1273,l),
(739,1273,ls),
(940,1273,o),
(978,1240,o),
(978,1085,cs),
(978,952,o),
(967,882,o),
(794,882,cs),
(487,882,l)
);
}
);
};
layerId = "C6C96970-2BBD-4A47-8C90-C83F37B7F23D";
shapes = (
{
closed = 1;
nodes = (
(830,0,ls),
(1196,0,o),
(1344,139,o),
(1344,448,cs),
(1344,653,o),
(1291,792,o),
(1053,808,c),
(1053,796,l),
(1240,828,o),
(1281,926,o),
(1281,1088,cs),
(1281,1353,o),
(1171,1476,o),
(758,1476,cs),
(190,1476,l),
(190,0,l)
);
},
{
closed = 1;
nodes = (
(487,703,l),
(805,703,ls),
(1027,703,o),
(1048,602,o),
(1048,455,cs),
(1048,250,o),
(1006,208,o),
(775,208,cs),
(487,208,l)
);
},
{
closed = 1;
nodes = (
(487,1273,l),
(739,1273,ls),
(940,1273,o),
(978,1240,o),
(978,1085,cs),
(978,952,o),
(967,882,o),
(794,882,cs),
(487,882,l)
);
}
);
width = 1456.23;
}
);
unicode = 66;
},
{
glyphname = Bdotaccent;
kernRight = B;
lastChange = "2024-04-12 10:11:21 +0000";
layers = (
{
background = {
anchors = (
{
name = bottom;
pos = (710,0);
},
{
name = top;
pos = (710,1822);
}
);
shapes = (
{
closed = 1;
nodes = (
(786,0,ls),
(1138,0,o),
(1292,124,o),
(1292,411,cs),
(1292,606,o),
(1198,752,o),
(1007,779,c),
(1004,763,l),
(1166,802,o),
(1222,911,o),
(1222,1049,cs),
(1222,1301,o),
(1143,1446,o),
(742,1446,cs),
(218,1446,l),
(218,0,l)
);
},
{
closed = 1;
nodes = (
(420,696,l),
(820,696,ls),
(1041,696,o),
(1094,565,o),
(1094,433,cs),
(1094,197,o),
(995,149,o),
(771,149,cs),
(420,149,l)
);
},
{
closed = 1;
nodes = (
(420,1295,l),
(711,1295,ls),
(955,1295,o),
(1021,1256,o),
(1021,1047,cs),
(1021,917,o),
(973,833,o),
(791,833,cs),
(420,833,l)
);
},
{
closed = 1;
nodes = (
(613,1614,l),
(807,1614,l),
(807,1822,l),
(613,1822,l)
);
}
);
};
layerId = "F85E8FEC-B3CD-4A54-BF30-AB1986ECE904";
shapes = (
{
ref = B;
},
{
pos = (710,0);
ref = dotaccentcomb.case;
}
);
width = 1420;
},
{
background = {
anchors = (
{
name = bottom;
pos = (728,0);
},
{
name = top;
pos = (728,1933);
}
);
shapes = (
{
closed = 1;
nodes = (
(830,0,ls),
(1196,0,o),
(1344,139,o),
(1344,448,cs),
(1344,653,o),
(1291,792,o),
(1053,808,c),
(1053,796,l),
(1240,828,o),
(1281,926,o),
(1281,1088,cs),
(1281,1353,o),
(1171,1476,o),
(758,1476,cs),
(190,1476,l),
(190,0,l)
);
},
{
closed = 1;
nodes = (
(487,703,l),
(805,703,ls),
(1027,703,o),
(1048,602,o),
(1048,455,cs),
(1048,250,o),
(1006,208,o),
(775,208,cs),
(487,208,l)
);
},
{
closed = 1;
nodes = (
(487,1273,l),
(739,1273,ls),
(940,1273,o),
(978,1240,o),
(978,1085,cs),
(978,952,o),
(967,882,o),
(794,882,cs),
(487,882,l)
);
},
{
closed = 1;
nodes = (
(601,1668,l),
(855,1668,l),
(855,1933,l),
(601,1933,l)
);
}
);
};
layerId = "C6C96970-2BBD-4A47-8C90-C83F37B7F23D";
shapes = (
{
ref = B;
},
{
pos = (728,0);
ref = dotaccentcomb.case;
}
);
width = 1456;
}
);
unicode = 7682;
},
{
glyphname = Bdotbelow;
kernRight = B;
lastChange = "2024-04-12 10:11:21 +0000";
layers = (
{
background = {
anchors = (
{
name = bottom;
pos = (710,-343);
},
{
name = top;
pos = (710,1446);
}
);
shapes = (
{
closed = 1;
nodes = (
(786,0,ls),
(1138,0,o),
(1292,124,o),
(1292,411,cs),
(1292,606,o),
(1198,752,o),
(1007,779,c),
(1004,763,l),
(1166,802,o),
(1222,911,o),
(1222,1049,cs),
(1222,1301,o),
(1143,1446,o),
(742,1446,cs),
(218,1446,l),
(218,0,l)
);
},
{
closed = 1;
nodes = (
(420,696,l),
(820,696,ls),
(1041,696,o),
(1094,565,o),
(1094,433,cs),
(1094,197,o),
(995,149,o),
(771,149,cs),
(420,149,l)
);
},
{
closed = 1;
nodes = (
(420,1295,l),
(711,1295,ls),
(955,1295,o),
(1021,1256,o),
(1021,1047,cs),
(1021,917,o),
(973,833,o),
(791,833,cs),
(420,833,l)
);
},
{
closed = 1;
nodes = (
(613,-343,l),
(807,-343,l),
(807,-135,l),
(613,-135,l)
);
}
);
};
layerId = "F85E8FEC-B3CD-4A54-BF30-AB1986ECE904";
shapes = (
{
ref = B;
},
{
pos = (710,0);
ref = dotbelowcomb.case;
}
);
width = 1420;
},
{
background = {
anchors = (
{
name = bottom;
pos = (728,-382);
},
{
name = top;
pos = (728,1476);
}
);
shapes = (
{
closed = 1;
nodes = (
(830,0,ls),
(1196,0,o),
(1344,139,o),
(1344,448,cs),
(1344,653,o),
(1291,792,o),
(1053,808,c),
(1053,796,l),
(1240,828,o),
(1281,926,o),
(1281,1088,cs),
(1281,1353,o),
(1171,1476,o),
(758,1476,cs),
(190,1476,l),
(190,0,l)
);
},
{
closed = 1;
nodes = (
(487,703,l),
(805,703,ls),
(1027,703,o),
(1048,602,o),
(1048,455,cs),
(1048,250,o),
(1006,208,o),
(775,208,cs),
(487,208,l)
);
},
{
closed = 1;
nodes = (
(487,1273,l),
(739,1273,ls),
(940,1273,o),
(978,1240,o),
(978,1085,cs),
(978,952,o),
(967,882,o),
(794,882,cs),
(487,882,l)
);
},
{
closed = 1;
nodes = (
(601,-382,l),
(855,-382,l),
(855,-117,l),
(601,-117,l)
);
}
);
};
layerId = "C6C96970-2BBD-4A47-8C90-C83F37B7F23D";
shapes = (
{
ref = B;
},
{
pos = (728,0);
ref = dotbelowcomb.case;
}
);
width = 1456;
}
);
unicode = 7684;
},
{
glyphname = "Beta-latin";
kernRight = B;
lastChange = "2024-04-12 10:11:14 +0000";
layers = (
{
background = {
shapes = (
{
closed = 1;
nodes = (
(786,0,ls),
(1138,0,o),
(1292,124,o),
(1292,411,cs),
(1292,606,o),
(1198,752,o),
(1007,779,c),
(1004,763,l),
(1166,802,o),
(1222,911,o),
(1222,1049,cs),
(1222,1301,o),
(1143,1446,o),
(742,1446,cs),
(218,1446,l),
(218,0,l)
);
},
{
closed = 1;
nodes = (
(420,696,l),
(820,696,ls),
(1041,696,o),
(1094,565,o),
(1094,433,cs),
(1094,197,o),
(995,149,o),
(771,149,cs),
(420,149,l)
);
},
{
closed = 1;
nodes = (
(420,1295,l),
(711,1295,ls),
(955,1295,o),
(1021,1256,o),
(1021,1047,cs),
(1021,917,o),
(973,833,o),
(791,833,cs),
(420,833,l)
);
},
{
closed = 1;
nodes = (
(218,-410,l),
(420,-410,l),
(420,73,l),
(218,73,l)
);
}
);
};
layerId = "F85E8FEC-B3CD-4A54-BF30-AB1986ECE904";
shapes = (
{
closed = 1;
nodes = (
(786,0,ls),
(1138,0,o),
(1292,124,o),
(1292,411,cs),
(1292,606,o),
(1198,752,o),
(1007,779,c),
(1004,763,l),
(1166,802,o),
(1222,911,o),
(1222,1049,cs),
(1222,1301,o),
(1143,1446,o),
(742,1446,cs),
(218,1446,l),
(218,0,l)
);
},
{
closed = 1;
nodes = (
(420,696,l),
(820,696,ls),
(1041,696,o),
(1094,565,o),
(1094,433,cs),
(1094,197,o),
(995,149,o),
(771,149,cs),
(420,149,l)
);
},
{
closed = 1;
nodes = (
(420,1295,l),
(711,1295,ls),
(955,1295,o),
(1021,1256,o),
(1021,1047,cs),
(1021,917,o),
(973,833,o),
(791,833,cs),
(420,833,l)
);
},
{
closed = 1;
nodes = (
(218,-410,l),
(420,-410,l),
(420,73,l),
(218,73,l)
);
}
);
width = 1420;
},
{
background = {
shapes = (
{
closed = 1;
nodes = (
(830,0,ls),
(1196,0,o),
(1344,139,o),
(1344,448,cs),
(1344,653,o),
(1291,792,o),
(1053,808,c),
(1053,796,l),
(1240,828,o),
(1281,926,o),
(1281,1088,cs),
(1281,1353,o),
(1171,1476,o),
(758,1476,cs),
(190,1476,l),
(190,0,l)
);
},
{
closed = 1;
nodes = (
(487,703,l),
(805,703,ls),
(1027,703,o),
(1048,602,o),
(1048,455,cs),
(1048,250,o),
(1006,208,o),
(775,208,cs),
(487,208,l)
);
},
{
closed = 1;
nodes = (
(487,1273,l),
(739,1273,ls),
(940,1273,o),
(978,1240,o),
(978,1085,cs),
(978,952,o),
(967,882,o),
(794,882,cs),
(487,882,l)
);
},
{
closed = 1;
nodes = (
(190,-410,l),
(487,-410,l),
(487,73,l),
(190,73,l)
);
}
);
};
layerId = "C6C96970-2BBD-4A47-8C90-C83F37B7F23D";
shapes = (
{
closed = 1;
nodes = (
(830,0,ls),
(1196,0,o),
(1344,139,o),
(1344,448,cs),
(1344,653,o),
(1291,792,o),
(1053,808,c),
(1053,796,l),
(1240,828,o),
(1281,926,o),
(1281,1088,cs),
(1281,1353,o),
(1171,1476,o),
(758,1476,cs),
(190,1476,l),
(190,0,l)
);
},
{
closed = 1;
nodes = (
(487,703,l),
(805,703,ls),
(1027,703,o),
(1048,602,o),
(1048,455,cs),
(1048,250,o),
(1006,208,o),
(775,208,cs),
(487,208,l)
);
},
{
closed = 1;
nodes = (
(487,1273,l),
(739,1273,ls),
(940,1273,o),
(978,1240,o),
(978,1085,cs),
(978,952,o),
(967,882,o),
(794,882,cs),
(487,882,l)
);
},
{
closed = 1;
nodes = (
(190,-410,l),
(487,-410,l),
(487,73,l),
(190,73,l)
);
}
);
width = 1456;
}
);
unicode = 42932;
},
{
glyphname = Bhook;
kernRight = B;
lastChange = "2024-04-12 10:11:21 +0000";
layers = (
{
background = {
anchors = (
{
name = bottom;
pos = (841,0);
},
{
name = top;
pos = (841,1446);
}
);
shapes = (
{
closed = 1;
nodes = (
(172,1108,ls),
(172,1235,o),
(208,1295,o),
(349,1295,c),
(370,1446,l),
(102,1446,o),
(-20,1356,o),
(-20,1134,cs),
(-20,1078,l),
(172,1065,l)
);
},
{
closed = 1;
nodes = (
(917,0,ls),
(1269,0,o),
(1423,124,o),
(1423,411,cs),
(1423,606,o),
(1329,752,o),
(1138,779,c),
(1135,763,l),
(1297,802,o),
(1353,911,o),
(1353,1049,cs),
(1353,1301,o),
(1274,1446,o),
(873,1446,cs),
(349,1446,l),
(349,0,l)
);
},
{
closed = 1;
nodes = (
(551,696,l),
(951,696,ls),
(1172,696,o),
(1225,565,o),
(1225,433,cs),
(1225,197,o),
(1126,149,o),
(902,149,cs),
(551,149,l)
);
},
{
closed = 1;
nodes = (
(551,1295,l),
(842,1295,ls),
(1086,1295,o),
(1152,1256,o),
(1152,1047,cs),
(1152,917,o),
(1104,833,o),
(922,833,cs),
(551,833,l)
);
}
);
};
layerId = "F85E8FEC-B3CD-4A54-BF30-AB1986ECE904";
shapes = (
{
closed = 1;
nodes = (
(172,1108,ls),
(172,1235,o),
(208,1295,o),
(349,1295,c),
(370,1446,l),
(102,1446,o),
(-20,1356,o),
(-20,1134,cs),
(-20,1078,l),
(172,1065,l)
);
},
{
pos = (131,0);
ref = B;
}
);
width = 1551;
},
{
background = {
anchors = (
{
name = bottom;
pos = (925,0);
},
{
name = top;
pos = (925,1476);
}
);
shapes = (
{
closed = 1;
nodes = (
(216,1108,ls),
(216,1227,o),
(260,1273,o),
(387,1273,c),
(418,1476,l),
(68,1476,o),
(-24,1375,o),
(-24,1122,cs),
(-24,1038,l),
(216,1028,l)
);
},
{
closed = 1;
nodes = (
(1027,0,ls),
(1393,0,o),
(1541,139,o),
(1541,448,cs),
(1541,653,o),
(1488,792,o),
(1250,808,c),
(1250,796,l),
(1437,828,o),
(1478,926,o),
(1478,1088,cs),
(1478,1353,o),
(1368,1476,o),
(955,1476,cs),
(387,1476,l),
(387,0,l)
);
},
{
closed = 1;
nodes = (
(684,703,l),
(1002,703,ls),
(1224,703,o),
(1245,602,o),
(1245,455,cs),
(1245,250,o),
(1203,208,o),
(972,208,cs),
(684,208,l)
);
},
{
closed = 1;
nodes = (
(684,1273,l),
(936,1273,ls),
(1137,1273,o),
(1175,1240,o),
(1175,1085,cs),
(1175,952,o),
(1164,882,o),
(991,882,cs),
(684,882,l)
);
}
);
};
layerId = "C6C96970-2BBD-4A47-8C90-C83F37B7F23D";
shapes = (
{
closed = 1;
nodes = (
(216,1108,ls),
(216,1227,o),
(260,1273,o),
(387,1273,c),
(418,1476,l),
(68,1476,o),
(-24,1375,o),
(-24,1122,cs),
(-24,1038,l),
(216,1028,l)
);
},
{
pos = (197,0);
ref = B;
}
);
width = 1653;
}
);
unicode = 385;
},
{
glyphname = Blinebelow;
kernRight = B;
lastChange = "2024-04-12 10:11:21 +0000";
layers = (
{
background = {
anchors = (
{
name = bottom;
pos = (710,-316);
},
{
name = top;
pos = (710,1446);
}
);
shapes = (
{
closed = 1;
nodes = (
(786,0,ls),
(1138,0,o),
(1292,124,o),
(1292,411,cs),
(1292,606,o),
(1198,752,o),
(1007,779,c),
(1004,763,l),
(1166,802,o),
(1222,911,o),
(1222,1049,cs),
(1222,1301,o),
(1143,1446,o),
(742,1446,cs),
(218,1446,l),
(218,0,l)
);
},
{
closed = 1;
nodes = (
(420,696,l),
(820,696,ls),
(1041,696,o),
(1094,565,o),
(1094,433,cs),
(1094,197,o),
(995,149,o),
(771,149,cs),
(420,149,l)
);
},
{
closed = 1;
nodes = (
(420,1295,l),
(711,1295,ls),
(955,1295,o),
(1021,1256,o),
(1021,1047,cs),
(1021,917,o),
(973,833,o),
(791,833,cs),
(420,833,l)
);
},
{
closed = 1;
nodes = (
(458,-316,l),
(962,-316,l),
(962,-161,l),
(458,-161,l)
);
}
);
};
layerId = "F85E8FEC-B3CD-4A54-BF30-AB1986ECE904";
shapes = (
{
ref = B;
},
{
pos = (710,0);
ref = macronbelowcomb.case;
}
);
width = 1420;
},
{
background = {
anchors = (
{
name = bottom;
pos = (728,-333);
},
{
name = top;
pos = (728,1476);
}
);
shapes = (
{
closed = 1;
nodes = (
(830,0,ls),
(1196,0,o),
(1344,139,o),
(1344,448,cs),
(1344,653,o),
(1291,792,o),
(1053,808,c),
(1053,796,l),
(1240,828,o),
(1281,926,o),
(1281,1088,cs),
(1281,1353,o),
(1171,1476,o),
(758,1476,cs),
(190,1476,l),
(190,0,l)
);
},
{
closed = 1;
nodes = (
(487,703,l),
(805,703,ls),
(1027,703,o),
(1048,602,o),
(1048,455,cs),
(1048,250,o),
(1006,208,o),
(775,208,cs),
(487,208,l)
);
},
{
closed = 1;
nodes = (
(487,1273,l),
(739,1273,ls),
(940,1273,o),
(978,1240,o),
(978,1085,cs),
(978,952,o),
(967,882,o),
(794,882,cs),
(487,882,l)
);
},
{
closed = 1;
nodes = (
(396,-333,l),
(1060,-333,l),
(1060,-166,l),
(396,-166,l)
);
}
);
};
layerId = "C6C96970-2BBD-4A47-8C90-C83F37B7F23D";
shapes = (
{
ref = B;
},
{
pos = (728,0);
ref = macronbelowcomb.case;
}
);
width = 1456;
}
);
unicode = 7686;
},
{
glyphname = Bstroke;
kernRight = B;
lastChange = "2024-04-12 10:11:21 +0000";
layers = (
{
background = {
anchors = (
{
name = bottom;
pos = (710,0);
},
{
name = top;
pos = (710,1446);
}
);
shapes = (
{
closed = 1;
nodes = (
(30,354,l),
(701,354,l),
(701,498,l),
(30,498,l)
);
},
{
closed = 1;
nodes = (
(786,0,ls),
(1138,0,o),
(1292,124,o),
(1292,411,cs),
(1292,606,o),
(1198,752,o),
(1007,779,c),
(1004,763,l),
(1166,802,o),
(1222,911,o),
(1222,1049,cs),
(1222,1301,o),
(1143,1446,o),
(742,1446,cs),
(218,1446,l),
(218,0,l)
);
},
{
closed = 1;
nodes = (
(420,696,l),
(820,696,ls),
(1041,696,o),
(1094,565,o),
(1094,433,cs),
(1094,197,o),
(995,149,o),
(771,149,cs),
(420,149,l)
);
},
{
closed = 1;
nodes = (
(420,1295,l),
(711,1295,ls),
(955,1295,o),
(1021,1256,o),
(1021,1047,cs),
(1021,917,o),
(973,833,o),
(791,833,cs),
(420,833,l)
);
}
);
};
layerId = "F85E8FEC-B3CD-4A54-BF30-AB1986ECE904";
shapes = (
{
closed = 1;
nodes = (
(30,354,l),
(701,354,l),
(701,498,l),
(30,498,l)
);
},
{
ref = B;
}
);
width = 1420;
},
{
background = {
anchors = (
{
name = bottom;
pos = (728,0);
},
{
name = top;
pos = (728,1476);
}
);
shapes = (
{
closed = 1;
nodes = (
(30,363,l),
(716,363,l),
(716,553,l),
(30,553,l)
);
},
{
closed = 1;
nodes = (
(830,0,ls),
(1196,0,o),
(1344,139,o),
(1344,448,cs),
(1344,653,o),
(1291,792,o),
(1053,808,c),
(1053,796,l),
(1240,828,o),
(1281,926,o),
(1281,1088,cs),
(1281,1353,o),
(1171,1476,o),
(758,1476,cs),
(190,1476,l),
(190,0,l)
);
},
{
closed = 1;
nodes = (
(487,703,l),
(805,703,ls),
(1027,703,o),
(1048,602,o),
(1048,455,cs),
(1048,250,o),
(1006,208,o),
(775,208,cs),
(487,208,l)
);
},
{
closed = 1;
nodes = (
(487,1273,l),
(739,1273,ls),
(940,1273,o),
(978,1240,o),
(978,1085,cs),
(978,952,o),
(967,882,o),
(794,882,cs),
(487,882,l)
);
}
);
};
layerId = "C6C96970-2BBD-4A47-8C90-C83F37B7F23D";
shapes = (
{
closed = 1;
nodes = (
(30,363,l),
(716,363,l),
(716,553,l),
(30,553,l)
);
},
{
ref = B;
}
);
width = 1456;
}
);
unicode = 579;
},
{
glyphname = C;
kernLeft = C;
kernRight = C;
lastChange = "2024-04-12 10:11:14 +0000";
layers = (
{
anchors = (
{
name = bottom;
pos = (765,0);
},
{
name = top;
pos = (765,1446);
}
);
background = {
anchors = (
{
name = bottom;
pos = (765,0);
},
{
name = top;
pos = (765,1446);
}
);
shapes = (
{
closed = 1;
nodes = (
(1221,-22,o),
(1300,147,o),
(1300,438,cs),
(1300,448,l),
(1109,448,l),
(1109,424,ls),
(1109,165,o),
(1016,140,o),
(765,140,cs),
(509,140,o),
(384,199,o),
(384,455,cs),
(384,977,ls),
(384,1234,o),
(505,1306,o),
(759,1306,cs),
(1017,1306,o),
(1109,1269,o),
(1109,1007,cs),
(1109,980,l),
(1300,997,l),
(1300,1010,ls),
(1300,1308,o),
(1197,1468,o),
(759,1468,cs),
(274,1468,o),
(182,1246,o),
(182,940,cs),
(182,486,ls),
(182,185,o),
(278,-22,o),
(761,-22,cs)
);
}
);
};
layerId = "F85E8FEC-B3CD-4A54-BF30-AB1986ECE904";
shapes = (
{
closed = 1;
nodes = (
(1221,-22,o),
(1300,147,o),
(1300,438,cs),
(1300,448,l),
(1109,448,l),
(1109,424,ls),
(1109,165,o),
(1016,140,o),
(765,140,cs),
(509,140,o),
(384,199,o),
(384,455,cs),
(384,977,ls),
(384,1234,o),
(505,1306,o),
(759,1306,cs),
(1017,1306,o),
(1109,1269,o),
(1109,1007,cs),
(1109,980,l),
(1300,997,l),
(1300,1010,ls),
(1300,1308,o),
(1197,1468,o),
(759,1468,cs),
(274,1468,o),
(182,1246,o),
(182,940,cs),
(182,486,ls),
(182,185,o),
(278,-22,o),
(761,-22,cs)
);
}
);
width = 1456;
},
{
anchors = (
{
name = bottom;
pos = (777,0);
},
{
name = top;
pos = (780,1476);
}
);
background = {
anchors = (
{
name = bottom;
pos = (777,0);
},
{
name = top;
pos = (780,1476);
}
);
shapes = (
{
closed = 1;
nodes = (
(1292,-26,o),
(1362,190,o),
(1362,480,cs),
(1362,507,l),
(1071,507,l),
(1071,460,ls),
(1071,250,o),
(1006,207,o),
(781,207,cs),
(559,207,o),
(457,252,o),
(457,454,cs),
(457,1012,ls),
(457,1215,o),
(560,1268,o),
(780,1268,cs),
(1005,1268,o),
(1071,1213,o),
(1071,1006,cs),
(1071,931,l),
(1362,965,l),
(1362,983,ls),
(1362,1281,o),
(1284,1501,o),
(780,1501,cs),
(251,1501,o),
(160,1275,o),
(160,977,cs),
(160,484,ls),
(160,193,o),
(254,-26,o),
(780,-26,cs)
);
}
);
};
layerId = "C6C96970-2BBD-4A47-8C90-C83F37B7F23D";
shapes = (
{
closed = 1;
nodes = (
(1292,-26,o),
(1362,190,o),
(1362,480,cs),
(1362,507,l),
(1071,507,l),
(1071,460,ls),
(1071,250,o),
(1006,207,o),
(781,207,cs),
(559,207,o),
(457,252,o),
(457,454,cs),
(457,1012,ls),
(457,1215,o),
(560,1268,o),
(780,1268,cs),
(1005,1268,o),
(1071,1213,o),
(1071,1006,cs),
(1071,931,l),
(1362,965,l),
(1362,983,ls),
(1362,1281,o),
(1284,1501,o),
(780,1501,cs),
(251,1501,o),
(160,1275,o),
(160,977,cs),
(160,484,ls),
(160,193,o),
(254,-26,o),
(780,-26,cs)
);
}
);
width = 1490;
}
);
unicode = 67;
},
{
glyphname = Cacute;
kernLeft = C;
kernRight = C;
lastChange = "2024-04-12 10:11:21 +0000";
layers = (
{
background = {
anchors = (
{
name = bottom;
pos = (765,0);
},
{
name = top;
pos = (765,1982);
}
);
shapes = (
{
closed = 1;
nodes = (
(1221,-22,o),
(1300,147,o),
(1300,438,cs),
(1300,448,l),
(1109,448,l),
(1109,424,ls),
(1109,165,o),
(1016,140,o),
(765,140,cs),
(509,140,o),
(384,199,o),
(384,455,cs),
(384,977,ls),
(384,1234,o),
(505,1306,o),
(759,1306,cs),
(1017,1306,o),
(1109,1269,o),
(1109,1007,cs),
(1109,980,l),
(1300,997,l),
(1300,1010,ls),
(1300,1308,o),
(1197,1468,o),
(759,1468,cs),
(274,1468,o),
(182,1246,o),
(182,940,cs),
(182,486,ls),
(182,185,o),
(278,-22,o),
(761,-22,cs)
);
},
{
closed = 1;
nodes = (
(635,1632,l),
(763,1632,l),
(1025,1982,l),
(800,1982,l)
);
}
);
};
layerId = "F85E8FEC-B3CD-4A54-BF30-AB1986ECE904";
shapes = (
{
ref = C;
},
{
pos = (765,0);
ref = acutecomb.case;
}
);
width = 1456;
},
{
background = {
anchors = (
{
name = bottom;
pos = (777,0);
},
{
name = top;
pos = (780,2022);
}
);
shapes = (
{
closed = 1;
nodes = (
(1292,-26,o),
(1362,190,o),
(1362,480,cs),
(1362,507,l),
(1071,507,l),
(1071,460,ls),
(1071,250,o),
(1006,207,o),
(781,207,cs),
(559,207,o),
(457,252,o),
(457,454,cs),
(457,1012,ls),
(457,1215,o),
(560,1268,o),
(780,1268,cs),
(1005,1268,o),
(1071,1213,o),
(1071,1006,cs),
(1071,931,l),
(1362,965,l),
(1362,983,ls),
(1362,1281,o),
(1284,1501,o),
(780,1501,cs),
(251,1501,o),
(160,1275,o),
(160,977,cs),
(160,484,ls),
(160,193,o),
(254,-26,o),
(780,-26,cs)
);
},
{
closed = 1;
nodes = (
(620,1657,l),
(819,1657,l),
(1100,2022,l),
(782,2022,l)
);
}
);
};
layerId = "C6C96970-2BBD-4A47-8C90-C83F37B7F23D";
shapes = (
{
ref = C;
},
{
pos = (780,0);
ref = acutecomb.case;
}
);
width = 1490;
}
);
unicode = 262;
},
{
glyphname = Ccaron;
kernLeft = C;
kernRight = C;
lastChange = "2024-04-12 10:11:21 +0000";
layers = (
{
background = {
anchors = (
{
name = bottom;
pos = (765,0);
},
{
name = top;
pos = (765,1955);
}
);
shapes = (
{
closed = 1;
nodes = (
(1221,-22,o),
(1300,147,o),
(1300,438,cs),
(1300,448,l),
(1109,448,l),
(1109,424,ls),
(1109,165,o),
(1016,140,o),
(765,140,cs),
(509,140,o),
(384,199,o),
(384,455,cs),
(384,977,ls),
(384,1234,o),
(505,1306,o),
(759,1306,cs),
(1017,1306,o),
(1109,1269,o),
(1109,1007,cs),
(1109,980,l),
(1300,997,l),
(1300,1010,ls),
(1300,1308,o),
(1197,1468,o),
(759,1468,cs),
(274,1468,o),
(182,1246,o),
(182,940,cs),
(182,486,ls),
(182,185,o),
(278,-22,o),
(761,-22,cs)
);
},
{
closed = 1;
nodes = (
(853,1635,l),
(1108,1955,l),
(970,1955,l),
(714,1725,l),
(818,1725,l),
(561,1955,l),
(423,1955,l),
(678,1635,l)
);
}
);
};
layerId = "F85E8FEC-B3CD-4A54-BF30-AB1986ECE904";
shapes = (
{
ref = C;
},
{
pos = (766,0);
ref = caroncomb.case;
}
);
width = 1456;
},
{
background = {
anchors = (
{
name = bottom;
pos = (777,0);
},
{
name = top;
pos = (780,1993);
}
);
shapes = (
{
closed = 1;
nodes = (
(1292,-26,o),
(1362,190,o),
(1362,480,cs),
(1362,507,l),
(1071,507,l),
(1071,460,ls),
(1071,250,o),
(1006,207,o),
(781,207,cs),
(559,207,o),
(457,252,o),
(457,454,cs),
(457,1012,ls),
(457,1215,o),
(560,1268,o),
(780,1268,cs),
(1005,1268,o),
(1071,1213,o),
(1071,1006,cs),
(1071,931,l),
(1362,965,l),
(1362,983,ls),
(1362,1281,o),
(1284,1501,o),
(780,1501,cs),
(251,1501,o),
(160,1275,o),
(160,977,cs),
(160,484,ls),
(160,193,o),
(254,-26,o),
(780,-26,cs)
);
},
{
closed = 1;
nodes = (
(879,1638,l),
(1156,1993,l),
(977,1993,l),
(747,1788,l),
(814,1788,l),
(583,1993,l),
(404,1993,l),
(681,1638,l)
);
}
);
};
layerId = "C6C96970-2BBD-4A47-8C90-C83F37B7F23D";
shapes = (
{
ref = C;
},
{
pos = (780,0);
ref = caroncomb.case;
}
);
width = 1490;
}
);
unicode = 268;
},
{
glyphname = Ccedilla;
kernLeft = C;
kernRight = C;
lastChange = "2024-04-12 10:11:21 +0000";
layers = (
{
background = {
anchors = (
{
name = bottom;
pos = (765,-465);
},
{
name = top;
pos = (765,1446);
}
);
shapes = (
{
closed = 1;
nodes = (
(1221,-22,o),
(1300,147,o),
(1300,438,cs),
(1300,448,l),
(1109,448,l),
(1109,424,ls),
(1109,165,o),
(1016,140,o),
(765,140,cs),
(509,140,o),
(384,199,o),
(384,455,cs),
(384,977,ls),
(384,1234,o),
(505,1306,o),
(759,1306,cs),
(1017,1306,o),
(1109,1269,o),
(1109,1007,cs),
(1109,980,l),
(1300,997,l),
(1300,1010,ls),
(1300,1308,o),
(1197,1468,o),
(759,1468,cs),
(274,1468,o),
(182,1246,o),
(182,940,cs),
(182,486,ls),
(182,185,o),
(278,-22,o),
(761,-22,cs)
);
},
{
closed = 1;
nodes = (
(800,-465,ls),
(951,-465,o),
(1005,-387,o),
(1005,-292,cs),
(1005,-262,ls),
(1005,-145,o),
(950,-90,o),
(797,-90,c),
(812,-136,l),
(812,30,l),
(711,30,l),
(711,-193,l),
(811,-193,ls),
(848,-193,o),
(867,-213,o),
(867,-239,cs),
(867,-307,ls),
(867,-333,o),
(853,-353,o),
(811,-353,cs),
(623,-353,l),
(623,-465,l)
);
}
);
};
layerId = "F85E8FEC-B3CD-4A54-BF30-AB1986ECE904";
shapes = (
{
ref = C;
},
{
pos = (764,0);
ref = cedillacomb.case;
}
);
width = 1456;
},
{
background = {
anchors = (
{
name = bottom;
pos = (777,-485);
},
{
name = top;
pos = (780,1476);
}
);
shapes = (
{
closed = 1;
nodes = (
(1292,-26,o),
(1362,190,o),
(1362,480,cs),
(1362,507,l),
(1071,507,l),
(1071,460,ls),
(1071,250,o),
(1006,207,o),
(781,207,cs),
(559,207,o),
(457,252,o),
(457,454,cs),
(457,1012,ls),
(457,1215,o),
(560,1268,o),
(780,1268,cs),
(1005,1268,o),
(1071,1213,o),
(1071,1006,cs),
(1071,931,l),
(1362,965,l),
(1362,983,ls),
(1362,1281,o),
(1284,1501,o),
(780,1501,cs),
(251,1501,o),
(160,1275,o),
(160,977,cs),
(160,484,ls),
(160,193,o),
(254,-26,o),
(780,-26,cs)
);
},
{
closed = 1;
nodes = (
(809,-485,ls),
(960,-485,o),
(1014,-407,o),
(1014,-312,cs),
(1014,-262,ls),
(1014,-145,o),
(942,-90,o),
(776,-90,c),
(841,-136,l),
(841,30,l),
(710,30,l),
(710,-213,l),
(800,-213,ls),
(837,-213,o),
(856,-233,o),
(856,-259,cs),
(856,-317,ls),
(856,-343,o),
(842,-363,o),
(800,-363,cs),
(622,-363,l),
(622,-485,l)
);
}
);
};
layerId = "C6C96970-2BBD-4A47-8C90-C83F37B7F23D";
shapes = (
{
ref = C;
},
{
pos = (777,0);
ref = cedillacomb.case;
}
);
width = 1490;
}
);
unicode = 199;
},
{
glyphname = Ccedillaacute;
kernLeft = C;
kernRight = C;
lastChange = "2024-04-12 10:11:21 +0000";
layers = (
{
background = {
anchors = (
{
name = bottom;
pos = (765,-465);
},
{
name = top;
pos = (765,1982);
}
);
shapes = (
{
closed = 1;
nodes = (
(1221,-22,o),
(1300,147,o),
(1300,438,cs),
(1300,448,l),
(1109,448,l),
(1109,424,ls),
(1109,165,o),
(1016,140,o),
(765,140,cs),
(509,140,o),
(384,199,o),
(384,455,cs),
(384,977,ls),
(384,1234,o),
(505,1306,o),
(759,1306,cs),
(1017,1306,o),
(1109,1269,o),
(1109,1007,cs),
(1109,980,l),
(1300,997,l),
(1300,1010,ls),
(1300,1308,o),
(1197,1468,o),
(759,1468,cs),
(274,1468,o),
(182,1246,o),
(182,940,cs),
(182,486,ls),
(182,185,o),
(278,-22,o),
(761,-22,cs)
);
},
{
closed = 1;
nodes = (
(800,-465,ls),
(951,-465,o),
(1005,-387,o),
(1005,-292,cs),
(1005,-262,ls),
(1005,-145,o),
(950,-90,o),
(797,-90,c),
(812,-136,l),
(812,30,l),
(711,30,l),
(711,-193,l),
(811,-193,ls),
(848,-193,o),
(867,-213,o),
(867,-239,cs),
(867,-307,ls),
(867,-333,o),
(853,-353,o),
(811,-353,cs),
(623,-353,l),
(623,-465,l)
);
},
{
closed = 1;
nodes = (
(635,1632,l),
(763,1632,l),
(1025,1982,l),
(800,1982,l)
);
}
);
};
layerId = "F85E8FEC-B3CD-4A54-BF30-AB1986ECE904";
shapes = (
{
ref = C;
},
{
pos = (764,0);
ref = cedillacomb.case;
},
{
pos = (765,0);
ref = acutecomb.case;
}
);
width = 1456;
},
{
background = {
anchors = (
{
name = bottom;
pos = (777,-485);
},
{
name = top;
pos = (780,2022);
}
);
shapes = (
{
closed = 1;
nodes = (
(1292,-26,o),
(1362,190,o),
(1362,480,cs),
(1362,507,l),
(1071,507,l),
(1071,460,ls),
(1071,250,o),
(1006,207,o),
(781,207,cs),
(559,207,o),
(457,252,o),
(457,454,cs),
(457,1012,ls),
(457,1215,o),
(560,1268,o),
(780,1268,cs),
(1005,1268,o),
(1071,1213,o),
(1071,1006,cs),
(1071,931,l),
(1362,965,l),
(1362,983,ls),
(1362,1281,o),
(1284,1501,o),
(780,1501,cs),
(251,1501,o),
(160,1275,o),
(160,977,cs),
(160,484,ls),
(160,193,o),
(254,-26,o),
(780,-26,cs)
);
},
{
closed = 1;
nodes = (
(809,-485,ls),
(960,-485,o),
(1014,-407,o),
(1014,-312,cs),
(1014,-262,ls),
(1014,-145,o),
(942,-90,o),
(776,-90,c),
(841,-136,l),
(841,30,l),
(710,30,l),
(710,-213,l),
(800,-213,ls),
(837,-213,o),
(856,-233,o),
(856,-259,cs),
(856,-317,ls),
(856,-343,o),
(842,-363,o),
(800,-363,cs),
(622,-363,l),
(622,-485,l)
);
},
{
closed = 1;
nodes = (
(620,1657,l),
(819,1657,l),
(1100,2022,l),
(782,2022,l)
);
}
);
};
layerId = "C6C96970-2BBD-4A47-8C90-C83F37B7F23D";
shapes = (
{
ref = C;
},
{
pos = (777,0);
ref = cedillacomb.case;
},
{
pos = (780,0);
ref = acutecomb.case;
}
);
width = 1490;
}
);
unicode = 7688;
},
{
glyphname = Ccircumflex;
kernLeft = C;
kernRight = C;
lastChange = "2024-04-12 10:11:21 +0000";
layers = (
{
background = {
anchors = (
{
name = bottom;
pos = (765,0);
},
{
name = top;
pos = (765,1955);
}
);
shapes = (
{
closed = 1;
nodes = (
(1221,-22,o),
(1300,147,o),
(1300,438,cs),
(1300,448,l),
(1109,448,l),
(1109,424,ls),
(1109,165,o),
(1016,140,o),
(765,140,cs),
(509,140,o),
(384,199,o),
(384,455,cs),
(384,977,ls),
(384,1234,o),
(505,1306,o),
(759,1306,cs),
(1017,1306,o),
(1109,1269,o),
(1109,1007,cs),
(1109,980,l),
(1300,997,l),
(1300,1010,ls),
(1300,1308,o),
(1197,1468,o),
(759,1468,cs),
(274,1468,o),
(182,1246,o),
(182,940,cs),
(182,486,ls),
(182,185,o),
(278,-22,o),
(761,-22,cs)
);
},
{
closed = 1;
nodes = (
(561,1635,l),
(818,1865,l),
(714,1865,l),
(970,1635,l),
(1108,1635,l),
(853,1955,l),
(678,1955,l),
(423,1635,l)
);
}
);
};
layerId = "F85E8FEC-B3CD-4A54-BF30-AB1986ECE904";
shapes = (
{
ref = C;
},
{
pos = (766,0);
ref = circumflexcomb.case;
}
);
width = 1456;
},
{
background = {
anchors = (
{
name = bottom;
pos = (777,0);
},
{
name = top;
pos = (780,1993);
}
);
shapes = (
{
closed = 1;
nodes = (
(1292,-26,o),
(1362,190,o),
(1362,480,cs),
(1362,507,l),
(1071,507,l),
(1071,460,ls),
(1071,250,o),
(1006,207,o),
(781,207,cs),
(559,207,o),
(457,252,o),
(457,454,cs),
(457,1012,ls),
(457,1215,o),
(560,1268,o),
(780,1268,cs),
(1005,1268,o),
(1071,1213,o),
(1071,1006,cs),
(1071,931,l),
(1362,965,l),
(1362,983,ls),
(1362,1281,o),
(1284,1501,o),
(780,1501,cs),
(251,1501,o),
(160,1275,o),
(160,977,cs),
(160,484,ls),
(160,193,o),
(254,-26,o),
(780,-26,cs)
);
},
{
closed = 1;
nodes = (
(583,1638,l),
(814,1843,l),
(747,1843,l),
(977,1638,l),
(1156,1638,l),
(879,1993,l),
(681,1993,l),
(404,1638,l)
);
}
);
};
layerId = "C6C96970-2BBD-4A47-8C90-C83F37B7F23D";
shapes = (
{
ref = C;
},
{
pos = (780,0);
ref = circumflexcomb.case;
}
);
width = 1490;
}
);
unicode = 264;
},
{
glyphname = Cdotaccent;
kernLeft = C;
kernRight = C;
lastChange = "2024-04-12 10:11:21 +0000";
layers = (
{
background = {
anchors = (
{
name = bottom;
pos = (765,0);
},
{
name = top;
pos = (765,1822);
}
);
shapes = (
{
closed = 1;
nodes = (
(1221,-22,o),
(1300,147,o),
(1300,438,cs),
(1300,448,l),
(1109,448,l),
(1109,424,ls),
(1109,165,o),
(1016,140,o),
(765,140,cs),
(509,140,o),
(384,199,o),
(384,455,cs),
(384,977,ls),
(384,1234,o),
(505,1306,o),
(759,1306,cs),
(1017,1306,o),
(1109,1269,o),
(1109,1007,cs),
(1109,980,l),
(1300,997,l),
(1300,1010,ls),
(1300,1308,o),
(1197,1468,o),
(759,1468,cs),
(274,1468,o),
(182,1246,o),
(182,940,cs),
(182,486,ls),
(182,185,o),
(278,-22,o),
(761,-22,cs)
);
},
{
closed = 1;
nodes = (
(668,1614,l),
(862,1614,l),
(862,1822,l),
(668,1822,l)
);
}
);
};
layerId = "F85E8FEC-B3CD-4A54-BF30-AB1986ECE904";
shapes = (
{
ref = C;
},
{
pos = (765,0);
ref = dotaccentcomb.case;
}
);
width = 1456;
},
{
background = {
anchors = (
{
name = bottom;
pos = (777,0);
},
{
name = top;
pos = (780,1933);
}
);
shapes = (
{
closed = 1;
nodes = (
(1292,-26,o),
(1362,190,o),
(1362,480,cs),
(1362,507,l),
(1071,507,l),
(1071,460,ls),
(1071,250,o),
(1006,207,o),
(781,207,cs),
(559,207,o),
(457,252,o),
(457,454,cs),
(457,1012,ls),
(457,1215,o),
(560,1268,o),
(780,1268,cs),
(1005,1268,o),
(1071,1213,o),
(1071,1006,cs),
(1071,931,l),
(1362,965,l),
(1362,983,ls),
(1362,1281,o),
(1284,1501,o),
(780,1501,cs),
(251,1501,o),
(160,1275,o),
(160,977,cs),
(160,484,ls),
(160,193,o),
(254,-26,o),
(780,-26,cs)
);
},
{
closed = 1;
nodes = (
(653,1668,l),
(907,1668,l),
(907,1933,l),
(653,1933,l)
);
}
);
};
layerId = "C6C96970-2BBD-4A47-8C90-C83F37B7F23D";
shapes = (
{
ref = C;
},
{
pos = (780,0);
ref = dotaccentcomb.case;
}
);
width = 1490;
}
);
unicode = 266;
},
{
glyphname = "Chi-latin";
lastChange = "2024-04-12 10:11:14 +0000";
layers = (
{
background = {
shapes = (
{
closed = 1;
nodes = (
(1276,-408,l),
(1290,-258,l),
(1255,-258,ls),
(1183,-258,o),
(1145,-230,o),
(1100,-139,cs),
(422,1239,ls),
(340,1406,o),
(272,1446,o),
(128,1446,cs),
(63,1446,l),
(49,1296,l),
(84,1296,ls),
(156,1296,o),
(193,1268,o),
(238,1177,cs),
(915,-201,ls),
(997,-368,o),
(1067,-408,o),
(1211,-408,cs)
);
},
{
closed = 1;
nodes = (
(297,-408,l),
(664,376,l),
(565,586,l),
(84,-408,l)
);
},
{
closed = 1;
nodes = (
(1217,1446,l),
(1004,1446,l),
(654,694,l),
(753,484,l)
);
}
);
};
layerId = "F85E8FEC-B3CD-4A54-BF30-AB1986ECE904";
shapes = (
{
closed = 1;
nodes = (
(1276,-408,l),
(1290,-258,l),
(1255,-258,ls),
(1183,-258,o),
(1145,-230,o),
(1100,-139,cs),
(422,1239,ls),
(340,1406,o),
(272,1446,o),
(128,1446,cs),
(63,1446,l),
(49,1296,l),
(84,1296,ls),
(156,1296,o),
(193,1268,o),
(238,1177,cs),
(915,-201,ls),
(997,-368,o),
(1067,-408,o),
(1211,-408,cs)
);
},
{
closed = 1;
nodes = (
(297,-408,l),
(664,376,l),
(565,586,l),
(84,-408,l)
);
},
{
closed = 1;
nodes = (
(1217,1446,l),
(1004,1446,l),
(654,694,l),
(753,484,l)
);
}
);
width = 1306;
},
{
background = {
shapes = (
{
closed = 1;
nodes = (
(1325,-410,l),
(1335,-179,l),
(1292,-179,ls),
(1214,-179,o),
(1185,-156,o),
(1140,-66,cs),
(491,1233,ls),
(398,1419,o),
(336,1476,o),
(146,1476,cs),
(38,1476,l),
(28,1245,l),
(71,1245,ls),
(149,1245,o),
(178,1222,o),
(223,1132,cs),
(872,-167,ls),
(966,-355,o),
(1027,-410,o),
(1217,-410,cs)
);
},
{
closed = 1;
nodes = (
(356,-410,l),
(710,355,l),
(525,598,l),
(38,-410,l)
);
},
{
closed = 1;
nodes = (
(1297,1476,l),
(979,1476,l),
(610,731,l),
(795,488,l)
);
}
);
};
layerId = "C6C96970-2BBD-4A47-8C90-C83F37B7F23D";
shapes = (
{
closed = 1;
nodes = (
(1325,-410,l),
(1335,-179,l),
(1292,-179,ls),
(1214,-179,o),
(1185,-156,o),
(1140,-66,cs),
(491,1233,ls),
(398,1419,o),
(336,1476,o),
(146,1476,cs),
(38,1476,l),
(28,1245,l),
(71,1245,ls),
(149,1245,o),
(178,1222,o),
(223,1132,cs),
(872,-167,ls),
(966,-355,o),
(1027,-410,o),
(1217,-410,cs)
);
},
{
closed = 1;
nodes = (
(356,-410,l),
(710,355,l),
(525,598,l),
(38,-410,l)
);
},
{
closed = 1;
nodes = (
(1297,1476,l),
(979,1476,l),
(610,731,l),
(795,488,l)
);
}
);
width = 1352;
}
);
unicode = 42931;
},
{
glyphname = Chook;
kernLeft = C;
kernRight = C;
lastChange = "2024-04-12 10:11:14 +0000";
layers = (
{
background = {
shapes = (
{
closed = 1;
nodes = (
(1221,-22,o),
(1300,147,o),
(1300,438,cs),
(1300,448,l),
(1109,448,l),
(1109,424,ls),
(1109,165,o),
(1016,140,o),
(765,140,cs),
(509,140,o),
(384,199,o),
(384,455,cs),
(384,977,ls),
(384,1234,o),
(505,1306,o),
(759,1306,cs),
(1017,1306,o),
(1109,1269,o),
(1109,1007,cs),
(1109,980,l),
(1300,997,l),
(1300,1353,ls),
(1300,1500,o),
(1340,1540,o),
(1460,1540,cs),
(1493,1540,l),
(1480,1692,l),
(1413,1692,ls),
(1202,1692,o),
(1123,1599,o),
(1123,1360,c),
(1143,1386,l),
(1059,1441,o),
(937,1468,o),
(759,1468,cs),
(274,1468,o),
(182,1246,o),
(182,940,cs),
(182,486,ls),
(182,185,o),
(278,-22,o),
(761,-22,cs)
);
}
);
};
layerId = "F85E8FEC-B3CD-4A54-BF30-AB1986ECE904";
shapes = (
{
closed = 1;
nodes = (
(1221,-22,o),
(1300,147,o),
(1300,438,cs),
(1300,448,l),
(1109,448,l),
(1109,424,ls),
(1109,165,o),
(1016,140,o),
(765,140,cs),
(509,140,o),
(384,199,o),
(384,455,cs),
(384,977,ls),
(384,1234,o),
(505,1306,o),
(759,1306,cs),
(1017,1306,o),
(1109,1269,o),
(1109,1007,cs),
(1109,980,l),
(1300,997,l),
(1300,1353,ls),
(1300,1500,o),
(1340,1540,o),
(1460,1540,cs),
(1493,1540,l),
(1480,1692,l),
(1413,1692,ls),
(1202,1692,o),
(1123,1599,o),
(1123,1360,c),
(1143,1386,l),
(1059,1441,o),
(937,1468,o),
(759,1468,cs),
(274,1468,o),
(182,1246,o),
(182,940,cs),
(182,486,ls),
(182,185,o),
(278,-22,o),
(761,-22,cs)
);
}
);
width = 1456;
},
{
background = {
shapes = (
{
closed = 1;
nodes = (
(1292,-26,o),
(1362,190,o),
(1362,480,cs),
(1362,507,l),
(1071,507,l),
(1071,460,ls),
(1071,250,o),
(1006,207,o),
(781,207,cs),
(559,207,o),
(457,252,o),
(457,454,cs),
(457,1012,ls),
(457,1215,o),
(560,1268,o),
(780,1268,cs),
(1005,1268,o),
(1071,1213,o),
(1071,1006,cs),
(1071,931,l),
(1362,965,l),
(1362,1381,ls),
(1362,1478,o),
(1399,1522,o),
(1478,1522,cs),
(1508,1522,l),
(1498,1750,l),
(1404,1750,ls),
(1188,1750,o),
(1106,1639,o),
(1106,1416,c),
(1128,1424,l),
(1045,1479,o),
(942,1501,o),
(780,1501,cs),
(251,1501,o),
(160,1275,o),
(160,977,cs),
(160,484,ls),
(160,193,o),
(254,-26,o),
(780,-26,cs)
);
}
);
};
layerId = "C6C96970-2BBD-4A47-8C90-C83F37B7F23D";
shapes = (
{
closed = 1;
nodes = (
(1292,-26,o),
(1362,190,o),
(1362,480,cs),
(1362,507,l),
(1071,507,l),
(1071,460,ls),
(1071,250,o),
(1006,207,o),
(781,207,cs),
(559,207,o),
(457,252,o),
(457,454,cs),
(457,1012,ls),
(457,1215,o),
(560,1268,o),
(780,1268,cs),
(1005,1268,o),
(1071,1213,o),
(1071,1006,cs),
(1071,931,l),
(1362,965,l),
(1362,1381,ls),
(1362,1478,o),
(1399,1522,o),
(1478,1522,cs),
(1508,1522,l),
(1498,1750,l),
(1404,1750,ls),
(1188,1750,o),
(1106,1639,o),
(1106,1416,c),
(1128,1424,l),
(1045,1479,o),
(942,1501,o),
(780,1501,cs),
(251,1501,o),
(160,1275,o),
(160,977,cs),
(160,484,ls),
(160,193,o),
(254,-26,o),
(780,-26,cs)
);
}
);
width = 1490;
}
);
unicode = 391;
},
{
glyphname = Cstroke;
kernLeft = C;
kernRight = C;
lastChange = "2024-04-12 10:11:21 +0000";
layers = (
{
background = {
anchors = (
{
name = bottom;
pos = (765,0);
},
{
name = top;
pos = (765,1446);
}
);
shapes = (
{
closed = 1;
nodes = (
(439,-195,l),
(1118,1638,l),
(1014,1676,l),
(336,-157,l)
);
},
{
closed = 1;
nodes = (
(1221,-22,o),
(1300,147,o),
(1300,438,cs),
(1300,448,l),
(1109,448,l),
(1109,424,ls),
(1109,165,o),
(1016,140,o),
(765,140,cs),
(509,140,o),
(384,199,o),
(384,455,cs),
(384,977,ls),
(384,1234,o),
(505,1306,o),
(759,1306,cs),
(1017,1306,o),
(1109,1269,o),
(1109,1007,cs),
(1109,980,l),
(1300,997,l),
(1300,1010,ls),
(1300,1308,o),
(1197,1468,o),
(759,1468,cs),
(274,1468,o),
(182,1246,o),
(182,940,cs),
(182,486,ls),
(182,185,o),
(278,-22,o),
(761,-22,cs)
);
}
);
};
layerId = "F85E8FEC-B3CD-4A54-BF30-AB1986ECE904";
shapes = (
{
closed = 1;
nodes = (
(439,-195,l),
(1118,1638,l),
(1014,1676,l),
(336,-157,l)
);
},
{
ref = C;
}
);
width = 1456;
},
{
background = {
anchors = (
{
name = bottom;
pos = (777,0);
},
{
name = top;
pos = (780,1476);
}
);
shapes = (
{
closed = 1;
nodes = (
(418,-195,l),
(1117,1638,l),
(1013,1676,l),
(315,-157,l)
);
},
{
closed = 1;
nodes = (
(1292,-26,o),
(1362,190,o),
(1362,480,cs),
(1362,507,l),
(1071,507,l),
(1071,460,ls),
(1071,250,o),
(1006,207,o),
(781,207,cs),
(559,207,o),
(457,252,o),
(457,454,cs),
(457,1012,ls),
(457,1215,o),
(560,1268,o),
(780,1268,cs),
(1005,1268,o),
(1071,1213,o),
(1071,1006,cs),
(1071,931,l),
(1362,965,l),
(1362,983,ls),
(1362,1281,o),
(1284,1501,o),
(780,1501,cs),
(251,1501,o),
(160,1275,o),
(160,977,cs),
(160,484,ls),
(160,193,o),
(254,-26,o),
(780,-26,cs)
);
}
);
};
layerId = "C6C96970-2BBD-4A47-8C90-C83F37B7F23D";
shapes = (
{
closed = 1;
nodes = (
(418,-195,l),
(1117,1638,l),
(1013,1676,l),
(315,-157,l)
);
},
{
ref = C;
}
);
width = 1490;
}
);
unicode = 571;
},
{
glyphname = D;
kernRight = D;
lastChange = "2024-04-12 10:11:14 +0000";
layers = (
{
anchors = (
{
name = bottom;
pos = (761,0);
},
{
name = center;
pos = (761,723);
},
{
name = top;
pos = (761,1446);
}
);
background = {
anchors = (
{
name = bottom;
pos = (761,0);
},
{
name = center;
pos = (761,723);
},
{
name = top;
pos = (761,1446);
}
);
shapes = (
{
closed = 1;
nodes = (
(794,0,ls),
(1161,0,o),
(1340,169,o),
(1340,482,cs),
(1340,959,ls),
(1340,1235,o),
(1193,1446,o),
(792,1446,cs),
(218,1446,l),
(218,0,l)
);
},
{
closed = 1;
nodes = (
(420,1295,l),
(774,1295,ls),
(980,1295,o),
(1139,1238,o),
(1139,971,cs),
(1139,462,ls),
(1139,196,o),
(982,150,o),
(774,150,cs),
(420,150,l)
);
}
);
};
layerId = "F85E8FEC-B3CD-4A54-BF30-AB1986ECE904";
shapes = (
{
closed = 1;
nodes = (
(794,0,ls),
(1161,0,o),
(1340,169,o),
(1340,482,cs),
(1340,959,ls),
(1340,1235,o),
(1193,1446,o),
(792,1446,cs),
(218,1446,l),
(218,0,l)
);
},
{
closed = 1;
nodes = (
(420,1295,l),
(774,1295,ls),
(980,1295,o),
(1139,1238,o),
(1139,971,cs),
(1139,462,ls),
(1139,196,o),
(982,150,o),
(774,150,cs),
(420,150,l)
);
}
);
width = 1522;
},
{
anchors = (
{
name = bottom;
pos = (767,0);
},
{
name = center;
pos = (767,738);
},
{
name = top;
pos = (767,1476);
}
);
background = {
anchors = (
{
name = bottom;
pos = (767,0);
},
{
name = center;
pos = (767,738);
},
{
name = top;
pos = (767,1476);
}
);
shapes = (
{
closed = 1;
nodes = (
(831,0,ls),
(1246,0,o),
(1374,213,o),
(1374,508,cs),
(1374,961,ls),
(1374,1250,o),
(1258,1476,o),
(830,1476,cs),
(190,1476,l),
(190,0,l)
);
},
{
closed = 1;
nodes = (
(487,1245,l),
(805,1245,ls),
(1011,1245,o),
(1077,1160,o),
(1077,1000,cs),
(1077,470,ls),
(1077,306,o),
(1014,231,o),
(805,231,cs),
(487,231,l)
);
}
);
};
layerId = "C6C96970-2BBD-4A47-8C90-C83F37B7F23D";
shapes = (
{
closed = 1;
nodes = (
(831,0,ls),
(1246,0,o),
(1374,213,o),
(1374,508,cs),
(1374,961,ls),
(1374,1250,o),
(1258,1476,o),
(830,1476,cs),
(190,1476,l),
(190,0,l)
);
},
{
closed = 1;
nodes = (
(487,1245,l),
(805,1245,ls),
(1011,1245,o),
(1077,1160,o),
(1077,1000,cs),
(1077,470,ls),
(1077,306,o),
(1014,231,o),
(805,231,cs),
(487,231,l)
);
}
);
width = 1534;
}
);
unicode = 68;
},
{
glyphname = DZ;
lastChange = "2024-04-12 10:11:21 +0000";
layers = (
{
background = {
anchors = (
{
name = bottom;
pos = (2143,0);
},
{
name = center;
pos = (2143,723);
},
{
name = top;
pos = (2185,1446);
}
);
shapes = (
{
closed = 1;
nodes = (
(794,0,ls),
(1161,0,o),
(1340,169,o),
(1340,482,cs),
(1340,959,ls),
(1340,1235,o),
(1193,1446,o),
(792,1446,cs),
(218,1446,l),
(218,0,l)
);
},
{
closed = 1;
nodes = (
(420,1295,l),
(774,1295,ls),
(980,1295,o),
(1139,1238,o),
(1139,971,cs),
(1139,462,ls),
(1139,196,o),
(982,150,o),
(774,150,cs),
(420,150,l)
);
},
{
closed = 1;
nodes = (
(1702,0,l),
(2618,0,l),
(2618,165,l),
(1924,165,l),
(2605,1295,l),
(2605,1446,l),
(1733,1446,l),
(1733,1281,l),
(2384,1281,l),
(1702,150,l)
);
}
);
};
layerId = "F85E8FEC-B3CD-4A54-BF30-AB1986ECE904";
shapes = (
{
ref = D;
},
{
pos = (1522,0);
ref = Z;
}
);
width = 2764;
},
{
background = {
anchors = (
{
name = bottom;
pos = (2126,0);
},
{
name = center;
pos = (2126,738);
},
{
name = top;
pos = (2190,1476);
}
);
shapes = (
{
closed = 1;
nodes = (
(831,0,ls),
(1246,0,o),
(1374,213,o),
(1374,508,cs),
(1374,961,ls),
(1374,1250,o),
(1258,1476,o),
(830,1476,cs),
(190,1476,l),
(190,0,l)
);
},
{
closed = 1;
nodes = (
(487,1245,l),
(805,1245,ls),
(1011,1245,o),
(1077,1160,o),
(1077,1000,cs),
(1077,470,ls),
(1077,306,o),
(1014,231,o),
(805,231,cs),
(487,231,l)
);
},
{
closed = 1;
nodes = (
(1660,0,l),
(2636,0,l),
(2636,210,l),
(2006,210,l),
(2624,1297,l),
(2624,1476,l),
(1688,1476,l),
(1688,1258,l),
(2280,1258,l),
(1660,177,l)
);
}
);
};
layerId = "C6C96970-2BBD-4A47-8C90-C83F37B7F23D";
shapes = (
{
ref = D;
},
{
pos = (1534,0);
ref = Z;
}
);
width = 2718;
}
);
unicode = 497;
},
{
glyphname = DZcaron;
lastChange = "2024-04-12 10:11:21 +0000";
layers = (
{
background = {
anchors = (
{
name = bottom;
pos = (2143,0);
},
{
name = center;
pos = (2143,723);
},
{
name = top;
pos = (2185,1955);
}
);
shapes = (
{
closed = 1;
nodes = (
(794,0,ls),
(1161,0,o),
(1340,169,o),
(1340,482,cs),
(1340,959,ls),
(1340,1235,o),
(1193,1446,o),
(792,1446,cs),
(218,1446,l),
(218,0,l)
);
},
{
closed = 1;
nodes = (
(420,1295,l),
(774,1295,ls),
(980,1295,o),
(1139,1238,o),
(1139,971,cs),
(1139,462,ls),
(1139,196,o),
(982,150,o),
(774,150,cs),
(420,150,l)
);
},
{
closed = 1;
nodes = (
(1702,0,l),
(2618,0,l),
(2618,165,l),
(1924,165,l),
(2605,1295,l),
(2605,1446,l),
(1733,1446,l),
(1733,1281,l),
(2384,1281,l),
(1702,150,l)
);
},
{
closed = 1;
nodes = (
(2273,1635,l),
(2528,1955,l),
(2390,1955,l),
(2134,1725,l),
(2238,1725,l),
(1981,1955,l),
(1843,1955,l),
(2098,1635,l)
);
}
);
};
layerId = "F85E8FEC-B3CD-4A54-BF30-AB1986ECE904";
shapes = (
{
ref = D;
},
{
pos = (1522,0);
ref = Z;
},
{
pos = (2186,0);
ref = caroncomb.case;
}
);
width = 2764;
},
{
background = {
anchors = (
{
name = bottom;
pos = (2126,0);
},
{
name = center;
pos = (2126,738);
},
{
name = top;
pos = (2190,1993);
}
);
shapes = (
{
closed = 1;
nodes = (
(831,0,ls),
(1246,0,o),
(1374,213,o),
(1374,508,cs),
(1374,961,ls),
(1374,1250,o),
(1258,1476,o),
(830,1476,cs),
(190,1476,l),
(190,0,l)
);
},
{
closed = 1;
nodes = (
(487,1245,l),
(805,1245,ls),
(1011,1245,o),
(1077,1160,o),
(1077,1000,cs),
(1077,470,ls),
(1077,306,o),
(1014,231,o),
(805,231,cs),
(487,231,l)
);
},
{
closed = 1;
nodes = (
(1660,0,l),
(2636,0,l),
(2636,210,l),
(2006,210,l),
(2624,1297,l),
(2624,1476,l),
(1688,1476,l),
(1688,1258,l),
(2280,1258,l),
(1660,177,l)
);
},
{
closed = 1;
nodes = (
(2289,1638,l),
(2566,1993,l),
(2387,1993,l),
(2157,1788,l),
(2224,1788,l),
(1993,1993,l),
(1814,1993,l),
(2091,1638,l)
);
}
);
};
layerId = "C6C96970-2BBD-4A47-8C90-C83F37B7F23D";
shapes = (
{
ref = D;
},
{
pos = (1534,0);
ref = Z;
},
{
pos = (2190,0);
ref = caroncomb.case;
}
);
width = 2718;
}
);
unicode = 452;
},
{
glyphname = Dafrican;
kernRight = D;
lastChange = "2024-04-12 10:11:21 +0000";
layers = (
{
background = {
shapes = (
{
closed = 1;
nodes = (
(794,0,ls),
(1161,0,o),
(1340,169,o),
(1340,482,cs),
(1340,959,ls),
(1340,1235,o),
(1193,1446,o),
(792,1446,cs),
(218,1446,l),
(218,0,l)
);
},
{
closed = 1;
nodes = (
(420,1295,l),
(774,1295,ls),
(980,1295,o),
(1139,1238,o),
(1139,971,cs),
(1139,462,ls),
(1139,196,o),
(982,150,o),
(774,150,cs),
(420,150,l)
);
},
{
closed = 1;
nodes = (
(681,694,l),
(681,837,l),
(21,837,l),
(21,694,l)
);
}
);
};
layerId = "F85E8FEC-B3CD-4A54-BF30-AB1986ECE904";
shapes = (
{
ref = Eth;
}
);
width = 1522;
},
{
background = {
shapes = (
{
closed = 1;
nodes = (
(831,0,ls),
(1246,0,o),
(1374,213,o),
(1374,508,cs),
(1374,961,ls),
(1374,1250,o),
(1258,1476,o),
(830,1476,cs),
(190,1476,l),
(190,0,l)
);
},
{
closed = 1;
nodes = (
(487,1245,l),
(805,1245,ls),
(1011,1245,o),
(1077,1160,o),
(1077,1000,cs),
(1077,470,ls),
(1077,306,o),
(1014,231,o),
(805,231,cs),
(487,231,l)
);
},
{
closed = 1;
nodes = (
(713,706,l),
(713,854,l),
(9,854,l),
(9,706,l)
);
}
);
};
layerId = "C6C96970-2BBD-4A47-8C90-C83F37B7F23D";
shapes = (
{
ref = Eth;
}
);
width = 1534;
}
);
unicode = 393;
},
{
glyphname = Dcaron;
kernRight = D;
lastChange = "2024-04-12 10:11:21 +0000";
layers = (
{
background = {
anchors = (
{
name = bottom;
pos = (761,0);
},
{
name = center;
pos = (761,723);
},
{
name = top;
pos = (761,1955);
}
);
shapes = (
{
closed = 1;
nodes = (
(794,0,ls),
(1161,0,o),
(1340,169,o),
(1340,482,cs),
(1340,959,ls),
(1340,1235,o),
(1193,1446,o),
(792,1446,cs),
(218,1446,l),
(218,0,l)
);
},
{
closed = 1;
nodes = (
(420,1295,l),
(774,1295,ls),
(980,1295,o),
(1139,1238,o),
(1139,971,cs),
(1139,462,ls),
(1139,196,o),
(982,150,o),
(774,150,cs),
(420,150,l)
);
},
{
closed = 1;
nodes = (
(849,1635,l),
(1104,1955,l),
(966,1955,l),
(710,1725,l),
(814,1725,l),
(557,1955,l),
(419,1955,l),
(674,1635,l)
);
}
);
};
layerId = "F85E8FEC-B3CD-4A54-BF30-AB1986ECE904";
shapes = (
{
ref = D;
},
{
pos = (762,0);
ref = caroncomb.case;
}
);
width = 1522;
},
{
background = {
anchors = (
{
name = bottom;
pos = (767,0);
},
{
name = center;
pos = (767,738);
},
{
name = top;
pos = (767,1993);
}
);
shapes = (
{
closed = 1;
nodes = (
(831,0,ls),
(1246,0,o),
(1374,213,o),
(1374,508,cs),
(1374,961,ls),
(1374,1250,o),
(1258,1476,o),
(830,1476,cs),
(190,1476,l),
(190,0,l)
);
},
{
closed = 1;
nodes = (
(487,1245,l),
(805,1245,ls),
(1011,1245,o),
(1077,1160,o),
(1077,1000,cs),
(1077,470,ls),
(1077,306,o),
(1014,231,o),
(805,231,cs),
(487,231,l)
);
},
{
closed = 1;
nodes = (
(866,1638,l),
(1143,1993,l),
(964,1993,l),
(734,1788,l),
(801,1788,l),
(570,1993,l),
(391,1993,l),
(668,1638,l)
);
}
);
};
layerId = "C6C96970-2BBD-4A47-8C90-C83F37B7F23D";
shapes = (
{
ref = D;
},
{
pos = (767,0);
ref = caroncomb.case;
}
);
width = 1534;
}
);
unicode = 270;
},
{
glyphname = Dcedilla;
kernRight = D;
lastChange = "2024-04-12 10:11:21 +0000";
layers = (
{
background = {
anchors = (
{
name = bottom;
pos = (761,-574);
},
{
name = center;
pos = (761,723);
},
{
name = top;
pos = (761,1446);
}
);
shapes = (
{
closed = 1;
nodes = (
(794,0,ls),
(1161,0,o),
(1340,169,o),
(1340,482,cs),
(1340,959,ls),
(1340,1235,o),
(1193,1446,o),
(792,1446,cs),
(218,1446,l),
(218,0,l)
);
},
{
closed = 1;
nodes = (
(420,1295,l),
(774,1295,ls),
(980,1295,o),
(1139,1238,o),
(1139,971,cs),
(1139,462,ls),
(1139,196,o),
(982,150,o),
(774,150,cs),
(420,150,l)
);
},
{
closed = 1;
nodes = (
(743,-574,l),
(835,-488,o),
(878,-369,o),
(878,-217,cs),
(878,-125,l),
(644,-125,l),
(644,-358,l),
(798,-358,l),
(759,-277,l),
(760,-287,o),
(760,-295,o),
(760,-304,cs),
(760,-397,o),
(731,-464,o),
(655,-537,c)
);
}
);
};
layerId = "F85E8FEC-B3CD-4A54-BF30-AB1986ECE904";
shapes = (
{
ref = D;
},
{
pos = (764,0);
ref = commaaccentcomb.case;
}
);
width = 1522;
},
{
background = {
anchors = (
{
name = bottom;
pos = (767,-635);
},
{
name = center;
pos = (767,738);
},
{
name = top;
pos = (767,1476);
}
);
shapes = (
{
closed = 1;
nodes = (
(831,0,ls),
(1246,0,o),
(1374,213,o),
(1374,508,cs),
(1374,961,ls),
(1374,1250,o),
(1258,1476,o),
(830,1476,cs),
(190,1476,l),
(190,0,l)
);
},
{
closed = 1;
nodes = (
(487,1245,l),
(805,1245,ls),
(1011,1245,o),
(1077,1160,o),
(1077,1000,cs),
(1077,470,ls),
(1077,306,o),
(1014,231,o),
(805,231,cs),
(487,231,l)
);
},
{
closed = 1;
nodes = (
(751,-635,l),
(857,-535,o),
(907,-420,o),
(907,-219,cs),
(907,-113,l),
(626,-113,l),
(626,-384,l),
(815,-384,l),
(749,-290,l),
(750,-301,o),
(750,-311,o),
(750,-321,cs),
(750,-429,o),
(710,-512,o),
(634,-585,c)
);
}
);
};
layerId = "C6C96970-2BBD-4A47-8C90-C83F37B7F23D";
shapes = (
{
ref = D;
},
{
pos = (766,0);
ref = commaaccentcomb.case;
}
);
width = 1534;
}
);
unicode = 7696;
},
{
glyphname = Dcircumflexbelow;
kernRight = D;
lastChange = "2024-04-12 10:11:21 +0000";
layers = (
{
background = {
anchors = (
{
name = bottom;
pos = (761,-435);
},
{
name = center;
pos = (761,723);
},
{
name = top;
pos = (761,1446);
}
);
shapes = (
{
closed = 1;
nodes = (
(794,0,ls),
(1161,0,o),
(1340,169,o),
(1340,482,cs),
(1340,959,ls),
(1340,1235,o),
(1193,1446,o),
(792,1446,cs),
(218,1446,l),
(218,0,l)
);
},
{
closed = 1;
nodes = (
(420,1295,l),
(774,1295,ls),
(980,1295,o),
(1139,1238,o),
(1139,971,cs),
(1139,462,ls),
(1139,196,o),
(982,150,o),
(774,150,cs),
(420,150,l)
);
},
{
closed = 1;
nodes = (
(567,-435,l),
(814,-215,l),
(710,-215,l),
(956,-435,l),
(1094,-435,l),
(849,-125,l),
(674,-125,l),
(429,-435,l)
);
}
);
};
layerId = "F85E8FEC-B3CD-4A54-BF30-AB1986ECE904";
shapes = (
{
ref = D;
},
{
pos = (762,0);
ref = circumflexbelowcomb;
}
);
width = 1522;
},
{
background = {
anchors = (
{
name = bottom;
pos = (767,-455);
},
{
name = center;
pos = (767,738);
},
{
name = top;
pos = (767,1476);
}
);
shapes = (
{
closed = 1;
nodes = (
(831,0,ls),
(1246,0,o),
(1374,213,o),
(1374,508,cs),
(1374,961,ls),
(1374,1250,o),
(1258,1476,o),
(830,1476,cs),
(190,1476,l),
(190,0,l)
);
},
{
closed = 1;
nodes = (
(487,1245,l),
(805,1245,ls),
(1011,1245,o),
(1077,1160,o),
(1077,1000,cs),
(1077,470,ls),
(1077,306,o),
(1014,231,o),
(805,231,cs),
(487,231,l)
);
},
{
closed = 1;
nodes = (
(590,-455,l),
(801,-270,l),
(734,-270,l),
(944,-455,l),
(1123,-455,l),
(866,-130,l),
(668,-130,l),
(411,-455,l)
);
}
);
};
layerId = "C6C96970-2BBD-4A47-8C90-C83F37B7F23D";
shapes = (
{
ref = D;
},
{
pos = (767,0);
ref = circumflexbelowcomb;
}
);
width = 1534;
}
);
unicode = 7698;
},
{
glyphname = Dcroat;
kernRight = D;
lastChange = "2024-04-12 10:11:21 +0000";
layers = (
{
background = {
shapes = (
{
closed = 1;
nodes = (
(794,0,ls),
(1161,0,o),
(1340,169,o),
(1340,482,cs),
(1340,959,ls),
(1340,1235,o),
(1193,1446,o),
(792,1446,cs),
(218,1446,l),
(218,0,l)
);
},
{
closed = 1;
nodes = (
(420,1295,l),
(774,1295,ls),
(980,1295,o),
(1139,1238,o),
(1139,971,cs),
(1139,462,ls),
(1139,196,o),
(982,150,o),
(774,150,cs),
(420,150,l)
);
},
{
closed = 1;
nodes = (
(681,694,l),
(681,837,l),
(21,837,l),
(21,694,l)
);
}
);
};
layerId = "F85E8FEC-B3CD-4A54-BF30-AB1986ECE904";
shapes = (
{
ref = Eth;
}
);
width = 1522;
},
{
background = {
shapes = (
{
closed = 1;
nodes = (
(831,0,ls),
(1246,0,o),
(1374,213,o),
(1374,508,cs),
(1374,961,ls),
(1374,1250,o),
(1258,1476,o),
(830,1476,cs),
(190,1476,l),
(190,0,l)
);
},
{
closed = 1;
nodes = (
(487,1245,l),
(805,1245,ls),
(1011,1245,o),
(1077,1160,o),
(1077,1000,cs),
(1077,470,ls),
(1077,306,o),
(1014,231,o),
(805,231,cs),
(487,231,l)
);
},
{
closed = 1;
nodes = (
(713,706,l),
(713,854,l),
(9,854,l),
(9,706,l)
);
}
);
};
layerId = "C6C96970-2BBD-4A47-8C90-C83F37B7F23D";
shapes = (
{
ref = Eth;
}
);
width = 1534;
}
);
unicode = 272;
},
{
glyphname = Ddotaccent;
kernRight = D;
lastChange = "2024-04-12 10:11:21 +0000";
layers = (
{
background = {
anchors = (
{
name = bottom;
pos = (761,0);
},
{
name = center;
pos = (761,723);
},
{
name = top;
pos = (761,1822);
}
);
shapes = (
{
closed = 1;
nodes = (
(794,0,ls),
(1161,0,o),
(1340,169,o),
(1340,482,cs),
(1340,959,ls),
(1340,1235,o),
(1193,1446,o),
(792,1446,cs),
(218,1446,l),
(218,0,l)
);
},
{
closed = 1;
nodes = (
(420,1295,l),
(774,1295,ls),
(980,1295,o),
(1139,1238,o),
(1139,971,cs),
(1139,462,ls),
(1139,196,o),
(982,150,o),
(774,150,cs),
(420,150,l)
);
},
{
closed = 1;
nodes = (
(664,1614,l),
(858,1614,l),
(858,1822,l),
(664,1822,l)
);
}
);
};
layerId = "F85E8FEC-B3CD-4A54-BF30-AB1986ECE904";
shapes = (
{
ref = D;
},
{
pos = (761,0);
ref = dotaccentcomb.case;
}
);
width = 1522;
},
{
background = {
anchors = (
{
name = bottom;
pos = (767,0);
},
{
name = center;
pos = (767,738);
},
{
name = top;
pos = (767,1933);
}
);
shapes = (
{
closed = 1;
nodes = (
(831,0,ls),
(1246,0,o),
(1374,213,o),
(1374,508,cs),
(1374,961,ls),
(1374,1250,o),
(1258,1476,o),
(830,1476,cs),
(190,1476,l),
(190,0,l)
);
},
{
closed = 1;
nodes = (
(487,1245,l),
(805,1245,ls),
(1011,1245,o),
(1077,1160,o),
(1077,1000,cs),
(1077,470,ls),
(1077,306,o),
(1014,231,o),
(805,231,cs),
(487,231,l)
);
},
{
closed = 1;
nodes = (
(640,1668,l),
(894,1668,l),
(894,1933,l),
(640,1933,l)
);
}
);
};
layerId = "C6C96970-2BBD-4A47-8C90-C83F37B7F23D";
shapes = (
{
ref = D;
},
{
pos = (767,0);
ref = dotaccentcomb.case;
}
);
width = 1534;
}
);
unicode = 7690;
},
{
glyphname = Ddotbelow;
kernRight = D;
lastChange = "2024-04-12 10:11:21 +0000";
layers = (
{
background = {
anchors = (
{
name = bottom;
pos = (761,-343);
},
{
name = center;
pos = (761,723);
},
{
name = top;
pos = (761,1446);
}
);
shapes = (
{
closed = 1;
nodes = (
(794,0,ls),
(1161,0,o),
(1340,169,o),
(1340,482,cs),
(1340,959,ls),
(1340,1235,o),
(1193,1446,o),
(792,1446,cs),
(218,1446,l),
(218,0,l)
);
},
{
closed = 1;
nodes = (
(420,1295,l),
(774,1295,ls),
(980,1295,o),
(1139,1238,o),
(1139,971,cs),
(1139,462,ls),
(1139,196,o),
(982,150,o),
(774,150,cs),
(420,150,l)
);
},
{
closed = 1;
nodes = (
(664,-343,l),
(858,-343,l),
(858,-135,l),
(664,-135,l)
);
}
);
};
layerId = "F85E8FEC-B3CD-4A54-BF30-AB1986ECE904";
shapes = (
{
ref = D;
},
{
pos = (761,0);
ref = dotbelowcomb.case;
}
);
width = 1522;
},
{
background = {
anchors = (
{
name = bottom;
pos = (767,-382);
},
{
name = center;
pos = (767,738);
},
{
name = top;
pos = (767,1476);
}
);
shapes = (
{
closed = 1;
nodes = (
(831,0,ls),
(1246,0,o),
(1374,213,o),
(1374,508,cs),
(1374,961,ls),
(1374,1250,o),
(1258,1476,o),
(830,1476,cs),
(190,1476,l),
(190,0,l)
);
},
{
closed = 1;
nodes = (
(487,1245,l),
(805,1245,ls),
(1011,1245,o),
(1077,1160,o),
(1077,1000,cs),
(1077,470,ls),
(1077,306,o),
(1014,231,o),
(805,231,cs),
(487,231,l)
);
},
{
closed = 1;
nodes = (
(640,-382,l),
(894,-382,l),
(894,-117,l),
(640,-117,l)
);
}
);
};
layerId = "C6C96970-2BBD-4A47-8C90-C83F37B7F23D";
shapes = (
{
ref = D;
},
{
pos = (767,0);
ref = dotbelowcomb.case;
}
);
width = 1534;
}
);
unicode = 7692;
},
{
glyphname = Dhook;
kernRight = D;
lastChange = "2024-04-12 10:11:21 +0000";
layers = (
{
background = {
anchors = (
{
name = bottom;
pos = (892,0);
},
{
name = center;
pos = (892,723);
},
{
name = top;
pos = (892,1446);
}
);
shapes = (
{
closed = 1;
nodes = (
(172,1108,ls),
(172,1235,o),
(208,1295,o),
(349,1295,c),
(370,1446,l),
(102,1446,o),
(-20,1356,o),
(-20,1134,cs),
(-20,1078,l),
(172,1065,l)
);
},
{
closed = 1;
nodes = (
(925,0,ls),
(1292,0,o),
(1471,169,o),
(1471,482,cs),
(1471,959,ls),
(1471,1235,o),
(1324,1446,o),
(923,1446,cs),
(349,1446,l),
(349,0,l)
);
},
{
closed = 1;
nodes = (
(551,1295,l),
(905,1295,ls),
(1111,1295,o),
(1270,1238,o),
(1270,971,cs),
(1270,462,ls),
(1270,196,o),
(1113,150,o),
(905,150,cs),
(551,150,l)
);
}
);
};
layerId = "F85E8FEC-B3CD-4A54-BF30-AB1986ECE904";
shapes = (
{
closed = 1;
nodes = (
(172,1108,ls),
(172,1235,o),
(208,1295,o),
(349,1295,c),
(370,1446,l),
(102,1446,o),
(-20,1356,o),
(-20,1134,cs),
(-20,1078,l),
(172,1065,l)
);
},
{
pos = (131,0);
ref = D;
}
);
width = 1653;
},
{
background = {
anchors = (
{
name = bottom;
pos = (964,0);
},
{
name = center;
pos = (964,738);
},
{
name = top;
pos = (964,1476);
}
);
shapes = (
{
closed = 1;
nodes = (
(216,1108,ls),
(216,1227,o),
(260,1273,o),
(387,1273,c),
(418,1476,l),
(68,1476,o),
(-24,1375,o),
(-24,1122,cs),
(-24,1038,l),
(216,1028,l)
);
},
{
closed = 1;
nodes = (
(1028,0,ls),
(1443,0,o),
(1571,213,o),
(1571,508,cs),
(1571,961,ls),
(1571,1250,o),
(1455,1476,o),
(1027,1476,cs),
(387,1476,l),
(387,0,l)
);
},
{
closed = 1;
nodes = (
(684,1245,l),
(1002,1245,ls),
(1208,1245,o),
(1274,1160,o),
(1274,1000,cs),
(1274,470,ls),
(1274,306,o),
(1211,231,o),
(1002,231,cs),
(684,231,l)
);
}
);
};
layerId = "C6C96970-2BBD-4A47-8C90-C83F37B7F23D";
shapes = (
{
closed = 1;
nodes = (
(216,1108,ls),
(216,1227,o),
(260,1273,o),
(387,1273,c),
(418,1476,l),
(68,1476,o),
(-24,1375,o),
(-24,1122,cs),
(-24,1038,l),
(216,1028,l)
);
},
{
pos = (197,0);
ref = D;
}
);
width = 1731;
}
);
unicode = 394;
},
{
glyphname = Dlinebelow;
kernRight = D;
lastChange = "2024-04-12 10:11:21 +0000";
layers = (
{
background = {
anchors = (
{
name = bottom;
pos = (761,-316);
},
{
name = center;
pos = (761,723);
},
{
name = top;
pos = (761,1446);
}
);
shapes = (
{
closed = 1;
nodes = (
(794,0,ls),
(1161,0,o),
(1340,169,o),
(1340,482,cs),
(1340,959,ls),
(1340,1235,o),
(1193,1446,o),
(792,1446,cs),
(218,1446,l),
(218,0,l)
);
},
{
closed = 1;
nodes = (
(420,1295,l),
(774,1295,ls),
(980,1295,o),
(1139,1238,o),
(1139,971,cs),
(1139,462,ls),
(1139,196,o),
(982,150,o),
(774,150,cs),
(420,150,l)
);
},
{
closed = 1;
nodes = (
(509,-316,l),
(1013,-316,l),
(1013,-161,l),
(509,-161,l)
);
}
);
};
layerId = "F85E8FEC-B3CD-4A54-BF30-AB1986ECE904";
shapes = (
{
ref = D;
},
{
pos = (761,0);
ref = macronbelowcomb.case;
}
);
width = 1522;
},
{
background = {
anchors = (
{
name = bottom;
pos = (767,-333);
},
{
name = center;
pos = (767,738);
},
{
name = top;
pos = (767,1476);
}
);
shapes = (
{
closed = 1;
nodes = (
(831,0,ls),
(1246,0,o),
(1374,213,o),
(1374,508,cs),
(1374,961,ls),
(1374,1250,o),
(1258,1476,o),
(830,1476,cs),
(190,1476,l),
(190,0,l)
);
},
{
closed = 1;
nodes = (
(487,1245,l),
(805,1245,ls),
(1011,1245,o),
(1077,1160,o),
(1077,1000,cs),
(1077,470,ls),
(1077,306,o),
(1014,231,o),
(805,231,cs),
(487,231,l)
);
},
{
closed = 1;
nodes = (
(435,-333,l),
(1099,-333,l),
(1099,-166,l),
(435,-166,l)
);
}
);
};
layerId = "C6C96970-2BBD-4A47-8C90-C83F37B7F23D";
shapes = (
{
ref = D;
},
{
pos = (767,0);
ref = macronbelowcomb.case;
}
);
width = 1534;
}
);
unicode = 7694;
},
{
glyphname = Dz;
lastChange = "2024-04-12 10:11:21 +0000";
layers = (
{
background = {
anchors = (
{
name = bottom;
pos = (2002,0);
},
{
name = center;
pos = (2002,530);
},
{
name = top;
pos = (2035,1060);
}
);
shapes = (
{
closed = 1;
nodes = (
(794,0,ls),
(1161,0,o),
(1340,169,o),
(1340,482,cs),
(1340,959,ls),
(1340,1235,o),
(1193,1446,o),
(792,1446,cs),
(218,1446,l),
(218,0,l)
);
},
{
closed = 1;
nodes = (
(420,1295,l),
(774,1295,ls),
(980,1295,o),
(1139,1238,o),
(1139,971,cs),
(1139,462,ls),
(1139,196,o),
(982,150,o),
(774,150,cs),
(420,150,l)
);
},
{
closed = 1;
nodes = (
(1662,0,l),
(2376,0,l),
(2376,142,l),
(1815,142,l),
(1836,94,l),
(2367,935,l),
(2367,1060,l),
(1680,1060,l),
(1680,918,l),
(2208,918,l),
(2187,962,l),
(1662,126,l)
);
}
);
};
layerId = "F85E8FEC-B3CD-4A54-BF30-AB1986ECE904";
shapes = (
{
ref = D;
},
{
pos = (1522,0);
ref = z;
}
);
width = 2481;
},
{
background = {
anchors = (
{
name = bottom;
pos = (1987,0);
},
{
name = center;
pos = (1987,537);
},
{
name = top;
pos = (2021,1074);
}
);
shapes = (
{
closed = 1;
nodes = (
(831,0,ls),
(1246,0,o),
(1374,213,o),
(1374,508,cs),
(1374,961,ls),
(1374,1250,o),
(1258,1476,o),
(830,1476,cs),
(190,1476,l),
(190,0,l)
);
},
{
closed = 1;
nodes = (
(487,1245,l),
(805,1245,ls),
(1011,1245,o),
(1077,1160,o),
(1077,1000,cs),
(1077,470,ls),
(1077,306,o),
(1014,231,o),
(805,231,cs),
(487,231,l)
);
},
{
closed = 1;
nodes = (
(1638,0,l),
(2347,0,l),
(2347,175,l),
(1888,175,l),
(1910,151,l),
(2352,910,l),
(2352,1074,l),
(1648,1074,l),
(1648,901,l),
(2105,901,l),
(2083,927,l),
(1638,167,l)
);
}
);
};
layerId = "C6C96970-2BBD-4A47-8C90-C83F37B7F23D";
shapes = (
{
ref = D;
},
{
pos = (1534,0);
ref = z;
}
);
width = 2440;
}
);
unicode = 498;
},
{
glyphname = Dzcaron;
lastChange = "2024-04-12 10:11:21 +0000";
layers = (
{
background = {
anchors = (
{
name = bottom;
pos = (2002,0);
},
{
name = center;
pos = (2002,530);
},
{
name = top;
pos = (2035,1575);
}
);
shapes = (
{
closed = 1;
nodes = (
(794,0,ls),
(1161,0,o),
(1340,169,o),
(1340,482,cs),
(1340,959,ls),
(1340,1235,o),
(1193,1446,o),
(792,1446,cs),
(218,1446,l),
(218,0,l)
);
},
{
closed = 1;
nodes = (
(420,1295,l),
(774,1295,ls),
(980,1295,o),
(1139,1238,o),
(1139,971,cs),
(1139,462,ls),
(1139,196,o),
(982,150,o),
(774,150,cs),
(420,150,l)
);
},
{
closed = 1;
nodes = (
(1662,0,l),
(2376,0,l),
(2376,142,l),
(1815,142,l),
(1836,94,l),
(2367,935,l),
(2367,1060,l),
(1680,1060,l),
(1680,918,l),
(2208,918,l),
(2187,962,l),
(1662,126,l)
);
},
{
closed = 1;
nodes = (
(2123,1235,l),
(2378,1575,l),
(2240,1575,l),
(1984,1325,l),
(2088,1325,l),
(1831,1575,l),
(1693,1575,l),
(1948,1235,l)
);
}
);
};
layerId = "F85E8FEC-B3CD-4A54-BF30-AB1986ECE904";
shapes = (
{
ref = D;
},
{
pos = (1522,0);
ref = z;
},
{
pos = (2036,0);
ref = caroncomb;
}
);
width = 2481;
},
{
background = {
anchors = (
{
name = bottom;
pos = (1987,0);
},
{
name = center;
pos = (1987,537);
},
{
name = top;
pos = (2021,1620);
}
);
shapes = (
{
closed = 1;
nodes = (
(831,0,ls),
(1246,0,o),
(1374,213,o),
(1374,508,cs),
(1374,961,ls),
(1374,1250,o),
(1258,1476,o),
(830,1476,cs),
(190,1476,l),
(190,0,l)
);
},
{
closed = 1;
nodes = (
(487,1245,l),
(805,1245,ls),
(1011,1245,o),
(1077,1160,o),
(1077,1000,cs),
(1077,470,ls),
(1077,306,o),
(1014,231,o),
(805,231,cs),
(487,231,l)
);
},
{
closed = 1;
nodes = (
(1638,0,l),
(2347,0,l),
(2347,175,l),
(1888,175,l),
(1910,151,l),
(2352,910,l),
(2352,1074,l),
(1648,1074,l),
(1648,901,l),
(2105,901,l),
(2083,927,l),
(1638,167,l)
);
},
{
closed = 1;
nodes = (
(2120,1255,l),
(2397,1620,l),
(2218,1620,l),
(1988,1405,l),
(2055,1405,l),
(1824,1620,l),
(1645,1620,l),
(1922,1255,l)
);
}
);
};
layerId = "C6C96970-2BBD-4A47-8C90-C83F37B7F23D";
shapes = (
{
ref = D;
},
{
pos = (1534,0);
ref = z;
},
{
pos = (2021,0);
ref = caroncomb;
}
);
width = 2440;
}
);
unicode = 453;
},
{
glyphname = Eth;
kernRight = D;
lastChange = "2024-04-12 10:11:14 +0000";
layers = (
{
background = {
shapes = (
{
closed = 1;
nodes = (
(794,0,ls),
(1161,0,o),
(1340,169,o),
(1340,482,cs),
(1340,959,ls),
(1340,1235,o),
(1193,1446,o),
(792,1446,cs),
(218,1446,l),
(218,0,l)
);
},
{
closed = 1;
nodes = (
(420,1295,l),
(774,1295,ls),
(980,1295,o),
(1139,1238,o),
(1139,971,cs),
(1139,462,ls),
(1139,196,o),
(982,150,o),
(774,150,cs),
(420,150,l)
);
},
{
closed = 1;
nodes = (
(681,694,l),
(681,837,l),
(21,837,l),
(21,694,l)
);
}
);
};
layerId = "F85E8FEC-B3CD-4A54-BF30-AB1986ECE904";
shapes = (
{
closed = 1;
nodes = (
(794,0,ls),
(1161,0,o),
(1340,169,o),
(1340,482,cs),
(1340,959,ls),
(1340,1235,o),
(1193,1446,o),
(792,1446,cs),
(218,1446,l),
(218,0,l)
);
},
{
closed = 1;
nodes = (
(420,1295,l),
(774,1295,ls),
(980,1295,o),
(1139,1238,o),
(1139,971,cs),
(1139,462,ls),
(1139,196,o),
(982,150,o),
(774,150,cs),
(420,150,l)
);
},
{
closed = 1;
nodes = (
(681,694,l),
(681,837,l),
(21,837,l),
(21,694,l)
);
}
);
width = 1522;
},
{
background = {
shapes = (
{
closed = 1;
nodes = (
(831,0,ls),
(1246,0,o),
(1374,213,o),
(1374,508,cs),
(1374,961,ls),
(1374,1250,o),
(1258,1476,o),
(830,1476,cs),
(190,1476,l),
(190,0,l)
);
},
{
closed = 1;
nodes = (
(487,1245,l),
(805,1245,ls),
(1011,1245,o),
(1077,1160,o),
(1077,1000,cs),
(1077,470,ls),
(1077,306,o),
(1014,231,o),
(805,231,cs),
(487,231,l)
);
},
{
closed = 1;
nodes = (
(713,706,l),
(713,854,l),
(9,854,l),
(9,706,l)
);
}
);
};
layerId = "C6C96970-2BBD-4A47-8C90-C83F37B7F23D";
shapes = (
{
closed = 1;
nodes = (
(831,0,ls),
(1246,0,o),
(1374,213,o),
(1374,508,cs),
(1374,961,ls),
(1374,1250,o),
(1258,1476,o),
(830,1476,cs),
(190,1476,l),
(190,0,l)
);
},
{
closed = 1;
nodes = (
(487,1245,l),
(805,1245,ls),
(1011,1245,o),
(1077,1160,o),
(1077,1000,cs),
(1077,470,ls),
(1077,306,o),
(1014,231,o),
(805,231,cs),
(487,231,l)
);
},
{
closed = 1;
nodes = (
(713,706,l),
(713,854,l),
(9,854,l),
(9,706,l)
);
}
);
width = 1534;
}
);
unicode = 208;
},
{
glyphname = E;
lastChange = "2024-04-12 10:11:14 +0000";
layers = (
{
anchors = (
{
name = bottom;
pos = (670,0);
},
{
name = ogonek;
pos = (1133,0);
},
{
name = top;
pos = (670,1446);
},
{
name = topleft;
pos = (20,1446);
}
);
background = {
anchors = (
{
name = bottom;
pos = (670,0);
},
{
name = ogonek;
pos = (1133,0);
},
{
name = top;
pos = (670,1446);
},
{
name = topleft;
pos = (20,1446);
}
);
shapes = (
{
closed = 1;
nodes = (
(218,0,l),
(1133,0,l),
(1133,150,l),
(419,150,l),
(419,670,l),
(1039,670,l),
(1039,820,l),
(419,820,l),
(419,1296,l),
(1121,1296,l),
(1121,1446,l),
(218,1446,l)
);
}
);
};
layerId = "F85E8FEC-B3CD-4A54-BF30-AB1986ECE904";
shapes = (
{
closed = 1;
nodes = (
(218,0,l),
(1133,0,l),
(1133,150,l),
(419,150,l),
(419,670,l),
(1039,670,l),
(1039,820,l),
(419,820,l),
(419,1296,l),
(1121,1296,l),
(1121,1446,l),
(218,1446,l)
);
}
);
width = 1255;
},
{
anchors = (
{
name = bottom;
pos = (675,0);
},
{
name = ogonek;
pos = (1168,0);
},
{
name = top;
pos = (675,1476);
},
{
name = topleft;
pos = (20,1476);
}
);
background = {
anchors = (
{
name = bottom;
pos = (675,0);
},
{
name = ogonek;
pos = (1168,0);
},
{
name = top;
pos = (675,1476);
},
{
name = topleft;
pos = (20,1476);
}
);
shapes = (
{
closed = 1;
nodes = (
(190,0,l),
(1168,0,l),
(1168,224,l),
(486,224,l),
(486,646,l),
(1081,646,l),
(1081,860,l),
(486,860,l),
(486,1252,l),
(1157,1252,l),
(1157,1476,l),
(190,1476,l)
);
}
);
};
layerId = "C6C96970-2BBD-4A47-8C90-C83F37B7F23D";
shapes = (
{
closed = 1;
nodes = (
(190,0,l),
(1168,0,l),
(1168,224,l),
(486,224,l),
(486,646,l),
(1081,646,l),
(1081,860,l),
(486,860,l),
(486,1252,l),
(1157,1252,l),
(1157,1476,l),
(190,1476,l)
);
}
);
width = 1294;
}
);
unicode = 69;
},
{
glyphname = Eacute;
lastChange = "2024-04-12 10:11:21 +0000";
layers = (
{
background = {
anchors = (
{
name = bottom;
pos = (670,0);
},
{
name = ogonek;
pos = (1133,0);
},
{
name = top;
pos = (670,1982);
},
{
name = topleft;
pos = (20,1446);
}
);
shapes = (
{
closed = 1;
nodes = (
(218,0,l),
(1133,0,l),
(1133,150,l),
(419,150,l),
(419,670,l),
(1039,670,l),
(1039,820,l),
(419,820,l),
(419,1296,l),
(1121,1296,l),
(1121,1446,l),
(218,1446,l)
);
},
{
closed = 1;
nodes = (
(540,1632,l),
(668,1632,l),
(930,1982,l),
(705,1982,l)
);
}
);
};
layerId = "F85E8FEC-B3CD-4A54-BF30-AB1986ECE904";
shapes = (
{
ref = E;
},
{
pos = (670,0);
ref = acutecomb.case;
}
);
width = 1255;
},
{
background = {
anchors = (
{
name = bottom;
pos = (675,0);
},
{
name = ogonek;
pos = (1168,0);
},
{
name = top;
pos = (675,2022);
},
{
name = topleft;
pos = (20,1476);
}
);
shapes = (
{
closed = 1;
nodes = (
(190,0,l),
(1168,0,l),
(1168,224,l),
(486,224,l),
(486,646,l),
(1081,646,l),
(1081,860,l),
(486,860,l),
(486,1252,l),
(1157,1252,l),
(1157,1476,l),
(190,1476,l)
);
},
{
closed = 1;
nodes = (
(515,1657,l),
(714,1657,l),
(995,2022,l),
(677,2022,l)
);
}
);
};
layerId = "C6C96970-2BBD-4A47-8C90-C83F37B7F23D";
shapes = (
{
ref = E;
},
{
pos = (675,0);
ref = acutecomb.case;
}
);
width = 1294;
}
);
unicode = 201;
},
{
glyphname = Ebreve;
lastChange = "2024-04-12 10:11:21 +0000";
layers = (
{
background = {
anchors = (
{
name = bottom;
pos = (670,0);
},
{
name = ogonek;
pos = (1133,0);
},
{
name = top;
pos = (670,1949);
},
{
name = topleft;
pos = (20,1446);
}
);
shapes = (
{
closed = 1;
nodes = (
(218,0,l),
(1133,0,l),
(1133,150,l),
(419,150,l),
(419,670,l),
(1039,670,l),
(1039,820,l),
(419,820,l),
(419,1296,l),
(1121,1296,l),
(1121,1446,l),
(218,1446,l)
);
},
{
closed = 1;
nodes = (
(850,1651,o),
(971,1744,o),
(971,1949,c),
(835,1949,l),
(835,1862,o),
(782,1806,o),
(670,1806,cs),
(557,1806,o),
(504,1862,o),
(504,1949,c),
(369,1949,l),
(369,1744,o),
(489,1651,o),
(670,1651,cs)
);
}
);
};
layerId = "F85E8FEC-B3CD-4A54-BF30-AB1986ECE904";
shapes = (
{
ref = E;
},
{
pos = (670,0);
ref = brevecomb.case;
}
);
width = 1255;
},
{
background = {
anchors = (
{
name = bottom;
pos = (675,0);
},
{
name = ogonek;
pos = (1168,0);
},
{
name = top;
pos = (675,1978);
},
{
name = topleft;
pos = (20,1476);
}
);
shapes = (
{
closed = 1;
nodes = (
(190,0,l),
(1168,0,l),
(1168,224,l),
(486,224,l),
(486,646,l),
(1081,646,l),
(1081,860,l),
(486,860,l),
(486,1252,l),
(1157,1252,l),
(1157,1476,l),
(190,1476,l)
);
},
{
closed = 1;
nodes = (
(884,1640,o),
(1014,1758,o),
(1014,1978,c),
(814,1978,l),
(814,1891,o),
(775,1845,o),
(675,1845,cs),
(575,1845,o),
(536,1891,o),
(536,1978,c),
(336,1978,l),
(336,1758,o),
(466,1640,o),
(675,1640,cs)
);
}
);
};
layerId = "C6C96970-2BBD-4A47-8C90-C83F37B7F23D";
shapes = (
{
ref = E;
},
{
pos = (675,0);
ref = brevecomb.case;
}
);
width = 1294;
}
);
unicode = 276;
},
{
glyphname = Ecaron;
lastChange = "2024-04-12 10:11:21 +0000";
layers = (
{
background = {
anchors = (
{
name = bottom;
pos = (670,0);
},
{
name = ogonek;
pos = (1133,0);
},
{
name = top;
pos = (670,1955);
},
{
name = topleft;
pos = (20,1446);
}
);
shapes = (
{
closed = 1;
nodes = (
(218,0,l),
(1133,0,l),
(1133,150,l),
(419,150,l),
(419,670,l),
(1039,670,l),
(1039,820,l),
(419,820,l),
(419,1296,l),
(1121,1296,l),
(1121,1446,l),
(218,1446,l)
);
},
{
closed = 1;
nodes = (
(758,1635,l),
(1013,1955,l),
(875,1955,l),
(619,1725,l),
(723,1725,l),
(466,1955,l),
(328,1955,l),
(583,1635,l)
);
}
);
};
layerId = "F85E8FEC-B3CD-4A54-BF30-AB1986ECE904";
shapes = (
{
ref = E;
},
{
pos = (671,0);
ref = caroncomb.case;
}
);
width = 1255;
},
{
background = {
anchors = (
{
name = bottom;
pos = (675,0);
},
{
name = ogonek;
pos = (1168,0);
},
{
name = top;
pos = (675,1993);
},
{
name = topleft;
pos = (20,1476);
}
);
shapes = (
{
closed = 1;
nodes = (
(190,0,l),
(1168,0,l),
(1168,224,l),
(486,224,l),
(486,646,l),
(1081,646,l),
(1081,860,l),
(486,860,l),
(486,1252,l),
(1157,1252,l),
(1157,1476,l),
(190,1476,l)
);
},
{
closed = 1;
nodes = (
(774,1638,l),
(1051,1993,l),
(872,1993,l),
(642,1788,l),
(709,1788,l),
(478,1993,l),
(299,1993,l),
(576,1638,l)
);
}
);
};
layerId = "C6C96970-2BBD-4A47-8C90-C83F37B7F23D";
shapes = (
{
ref = E;
},
{
pos = (675,0);
ref = caroncomb.case;
}
);
width = 1294;
}
);
unicode = 282;
},
{
glyphname = Ecedilla;
lastChange = "2024-04-12 10:11:21 +0000";
layers = (
{
background = {
anchors = (
{
name = bottom;
pos = (670,-465);
},
{
name = ogonek;
pos = (1133,0);
},
{
name = top;
pos = (670,1446);
},
{
name = topleft;
pos = (20,1446);
}
);
shapes = (
{
closed = 1;
nodes = (
(218,0,l),
(1133,0,l),
(1133,150,l),
(419,150,l),
(419,670,l),
(1039,670,l),
(1039,820,l),
(419,820,l),
(419,1296,l),
(1121,1296,l),
(1121,1446,l),
(218,1446,l)
);
},
{
closed = 1;
nodes = (
(705,-465,ls),
(856,-465,o),
(910,-387,o),
(910,-292,cs),
(910,-262,ls),
(910,-145,o),
(855,-90,o),
(702,-90,c),
(717,-136,l),
(717,30,l),
(616,30,l),
(616,-193,l),
(716,-193,ls),
(753,-193,o),
(772,-213,o),
(772,-239,cs),
(772,-307,ls),
(772,-333,o),
(758,-353,o),
(716,-353,cs),
(528,-353,l),
(528,-465,l)
);
}
);
};
layerId = "F85E8FEC-B3CD-4A54-BF30-AB1986ECE904";
shapes = (
{
ref = E;
},
{
pos = (669,0);
ref = cedillacomb.case;
}
);
width = 1255;
},
{
background = {
anchors = (
{
name = bottom;
pos = (675,-485);
},
{
name = ogonek;
pos = (1168,0);
},
{
name = top;
pos = (675,1476);
},
{
name = topleft;
pos = (20,1476);
}
);
shapes = (
{
closed = 1;
nodes = (
(190,0,l),
(1168,0,l),
(1168,224,l),
(486,224,l),
(486,646,l),
(1081,646,l),
(1081,860,l),
(486,860,l),
(486,1252,l),
(1157,1252,l),
(1157,1476,l),
(190,1476,l)
);
},
{
closed = 1;
nodes = (
(707,-485,ls),
(858,-485,o),
(912,-407,o),
(912,-312,cs),
(912,-262,ls),
(912,-145,o),
(840,-90,o),
(674,-90,c),
(739,-136,l),
(739,30,l),
(608,30,l),
(608,-213,l),
(698,-213,ls),
(735,-213,o),
(754,-233,o),
(754,-259,cs),
(754,-317,ls),
(754,-343,o),
(740,-363,o),
(698,-363,cs),
(520,-363,l),
(520,-485,l)
);
}
);
};
layerId = "C6C96970-2BBD-4A47-8C90-C83F37B7F23D";
shapes = (
{
ref = E;
},
{
pos = (675,0);
ref = cedillacomb.case;
}
);
width = 1294;
}
);
unicode = 552;
},
{
glyphname = Ecedillabreve;
lastChange = "2024-04-12 10:11:21 +0000";
layers = (
{
background = {
anchors = (
{
name = bottom;
pos = (670,-465);
},
{
name = ogonek;
pos = (1133,0);
},
{
name = top;
pos = (698,1949);
},
{
name = topleft;
pos = (20,1446);
}
);
shapes = (
{
closed = 1;
nodes = (
(218,0,l),
(1133,0,l),
(1133,150,l),
(419,150,l),
(419,670,l),
(1039,670,l),
(1039,820,l),
(419,820,l),
(419,1296,l),
(1121,1296,l),
(1121,1446,l),
(218,1446,l)
);
},
{
closed = 1;
nodes = (
(705,-465,ls),
(856,-465,o),
(910,-387,o),
(910,-292,cs),
(910,-262,ls),
(910,-145,o),
(855,-90,o),
(702,-90,c),
(717,-136,l),
(717,30,l),
(616,30,l),
(616,-193,l),
(716,-193,ls),
(753,-193,o),
(772,-213,o),
(772,-239,cs),
(772,-307,ls),
(772,-333,o),
(758,-353,o),
(716,-353,cs),
(528,-353,l),
(528,-465,l)
);
},
{
closed = 1;
nodes = (
(878,1651,o),
(999,1744,o),
(999,1949,c),
(863,1949,l),
(863,1862,o),
(810,1806,o),
(698,1806,cs),
(585,1806,o),
(532,1862,o),
(532,1949,c),
(397,1949,l),
(397,1744,o),
(517,1651,o),
(698,1651,cs)
);
}
);
};
layerId = "F85E8FEC-B3CD-4A54-BF30-AB1986ECE904";
shapes = (
{
ref = E;
},
{
pos = (669,0);
ref = cedillacomb.case;
},
{
alignment = -1;
pos = (698,0);
ref = brevecomb.case;
}
);
width = 1255;
},
{
background = {
anchors = (
{
name = bottom;
pos = (675,-485);
},
{
name = ogonek;
pos = (1168,0);
},
{
name = top;
pos = (675,1978);
},
{
name = topleft;
pos = (20,1476);
}
);
shapes = (
{
closed = 1;
nodes = (
(190,0,l),
(1168,0,l),
(1168,224,l),
(486,224,l),
(486,646,l),
(1081,646,l),
(1081,860,l),
(486,860,l),
(486,1252,l),
(1157,1252,l),
(1157,1476,l),
(190,1476,l)
);
},
{
closed = 1;
nodes = (
(707,-485,ls),
(858,-485,o),
(912,-407,o),
(912,-312,cs),
(912,-262,ls),
(912,-145,o),
(840,-90,o),
(674,-90,c),
(739,-136,l),
(739,30,l),
(608,30,l),
(608,-213,l),
(698,-213,ls),
(735,-213,o),
(754,-233,o),
(754,-259,cs),
(754,-317,ls),
(754,-343,o),
(740,-363,o),
(698,-363,cs),
(520,-363,l),
(520,-485,l)
);
},
{
closed = 1;
nodes = (
(884,1640,o),
(1014,1758,o),
(1014,1978,c),
(814,1978,l),
(814,1891,o),
(775,1845,o),
(675,1845,cs),
(575,1845,o),
(536,1891,o),
(536,1978,c),
(336,1978,l),
(336,1758,o),
(466,1640,o),
(675,1640,cs)
);
}
);
};
layerId = "C6C96970-2BBD-4A47-8C90-C83F37B7F23D";
shapes = (
{
ref = E;
},
{
pos = (675,0);
ref = cedillacomb.case;
},
{
pos = (675,0);
ref = brevecomb.case;
}
);
width = 1294;
}
);
unicode = 7708;
},
{
glyphname = Ecircumflex;
lastChange = "2024-04-12 10:11:21 +0000";
layers = (
{
background = {
anchors = (
{
name = bottom;
pos = (670,0);
},
{
name = ogonek;
pos = (1133,0);
},
{
name = top;
pos = (670,1955);
},
{
name = topleft;
pos = (20,1446);
}
);
shapes = (
{
closed = 1;
nodes = (
(218,0,l),
(1133,0,l),
(1133,150,l),
(419,150,l),
(419,670,l),
(1039,670,l),
(1039,820,l),
(419,820,l),
(419,1296,l),
(1121,1296,l),
(1121,1446,l),
(218,1446,l)
);
},
{
closed = 1;
nodes = (
(466,1635,l),
(723,1865,l),
(619,1865,l),
(875,1635,l),
(1013,1635,l),
(758,1955,l),
(583,1955,l),
(328,1635,l)
);
}
);
};
layerId = "F85E8FEC-B3CD-4A54-BF30-AB1986ECE904";
shapes = (
{
ref = E;
},
{
pos = (671,0);
ref = circumflexcomb.case;
}
);
width = 1255;
},
{
background = {
anchors = (
{
name = bottom;
pos = (675,0);
},
{
name = ogonek;
pos = (1168,0);
},
{
name = top;
pos = (675,1993);
},
{
name = topleft;
pos = (20,1476);
}
);
shapes = (
{
closed = 1;
nodes = (
(190,0,l),
(1168,0,l),
(1168,224,l),
(486,224,l),
(486,646,l),
(1081,646,l),
(1081,860,l),
(486,860,l),
(486,1252,l),
(1157,1252,l),
(1157,1476,l),
(190,1476,l)
);
},
{
closed = 1;
nodes = (
(478,1638,l),
(709,1843,l),
(642,1843,l),
(872,1638,l),
(1051,1638,l),
(774,1993,l),
(576,1993,l),
(299,1638,l)
);
}
);
};
layerId = "C6C96970-2BBD-4A47-8C90-C83F37B7F23D";
shapes = (
{
ref = E;
},
{
pos = (675,0);
ref = circumflexcomb.case;
}
);
width = 1294;
}
);
unicode = 202;
},
{
glyphname = Ecircumflexacute;
lastChange = "2024-04-12 10:11:21 +0000";
layers = (
{
background = {
anchors = (
{
name = bottom;
pos = (670,0);
},
{
name = ogonek;
pos = (1133,0);
},
{
name = top;
pos = (670,2101);
},
{
name = topleft;
pos = (20,1446);
}
);
shapes = (
{
closed = 1;
nodes = (
(218,0,l),
(1133,0,l),
(1133,150,l),
(419,150,l),
(419,670,l),
(1039,670,l),
(1039,820,l),
(419,820,l),
(419,1296,l),
(1121,1296,l),
(1121,1446,l),
(218,1446,l)
);
},
{
closed = 1;
nodes = (
(465,1611,l),
(722,1841,l),
(618,1841,l),
(874,1611,l),
(1012,1611,l),
(757,1931,l),
(582,1931,l),
(327,1611,l)
);
},
{
closed = 1;
nodes = (
(963,1851,l),
(1133,2101,l),
(928,2101,l),
(855,1851,l)
);
}
);
};
layerId = "F85E8FEC-B3CD-4A54-BF30-AB1986ECE904";
shapes = (
{
ref = E;
},
{
pos = (670,386);
ref = circumflexcomb_acutecomb;
}
);
width = 1255;
},
{
background = {
anchors = (
{
name = bottom;
pos = (675,0);
},
{
name = ogonek;
pos = (1168,0);
},
{
name = top;
pos = (675,2201);
},
{
name = topleft;
pos = (20,1476);
}
);
shapes = (
{
closed = 1;
nodes = (
(190,0,l),
(1168,0,l),
(1168,224,l),
(486,224,l),
(486,646,l),
(1081,646,l),
(1081,860,l),
(486,860,l),
(486,1252,l),
(1157,1252,l),
(1157,1476,l),
(190,1476,l)
);
},
{
closed = 1;
nodes = (
(477,1658,l),
(708,1863,l),
(641,1863,l),
(871,1658,l),
(1050,1658,l),
(773,2013,l),
(575,2013,l),
(298,1658,l)
);
},
{
closed = 1;
nodes = (
(1028,1932,l),
(1219,2201,l),
(971,2201,l),
(899,1932,l)
);
}
);
};
layerId = "C6C96970-2BBD-4A47-8C90-C83F37B7F23D";
shapes = (
{
ref = E;
},
{
pos = (674,402);
ref = circumflexcomb_acutecomb;
}
);
width = 1294;
}
);
unicode = 7870;
},
{
glyphname = Ecircumflexbelow;
lastChange = "2024-04-12 10:11:21 +0000";
layers = (
{
background = {
anchors = (
{
name = bottom;
pos = (702,-435);
},
{
name = ogonek;
pos = (1133,0);
},
{
name = top;
pos = (670,1446);
},
{
name = topleft;
pos = (20,1446);
}
);
shapes = (
{
closed = 1;
nodes = (
(218,0,l),
(1133,0,l),
(1133,150,l),
(419,150,l),
(419,670,l),
(1039,670,l),
(1039,820,l),
(419,820,l),
(419,1296,l),
(1121,1296,l),
(1121,1446,l),
(218,1446,l)
);
},
{
closed = 1;
nodes = (
(508,-435,l),
(755,-215,l),
(651,-215,l),
(897,-435,l),
(1035,-435,l),
(790,-125,l),
(615,-125,l),
(370,-435,l)
);
}
);
};
layerId = "F85E8FEC-B3CD-4A54-BF30-AB1986ECE904";
shapes = (
{
ref = E;
},
{
alignment = -1;
pos = (703,0);
ref = circumflexbelowcomb;
}
);
width = 1255;
},
{
background = {
anchors = (
{
name = bottom;
pos = (675,-455);
},
{
name = ogonek;
pos = (1168,0);
},
{
name = top;
pos = (675,1476);
},
{
name = topleft;
pos = (20,1476);
}
);
shapes = (
{
closed = 1;
nodes = (
(190,0,l),
(1168,0,l),
(1168,224,l),
(486,224,l),
(486,646,l),
(1081,646,l),
(1081,860,l),
(486,860,l),
(486,1252,l),
(1157,1252,l),
(1157,1476,l),
(190,1476,l)
);
},
{
closed = 1;
nodes = (
(498,-455,l),
(709,-270,l),
(642,-270,l),
(852,-455,l),
(1031,-455,l),
(774,-130,l),
(576,-130,l),
(319,-455,l)
);
}
);
};
layerId = "C6C96970-2BBD-4A47-8C90-C83F37B7F23D";
shapes = (
{
ref = E;
},
{
pos = (675,0);
ref = circumflexbelowcomb;
}
);
width = 1294;
}
);
unicode = 7704;
},
{
glyphname = Ecircumflexdotbelow;
lastChange = "2024-04-12 10:11:21 +0000";
layers = (
{
background = {
anchors = (
{
name = bottom;
pos = (709,-343);
},
{
name = ogonek;
pos = (1133,0);
},
{
name = top;
pos = (670,1955);
},
{
name = topleft;
pos = (20,1446);
}
);
shapes = (
{
closed = 1;
nodes = (
(218,0,l),
(1133,0,l),
(1133,150,l),
(419,150,l),
(419,670,l),
(1039,670,l),
(1039,820,l),
(419,820,l),
(419,1296,l),
(1121,1296,l),
(1121,1446,l),
(218,1446,l)
);
},
{
closed = 1;
nodes = (
(466,1635,l),
(723,1865,l),
(619,1865,l),
(875,1635,l),
(1013,1635,l),
(758,1955,l),
(583,1955,l),
(328,1635,l)
);
},
{
closed = 1;
nodes = (
(612,-343,l),
(806,-343,l),
(806,-135,l),
(612,-135,l)
);
}
);
};
layerId = "F85E8FEC-B3CD-4A54-BF30-AB1986ECE904";
shapes = (
{
ref = E;
},
{
pos = (671,0);
ref = circumflexcomb.case;
},
{
alignment = -1;
pos = (709,0);
ref = dotbelowcomb.case;
}
);
width = 1255;
},
{
background = {
anchors = (
{
name = bottom;
pos = (675,-382);
},
{
name = ogonek;
pos = (1168,0);
},
{
name = top;
pos = (675,1993);
},
{
name = topleft;
pos = (20,1476);
}
);
shapes = (
{
closed = 1;
nodes = (
(190,0,l),
(1168,0,l),
(1168,224,l),
(486,224,l),
(486,646,l),
(1081,646,l),
(1081,860,l),
(486,860,l),
(486,1252,l),
(1157,1252,l),
(1157,1476,l),
(190,1476,l)
);
},
{
closed = 1;
nodes = (
(478,1638,l),
(709,1843,l),
(642,1843,l),
(872,1638,l),
(1051,1638,l),
(774,1993,l),
(576,1993,l),
(299,1638,l)
);
},
{
closed = 1;
nodes = (
(548,-382,l),
(802,-382,l),
(802,-117,l),
(548,-117,l)
);
}
);
};
layerId = "C6C96970-2BBD-4A47-8C90-C83F37B7F23D";
shapes = (
{
ref = E;
},
{
pos = (675,0);
ref = circumflexcomb.case;
},
{
pos = (675,0);
ref = dotbelowcomb.case;
}
);
width = 1294;
}
);
unicode = 7878;
},
{
glyphname = Ecircumflexgrave;
lastChange = "2024-04-12 10:11:21 +0000";
layers = (
{
background = {
anchors = (
{
name = bottom;
pos = (670,0);
},
{
name = ogonek;
pos = (1133,0);
},
{
name = top;
pos = (670,2101);
},
{
name = topleft;
pos = (20,1446);
}
);
shapes = (
{
closed = 1;
nodes = (
(218,0,l),
(1133,0,l),
(1133,150,l),
(419,150,l),
(419,670,l),
(1039,670,l),
(1039,820,l),
(419,820,l),
(419,1296,l),
(1121,1296,l),
(1121,1446,l),
(218,1446,l)
);
},
{
closed = 1;
nodes = (
(465,1611,l),
(722,1841,l),
(618,1841,l),
(874,1611,l),
(1012,1611,l),
(757,1931,l),
(582,1931,l),
(327,1611,l)
);
},
{
closed = 1;
nodes = (
(1075,1851,l),
(1002,2101,l),
(797,2101,l),
(967,1851,l)
);
}
);
};
layerId = "F85E8FEC-B3CD-4A54-BF30-AB1986ECE904";
shapes = (
{
ref = E;
},
{
pos = (670,386);
ref = circumflexcomb_gravecomb;
}
);
width = 1255;
},
{
background = {
anchors = (
{
name = bottom;
pos = (675,0);
},
{
name = ogonek;
pos = (1168,0);
},
{
name = top;
pos = (675,2201);
},
{
name = topleft;
pos = (20,1476);
}
);
shapes = (
{
closed = 1;
nodes = (
(190,0,l),
(1168,0,l),
(1168,224,l),
(486,224,l),
(486,646,l),
(1081,646,l),
(1081,860,l),
(486,860,l),
(486,1252,l),
(1157,1252,l),
(1157,1476,l),
(190,1476,l)
);
},
{
closed = 1;
nodes = (
(478,1658,l),
(709,1863,l),
(642,1863,l),
(872,1658,l),
(1051,1658,l),
(774,2013,l),
(576,2013,l),
(299,1658,l)
);
},
{
closed = 1;
nodes = (
(1110,1932,l),
(1038,2201,l),
(790,2201,l),
(981,1932,l)
);
}
);
};
layerId = "C6C96970-2BBD-4A47-8C90-C83F37B7F23D";
shapes = (
{
ref = E;
},
{
pos = (675,402);
ref = circumflexcomb_gravecomb;
}
);
width = 1294;
}
);
unicode = 7872;
},
{
glyphname = Ecircumflexhookabove;
lastChange = "2024-04-12 10:11:21 +0000";
layers = (
{
background = {
anchors = (
{
name = bottom;
pos = (670,0);
},
{
name = ogonek;
pos = (1133,0);
},
{
name = top;
pos = (733,2275);
},
{
name = topleft;
pos = (20,1446);
}
);
shapes = (
{
closed = 1;
nodes = (
(218,0,l),
(1133,0,l),
(1133,150,l),
(419,150,l),
(419,670,l),
(1039,670,l),
(1039,820,l),
(419,820,l),
(419,1296,l),
(1121,1296,l),
(1121,1446,l),
(218,1446,l)
);
},
{
closed = 1;
nodes = (
(465,1601,l),
(722,1851,l),
(618,1851,l),
(874,1601,l),
(1012,1601,l),
(757,1941,l),
(582,1941,l),
(327,1601,l)
);
},
{
closed = 1;
nodes = (
(1068,1878,o),
(1139,1940,o),
(1139,2067,cs),
(1139,2184,o),
(1052,2275,o),
(912,2275,cs),
(798,2275,o),
(712,2224,o),
(680,2125,c),
(808,2075,l),
(817,2115,o),
(855,2145,o),
(911,2145,cs),
(966,2145,o),
(997,2115,o),
(997,2065,cs),
(997,2016,o),
(974,1973,o),
(875,1941,c),
(930,1830,l)
);
}
);
};
layerId = "F85E8FEC-B3CD-4A54-BF30-AB1986ECE904";
shapes = (
{
ref = E;
},
{
pos = (670,386);
ref = circumflexcomb_hookabovecomb;
}
);
width = 1255;
},
{
background = {
anchors = (
{
name = bottom;
pos = (675,0);
},
{
name = ogonek;
pos = (1168,0);
},
{
name = top;
pos = (675,2397);
},
{
name = topleft;
pos = (20,1476);
}
);
shapes = (
{
closed = 1;
nodes = (
(190,0,l),
(1168,0,l),
(1168,224,l),
(486,224,l),
(486,646,l),
(1081,646,l),
(1081,860,l),
(486,860,l),
(486,1252,l),
(1157,1252,l),
(1157,1476,l),
(190,1476,l)
);
},
{
closed = 1;
nodes = (
(478,1658,l),
(709,1873,l),
(642,1873,l),
(872,1658,l),
(1051,1658,l),
(774,2023,l),
(576,2023,l),
(299,1658,l)
);
},
{
closed = 1;
nodes = (
(1124,1944,o),
(1201,2022,o),
(1201,2156,cs),
(1201,2298,o),
(1106,2397,o),
(944,2397,cs),
(819,2397,o),
(725,2342,o),
(691,2233,c),
(846,2174,l),
(860,2229,o),
(899,2249,o),
(942,2249,cs),
(994,2249,o),
(1028,2223,o),
(1028,2162,cs),
(1028,2104,o),
(997,2059,o),
(908,2023,c),
(974,1889,l)
);
}
);
};
layerId = "C6C96970-2BBD-4A47-8C90-C83F37B7F23D";
shapes = (
{
ref = E;
},
{
pos = (675,402);
ref = circumflexcomb_hookabovecomb;
}
);
width = 1294;
}
);
unicode = 7874;
},
{
glyphname = Ecircumflextilde;
lastChange = "2024-04-12 10:11:21 +0000";
layers = (
{
background = {
anchors = (
{
name = bottom;
pos = (670,0);
},
{
name = ogonek;
pos = (1133,0);
},
{
name = top;
pos = (670,2242);
},
{
name = topleft;
pos = (20,1446);
}
);
shapes = (
{
closed = 1;
nodes = (
(218,0,l),
(1133,0,l),
(1133,150,l),
(419,150,l),
(419,670,l),
(1039,670,l),
(1039,820,l),
(419,820,l),
(419,1296,l),
(1121,1296,l),
(1121,1446,l),
(218,1446,l)
);
},
{
closed = 1;
nodes = (
(466,1601,l),
(723,1851,l),
(619,1851,l),
(875,1601,l),
(1013,1601,l),
(758,1941,l),
(583,1941,l),
(328,1601,l)
);
},
{
closed = 1;
nodes = (
(905,1999,o),
(971,2063,o),
(971,2228,c),
(874,2228,l),
(874,2166,o),
(845,2135,o),
(804,2135,cs),
(733,2135,o),
(701,2242,o),
(564,2242,cs),
(444,2242,o),
(378,2178,o),
(378,2013,c),
(475,2013,l),
(475,2075,o),
(504,2106,o),
(545,2106,cs),
(616,2106,o),
(648,1999,o),
(785,1999,cs)
);
}
);
};
layerId = "F85E8FEC-B3CD-4A54-BF30-AB1986ECE904";
shapes = (
{
ref = E;
},
{
pos = (671,386);
ref = circumflexcomb_tildecomb;
}
);
width = 1255;
},
{
background = {
anchors = (
{
name = bottom;
pos = (675,0);
},
{
name = ogonek;
pos = (1168,0);
},
{
name = top;
pos = (675,2355);
},
{
name = topleft;
pos = (20,1476);
}
);
shapes = (
{
closed = 1;
nodes = (
(190,0,l),
(1168,0,l),
(1168,224,l),
(486,224,l),
(486,646,l),
(1081,646,l),
(1081,860,l),
(486,860,l),
(486,1252,l),
(1157,1252,l),
(1157,1476,l),
(190,1476,l)
);
},
{
closed = 1;
nodes = (
(478,1627,l),
(709,1842,l),
(642,1842,l),
(872,1627,l),
(1051,1627,l),
(774,1992,l),
(576,1992,l),
(299,1627,l)
);
},
{
closed = 1;
nodes = (
(936,2079,o),
(1027,2152,o),
(1027,2339,c),
(893,2339,l),
(893,2276,o),
(861,2253,o),
(821,2253,cs),
(744,2253,o),
(723,2355,o),
(548,2355,cs),
(412,2355,o),
(321,2282,o),
(321,2095,c),
(455,2095,l),
(455,2156,o),
(481,2182,o),
(519,2182,cs),
(599,2182,o),
(626,2079,o),
(800,2079,cs)
);
}
);
};
layerId = "C6C96970-2BBD-4A47-8C90-C83F37B7F23D";
shapes = (
{
ref = E;
},
{
pos = (675,402);
ref = circumflexcomb_tildecomb;
}
);
width = 1294;
}
);
unicode = 7876;
},
{
glyphname = Edblgrave;
lastChange = "2024-04-12 10:11:21 +0000";
layers = (
{
background = {
anchors = (
{
name = bottom;
pos = (670,0);
},
{
name = ogonek;
pos = (1133,0);
},
{
name = top;
pos = (670,1941);
},
{
name = topleft;
pos = (20,1446);
}
);
shapes = (
{
closed = 1;
nodes = (
(218,0,l),
(1133,0,l),
(1133,150,l),
(419,150,l),
(419,670,l),
(1039,670,l),
(1039,820,l),
(419,820,l),
(419,1296,l),
(1121,1296,l),
(1121,1446,l),
(218,1446,l)
);
},
{
closed = 1;
nodes = (
(880,1591,l),
(838,1941,l),
(640,1941,l),
(769,1591,l)
);
},
{
closed = 1;
nodes = (
(599,1591,l),
(557,1941,l),
(359,1941,l),
(488,1591,l)
);
}
);
};
layerId = "F85E8FEC-B3CD-4A54-BF30-AB1986ECE904";
shapes = (
{
ref = E;
},
{
pos = (670,0);
ref = dblgravecomb.case;
}
);
width = 1255;
},
{
background = {
anchors = (
{
name = bottom;
pos = (675,0);
},
{
name = ogonek;
pos = (1168,0);
},
{
name = top;
pos = (675,1995);
},
{
name = topleft;
pos = (20,1476);
}
);
shapes = (
{
closed = 1;
nodes = (
(190,0,l),
(1168,0,l),
(1168,224,l),
(486,224,l),
(486,646,l),
(1081,646,l),
(1081,860,l),
(486,860,l),
(486,1252,l),
(1157,1252,l),
(1157,1476,l),
(190,1476,l)
);
},
{
closed = 1;
nodes = (
(919,1630,l),
(877,1995,l),
(619,1995,l),
(780,1630,l)
);
},
{
closed = 1;
nodes = (
(619,1630,l),
(577,1995,l),
(319,1995,l),
(480,1630,l)
);
}
);
};
layerId = "C6C96970-2BBD-4A47-8C90-C83F37B7F23D";
shapes = (
{
ref = E;
},
{
pos = (675,0);
ref = dblgravecomb.case;
}
);
width = 1294;
}
);
unicode = 516;
},
{
glyphname = Edieresis;
lastChange = "2024-04-12 10:11:21 +0000";
layers = (
{
background = {
anchors = (
{
name = bottom;
pos = (670,0);
},
{
name = ogonek;
pos = (1133,0);
},
{
name = top;
pos = (670,1830);
},
{
name = topleft;
pos = (20,1446);
}
);
shapes = (
{
closed = 1;
nodes = (
(218,0,l),
(1133,0,l),
(1133,150,l),
(419,150,l),
(419,670,l),
(1039,670,l),
(1039,820,l),
(419,820,l),
(419,1296,l),
(1121,1296,l),
(1121,1446,l),
(218,1446,l)
);
},
{
closed = 1;
nodes = (
(385,1649,l),
(591,1649,l),
(591,1830,l),
(385,1830,l)
);
},
{
closed = 1;
nodes = (
(749,1649,l),
(955,1649,l),
(955,1830,l),
(749,1830,l)
);
}
);
};
layerId = "F85E8FEC-B3CD-4A54-BF30-AB1986ECE904";
shapes = (
{
ref = E;
},
{
pos = (670,0);
ref = dieresiscomb.case;
}
);
width = 1255;
},
{
background = {
anchors = (
{
name = bottom;
pos = (675,0);
},
{
name = ogonek;
pos = (1168,0);
},
{
name = top;
pos = (675,1916);
},
{
name = topleft;
pos = (20,1476);
}
);
shapes = (
{
closed = 1;
nodes = (
(190,0,l),
(1168,0,l),
(1168,224,l),
(486,224,l),
(486,646,l),
(1081,646,l),
(1081,860,l),
(486,860,l),
(486,1252,l),
(1157,1252,l),
(1157,1476,l),
(190,1476,l)
);
},
{
closed = 1;
nodes = (
(338,1683,l),
(602,1683,l),
(602,1916,l),
(338,1916,l)
);
},
{
closed = 1;
nodes = (
(747,1683,l),
(1012,1683,l),
(1012,1916,l),
(747,1916,l)
);
}
);
};
layerId = "C6C96970-2BBD-4A47-8C90-C83F37B7F23D";
shapes = (
{
ref = E;
},
{
pos = (675,0);
ref = dieresiscomb.case;
}
);
width = 1294;
}
);
unicode = 203;
},
{
glyphname = Edotaccent;
lastChange = "2024-04-12 10:11:21 +0000";
layers = (
{
background = {
anchors = (
{
name = bottom;
pos = (670,0);
},
{
name = ogonek;
pos = (1133,0);
},
{
name = top;
pos = (670,1822);
},
{
name = topleft;
pos = (20,1446);
}
);
shapes = (
{
closed = 1;
nodes = (
(218,0,l),
(1133,0,l),
(1133,150,l),
(419,150,l),
(419,670,l),
(1039,670,l),
(1039,820,l),
(419,820,l),
(419,1296,l),
(1121,1296,l),
(1121,1446,l),
(218,1446,l)
);
},
{
closed = 1;
nodes = (
(573,1614,l),
(767,1614,l),
(767,1822,l),
(573,1822,l)
);
}
);
};
layerId = "F85E8FEC-B3CD-4A54-BF30-AB1986ECE904";
shapes = (
{
ref = E;
},
{
pos = (670,0);
ref = dotaccentcomb.case;
}
);
width = 1255;
},
{
background = {
anchors = (
{
name = bottom;
pos = (675,0);
},
{
name = ogonek;
pos = (1168,0);
},
{
name = top;
pos = (675,1933);
},
{
name = topleft;
pos = (20,1476);
}
);
shapes = (
{
closed = 1;
nodes = (
(190,0,l),
(1168,0,l),
(1168,224,l),
(486,224,l),
(486,646,l),
(1081,646,l),
(1081,860,l),
(486,860,l),
(486,1252,l),
(1157,1252,l),
(1157,1476,l),
(190,1476,l)
);
},
{
closed = 1;
nodes = (
(548,1668,l),
(802,1668,l),
(802,1933,l),
(548,1933,l)
);
}
);
};
layerId = "C6C96970-2BBD-4A47-8C90-C83F37B7F23D";
shapes = (
{
ref = E;
},
{
pos = (675,0);
ref = dotaccentcomb.case;
}
);
width = 1294;
}
);
unicode = 278;
},
{
glyphname = Edotbelow;
lastChange = "2024-04-12 10:11:21 +0000";
layers = (
{
background = {
anchors = (
{
name = bottom;
pos = (700,-343);
},
{
name = ogonek;
pos = (1133,0);
},
{
name = top;
pos = (670,1446);
},
{
name = topleft;
pos = (20,1446);
}
);
shapes = (
{
closed = 1;
nodes = (
(218,0,l),
(1133,0,l),
(1133,150,l),
(419,150,l),
(419,670,l),
(1039,670,l),
(1039,820,l),
(419,820,l),
(419,1296,l),
(1121,1296,l),
(1121,1446,l),
(218,1446,l)
);
},
{
closed = 1;
nodes = (
(603,-343,l),
(797,-343,l),
(797,-135,l),
(603,-135,l)
);
}
);
};
layerId = "F85E8FEC-B3CD-4A54-BF30-AB1986ECE904";
shapes = (
{
ref = E;
},
{
alignment = -1;
pos = (700,0);
ref = dotbelowcomb.case;
}
);
width = 1255;
},
{
background = {
anchors = (
{
name = bottom;
pos = (675,-382);
},
{
name = ogonek;
pos = (1168,0);
},
{
name = top;
pos = (675,1476);
},
{
name = topleft;
pos = (20,1476);
}
);
shapes = (
{
closed = 1;
nodes = (
(190,0,l),
(1168,0,l),
(1168,224,l),
(486,224,l),
(486,646,l),
(1081,646,l),
(1081,860,l),
(486,860,l),
(486,1252,l),
(1157,1252,l),
(1157,1476,l),
(190,1476,l)
);
},
{
closed = 1;
nodes = (
(548,-382,l),
(802,-382,l),
(802,-117,l),
(548,-117,l)
);
}
);
};
layerId = "C6C96970-2BBD-4A47-8C90-C83F37B7F23D";
shapes = (
{
ref = E;
},
{
pos = (675,0);
ref = dotbelowcomb.case;
}
);
width = 1294;
}
);
unicode = 7864;
},
{
glyphname = Egrave;
lastChange = "2024-04-12 10:11:21 +0000";
layers = (
{
background = {
anchors = (
{
name = bottom;
pos = (670,0);
},
{
name = ogonek;
pos = (1133,0);
},
{
name = top;
pos = (670,1982);
},
{
name = topleft;
pos = (20,1446);
}
);
shapes = (
{
closed = 1;
nodes = (
(218,0,l),
(1133,0,l),
(1133,150,l),
(419,150,l),
(419,670,l),
(1039,670,l),
(1039,820,l),
(419,820,l),
(419,1296,l),
(1121,1296,l),
(1121,1446,l),
(218,1446,l)
);
},
{
closed = 1;
nodes = (
(410,1982,l),
(672,1632,l),
(800,1632,l),
(635,1982,l)
);
}
);
};
layerId = "F85E8FEC-B3CD-4A54-BF30-AB1986ECE904";
shapes = (
{
ref = E;
},
{
pos = (670,0);
ref = gravecomb.case;
}
);
width = 1255;
},
{
background = {
anchors = (
{
name = bottom;
pos = (675,0);
},
{
name = ogonek;
pos = (1168,0);
},
{
name = top;
pos = (675,2022);
},
{
name = topleft;
pos = (20,1476);
}
);
shapes = (
{
closed = 1;
nodes = (
(190,0,l),
(1168,0,l),
(1168,224,l),
(486,224,l),
(486,646,l),
(1081,646,l),
(1081,860,l),
(486,860,l),
(486,1252,l),
(1157,1252,l),
(1157,1476,l),
(190,1476,l)
);
},
{
closed = 1;
nodes = (
(355,2022,l),
(636,1657,l),
(835,1657,l),
(673,2022,l)
);
}
);
};
layerId = "C6C96970-2BBD-4A47-8C90-C83F37B7F23D";
shapes = (
{
ref = E;
},
{
pos = (675,0);
ref = gravecomb.case;
}
);
width = 1294;
}
);
unicode = 200;
},
{
glyphname = Ehookabove;
lastChange = "2024-04-12 10:11:21 +0000";
layers = (
{
background = {
anchors = (
{
name = bottom;
pos = (670,0);
},
{
name = ogonek;
pos = (1133,0);
},
{
name = top;
pos = (670,2001);
},
{
name = topleft;
pos = (20,1446);
}
);
shapes = (
{
closed = 1;
nodes = (
(218,0,l),
(1133,0,l),
(1133,150,l),
(419,150,l),
(419,670,l),
(1039,670,l),
(1039,820,l),
(419,820,l),
(419,1296,l),
(1121,1296,l),
(1121,1446,l),
(218,1446,l)
);
},
{
closed = 1;
nodes = (
(812,1604,o),
(883,1666,o),
(883,1793,cs),
(883,1910,o),
(796,2001,o),
(656,2001,cs),
(542,2001,o),
(456,1950,o),
(424,1851,c),
(552,1801,l),
(561,1841,o),
(599,1871,o),
(655,1871,cs),
(710,1871,o),
(741,1841,o),
(741,1791,cs),
(741,1742,o),
(718,1699,o),
(619,1667,c),
(674,1556,l)
);
}
);
};
layerId = "F85E8FEC-B3CD-4A54-BF30-AB1986ECE904";
shapes = (
{
ref = E;
},
{
pos = (670,0);
ref = hookabovecomb.case;
}
);
width = 1255;
},
{
background = {
anchors = (
{
name = bottom;
pos = (675,0);
},
{
name = ogonek;
pos = (1168,0);
},
{
name = top;
pos = (675,2099);
},
{
name = topleft;
pos = (20,1476);
}
);
shapes = (
{
closed = 1;
nodes = (
(190,0,l),
(1168,0,l),
(1168,224,l),
(486,224,l),
(486,646,l),
(1081,646,l),
(1081,860,l),
(486,860,l),
(486,1252,l),
(1157,1252,l),
(1157,1476,l),
(190,1476,l)
);
},
{
closed = 1;
nodes = (
(823,1646,o),
(900,1724,o),
(900,1858,cs),
(900,2000,o),
(805,2099,o),
(643,2099,cs),
(518,2099,o),
(424,2044,o),
(390,1935,c),
(545,1876,l),
(559,1931,o),
(598,1951,o),
(641,1951,cs),
(693,1951,o),
(727,1925,o),
(727,1864,cs),
(727,1806,o),
(696,1761,o),
(607,1725,c),
(673,1591,l)
);
}
);
};
layerId = "C6C96970-2BBD-4A47-8C90-C83F37B7F23D";
shapes = (
{
ref = E;
},
{
pos = (675,0);
ref = hookabovecomb.case;
}
);
width = 1294;
}
);
unicode = 7866;
},
{
glyphname = Einvertedbreve;
lastChange = "2024-04-12 10:11:21 +0000";
layers = (
{
background = {
anchors = (
{
name = bottom;
pos = (670,0);
},
{
name = ogonek;
pos = (1133,0);
},
{
name = top;
pos = (670,1949);
},
{
name = topleft;
pos = (20,1446);
}
);
shapes = (
{
closed = 1;
nodes = (
(218,0,l),
(1133,0,l),
(1133,150,l),
(419,150,l),
(419,670,l),
(1039,670,l),
(1039,820,l),
(419,820,l),
(419,1296,l),
(1121,1296,l),
(1121,1446,l),
(218,1446,l)
);
},
{
closed = 1;
nodes = (
(489,1949,o),
(369,1856,o),
(369,1651,c),
(504,1651,l),
(504,1738,o),
(557,1794,o),
(670,1794,cs),
(782,1794,o),
(835,1738,o),
(835,1651,c),
(971,1651,l),
(971,1856,o),
(850,1949,o),
(670,1949,cs)
);
}
);
};
layerId = "F85E8FEC-B3CD-4A54-BF30-AB1986ECE904";
shapes = (
{
ref = E;
},
{
pos = (670,0);
ref = breveinvertedcomb.case;
}
);
width = 1255;
},
{
background = {
anchors = (
{
name = bottom;
pos = (675,0);
},
{
name = ogonek;
pos = (1168,0);
},
{
name = top;
pos = (675,1988);
},
{
name = topleft;
pos = (20,1476);
}
);
shapes = (
{
closed = 1;
nodes = (
(190,0,l),
(1168,0,l),
(1168,224,l),
(486,224,l),
(486,646,l),
(1081,646,l),
(1081,860,l),
(486,860,l),
(486,1252,l),
(1157,1252,l),
(1157,1476,l),
(190,1476,l)
);
},
{
closed = 1;
nodes = (
(466,1988,o),
(336,1870,o),
(336,1650,c),
(536,1650,l),
(536,1737,o),
(575,1783,o),
(675,1783,cs),
(775,1783,o),
(814,1737,o),
(814,1650,c),
(1014,1650,l),
(1014,1870,o),
(884,1988,o),
(675,1988,cs)
);
}
);
};
layerId = "C6C96970-2BBD-4A47-8C90-C83F37B7F23D";
shapes = (
{
ref = E;
},
{
pos = (675,0);
ref = breveinvertedcomb.case;
}
);
width = 1294;
}
);
unicode = 518;
},
{
glyphname = Emacron;
lastChange = "2024-04-12 10:11:21 +0000";
layers = (
{
background = {
anchors = (
{
name = bottom;
pos = (670,0);
},
{
name = ogonek;
pos = (1133,0);
},
{
name = top;
pos = (670,1813);
},
{
name = topleft;
pos = (20,1446);
}
);
shapes = (
{
closed = 1;
nodes = (
(218,0,l),
(1133,0,l),
(1133,150,l),
(419,150,l),
(419,670,l),
(1039,670,l),
(1039,820,l),
(419,820,l),
(419,1296,l),
(1121,1296,l),
(1121,1446,l),
(218,1446,l)
);
},
{
closed = 1;
nodes = (
(418,1658,l),
(922,1658,l),
(922,1813,l),
(418,1813,l)
);
}
);
};
layerId = "F85E8FEC-B3CD-4A54-BF30-AB1986ECE904";
shapes = (
{
ref = E;
},
{
pos = (670,0);
ref = macroncomb.case;
}
);
width = 1255;
},
{
background = {
anchors = (
{
name = bottom;
pos = (675,0);
},
{
name = ogonek;
pos = (1168,0);
},
{
name = top;
pos = (675,1904);
},
{
name = topleft;
pos = (20,1476);
}
);
shapes = (
{
closed = 1;
nodes = (
(190,0,l),
(1168,0,l),
(1168,224,l),
(486,224,l),
(486,646,l),
(1081,646,l),
(1081,860,l),
(486,860,l),
(486,1252,l),
(1157,1252,l),
(1157,1476,l),
(190,1476,l)
);
},
{
closed = 1;
nodes = (
(333,1737,l),
(1017,1737,l),
(1017,1904,l),
(333,1904,l)
);
}
);
};
layerId = "C6C96970-2BBD-4A47-8C90-C83F37B7F23D";
shapes = (
{
ref = E;
},
{
pos = (675,0);
ref = macroncomb.case;
}
);
width = 1294;
}
);
unicode = 274;
},
{
glyphname = Emacronacute;
lastChange = "2024-04-12 10:11:21 +0000";
layers = (
{
background = {
anchors = (
{
name = bottom;
pos = (670,0);
},
{
name = ogonek;
pos = (1133,0);
},
{
name = top;
pos = (670,2219);
},
{
name = topleft;
pos = (20,1446);
}
);
shapes = (
{
closed = 1;
nodes = (
(218,0,l),
(1133,0,l),
(1133,150,l),
(419,150,l),
(419,670,l),
(1039,670,l),
(1039,820,l),
(419,820,l),
(419,1296,l),
(1121,1296,l),
(1121,1446,l),
(218,1446,l)
);
},
{
closed = 1;
nodes = (
(418,1608,l),
(922,1608,l),
(922,1763,l),
(418,1763,l)
);
},
{
closed = 1;
nodes = (
(540,1869,l),
(668,1869,l),
(930,2219,l),
(705,2219,l)
);
}
);
};
layerId = "F85E8FEC-B3CD-4A54-BF30-AB1986ECE904";
shapes = (
{
ref = E;
},
{
alignment = -1;
pos = (670,-50);
ref = macroncomb.case;
},
{
alignment = -1;
pos = (670,237);
ref = acutecomb.case;
}
);
width = 1255;
},
{
background = {
anchors = (
{
name = bottom;
pos = (675,0);
},
{
name = ogonek;
pos = (1168,0);
},
{
name = top;
pos = (675,2350);
},
{
name = topleft;
pos = (20,1476);
}
);
shapes = (
{
closed = 1;
nodes = (
(190,0,l),
(1168,0,l),
(1168,224,l),
(486,224,l),
(486,646,l),
(1081,646,l),
(1081,860,l),
(486,860,l),
(486,1252,l),
(1157,1252,l),
(1157,1476,l),
(190,1476,l)
);
},
{
closed = 1;
nodes = (
(333,1687,l),
(1017,1687,l),
(1017,1854,l),
(333,1854,l)
);
},
{
closed = 1;
nodes = (
(515,1985,l),
(714,1985,l),
(995,2350,l),
(677,2350,l)
);
}
);
};
layerId = "C6C96970-2BBD-4A47-8C90-C83F37B7F23D";
shapes = (
{
ref = E;
},
{
alignment = -1;
pos = (675,-50);
ref = macroncomb.case;
},
{
alignment = -1;
pos = (675,328);
ref = acutecomb.case;
}
);
width = 1294;
}
);
unicode = 7702;
},
{
glyphname = Emacrongrave;
lastChange = "2024-04-12 10:11:21 +0000";
layers = (
{
background = {
anchors = (
{
name = bottom;
pos = (670,0);
},
{
name = ogonek;
pos = (1133,0);
},
{
name = top;
pos = (670,2219);
},
{
name = topleft;
pos = (20,1446);
}
);
shapes = (
{
closed = 1;
nodes = (
(218,0,l),
(1133,0,l),
(1133,150,l),
(419,150,l),
(419,670,l),
(1039,670,l),
(1039,820,l),
(419,820,l),
(419,1296,l),
(1121,1296,l),
(1121,1446,l),
(218,1446,l)
);
},
{
closed = 1;
nodes = (
(418,1608,l),
(922,1608,l),
(922,1763,l),
(418,1763,l)
);
},
{
closed = 1;
nodes = (
(410,2219,l),
(672,1869,l),
(800,1869,l),
(635,2219,l)
);
}
);
};
layerId = "F85E8FEC-B3CD-4A54-BF30-AB1986ECE904";
shapes = (
{
ref = E;
},
{
alignment = -1;
pos = (670,-50);
ref = macroncomb.case;
},
{
alignment = -1;
pos = (670,237);
ref = gravecomb.case;
}
);
width = 1255;
},
{
background = {
anchors = (
{
name = bottom;
pos = (675,0);
},
{
name = ogonek;
pos = (1168,0);
},
{
name = top;
pos = (675,2350);
},
{
name = topleft;
pos = (20,1476);
}
);
shapes = (
{
closed = 1;
nodes = (
(190,0,l),
(1168,0,l),
(1168,224,l),
(486,224,l),
(486,646,l),
(1081,646,l),
(1081,860,l),
(486,860,l),
(486,1252,l),
(1157,1252,l),
(1157,1476,l),
(190,1476,l)
);
},
{
closed = 1;
nodes = (
(333,1687,l),
(1017,1687,l),
(1017,1854,l),
(333,1854,l)
);
},
{
closed = 1;
nodes = (
(355,2350,l),
(636,1985,l),
(835,1985,l),
(673,2350,l)
);
}
);
};
layerId = "C6C96970-2BBD-4A47-8C90-C83F37B7F23D";
shapes = (
{
ref = E;
},
{
alignment = -1;
pos = (675,-50);
ref = macroncomb.case;
},
{
alignment = -1;
pos = (675,328);
ref = gravecomb.case;
}
);
width = 1294;
}
);
unicode = 7700;
},
{
glyphname = Eogonek;
lastChange = "2024-04-12 10:11:21 +0000";
layers = (
{
background = {
anchors = (
{
name = bottom;
pos = (670,0);
},
{
name = ogonek;
pos = (1133,0);
},
{
name = top;
pos = (670,1446);
},
{
name = topleft;
pos = (20,1446);
}
);
shapes = (
{
closed = 1;
nodes = (
(218,0,l),
(1133,0,l),
(1133,150,l),
(419,150,l),
(419,670,l),
(1039,670,l),
(1039,820,l),
(419,820,l),
(419,1296,l),
(1121,1296,l),
(1121,1446,l),
(218,1446,l)
);
},
{
closed = 1;
nodes = (
(835,-387,o),
(920,-454,o),
(1068,-454,cs),
(1144,-454,l),
(1156,-313,l),
(1096,-313,ls),
(1026,-313,o),
(995,-274,o),
(995,-211,cs),
(995,-142,o),
(1053,-68,o),
(1133,0,c),
(1020,10,l),
(910,-56,o),
(835,-174,o),
(835,-260,cs)
);
}
);
};
layerId = "F85E8FEC-B3CD-4A54-BF30-AB1986ECE904";
shapes = (
{
ref = E;
},
{
pos = (1133,0);
ref = ogonekcomb.case;
}
);
width = 1255;
},
{
background = {
anchors = (
{
name = bottom;
pos = (675,0);
},
{
name = ogonek;
pos = (1168,0);
},
{
name = top;
pos = (675,1476);
},
{
name = topleft;
pos = (20,1476);
}
);
shapes = (
{
closed = 1;
nodes = (
(190,0,l),
(1168,0,l),
(1168,224,l),
(486,224,l),
(486,646,l),
(1081,646,l),
(1081,860,l),
(486,860,l),
(486,1252,l),
(1157,1252,l),
(1157,1476,l),
(190,1476,l)
);
},
{
closed = 1;
nodes = (
(850,-411,o),
(935,-484,o),
(1133,-484,cs),
(1188,-484,l),
(1201,-333,l),
(1166,-333,ls),
(1076,-333,o),
(1035,-294,o),
(1035,-221,cs),
(1035,-142,o),
(1088,-68,o),
(1168,0,c),
(1042,10,l),
(932,-56,o),
(850,-174,o),
(850,-270,cs)
);
}
);
};
layerId = "C6C96970-2BBD-4A47-8C90-C83F37B7F23D";
shapes = (
{
ref = E;
},
{
pos = (1168,0);
ref = ogonekcomb.case;
}
);
width = 1294;
}
);
unicode = 280;
},
{
glyphname = Eopen;
lastChange = "2024-04-12 10:11:14 +0000";
layers = (
{
background = {
shapes = (
{
closed = 1;
nodes = (
(1000,-22,o),
(1131,91,o),
(1170,431,c),
(978,431,l),
(960,189,o),
(847,140,o),
(620,140,cs),
(412,140,o),
(329,230,o),
(329,399,cs),
(329,622,o),
(385,691,o),
(738,691,c),
(738,840,l),
(374,840,o),
(360,924,o),
(360,1088,cs),
(360,1224,o),
(429,1306,o),
(637,1306,cs),
(881,1306,o),
(967,1244,o),
(967,1005,c),
(1158,1025,l),
(1158,1393,o),
(931,1468,o),
(638,1468,cs),
(354,1468,o),
(158,1354,o),
(158,1091,cs),
(158,889,o),
(240,782,o),
(459,764,c),
(454,773,l),
(246,744,o),
(124,656,o),
(124,398,cs),
(124,122,o),
(310,-22,o),
(633,-22,cs)
);
}
);
};
layerId = "F85E8FEC-B3CD-4A54-BF30-AB1986ECE904";
shapes = (
{
closed = 1;
nodes = (
(1000,-22,o),
(1131,91,o),
(1170,431,c),
(978,431,l),
(960,189,o),
(847,140,o),
(620,140,cs),
(412,140,o),
(329,230,o),
(329,399,cs),
(329,622,o),
(385,691,o),
(738,691,c),
(738,840,l),
(374,840,o),
(360,924,o),
(360,1088,cs),
(360,1224,o),
(429,1306,o),
(637,1306,cs),
(881,1306,o),
(967,1244,o),
(967,1005,c),
(1158,1025,l),
(1158,1393,o),
(931,1468,o),
(638,1468,cs),
(354,1468,o),
(158,1354,o),
(158,1091,cs),
(158,889,o),
(240,782,o),
(459,764,c),
(454,773,l),
(246,744,o),
(124,656,o),
(124,398,cs),
(124,122,o),
(310,-22,o),
(633,-22,cs)
);
}
);
width = 1250;
},
{
background = {
shapes = (
{
closed = 1;
nodes = (
(1137,-27,o),
(1298,146,o),
(1298,436,c),
(1030,436,l),
(1030,251,o),
(949,198,o),
(727,198,cs),
(518,198,o),
(442,281,o),
(442,425,cs),
(442,593,o),
(508,650,o),
(766,650,c),
(766,849,l),
(478,849,o),
(450,914,o),
(450,1074,cs),
(450,1210,o),
(510,1279,o),
(733,1279,cs),
(963,1279,o),
(1025,1218,o),
(1025,1033,c),
(1292,1033,l),
(1292,1387,o),
(1086,1503,o),
(736,1503,cs),
(390,1503,o),
(173,1357,o),
(173,1088,cs),
(173,924,o),
(213,772,o),
(439,745,c),
(433,760,l),
(226,722,o),
(160,576,o),
(160,412,cs),
(160,167,o),
(313,-27,o),
(730,-27,cs)
);
}
);
};
layerId = "C6C96970-2BBD-4A47-8C90-C83F37B7F23D";
shapes = (
{
closed = 1;
nodes = (
(1137,-27,o),
(1298,146,o),
(1298,436,c),
(1030,436,l),
(1030,251,o),
(949,198,o),
(727,198,cs),
(518,198,o),
(442,281,o),
(442,425,cs),
(442,593,o),
(508,650,o),
(766,650,c),
(766,849,l),
(478,849,o),
(450,914,o),
(450,1074,cs),
(450,1210,o),
(510,1279,o),
(733,1279,cs),
(963,1279,o),
(1025,1218,o),
(1025,1033,c),
(1292,1033,l),
(1292,1387,o),
(1086,1503,o),
(736,1503,cs),
(390,1503,o),
(173,1357,o),
(173,1088,cs),
(173,924,o),
(213,772,o),
(439,745,c),
(433,760,l),
(226,722,o),
(160,576,o),
(160,412,cs),
(160,167,o),
(313,-27,o),
(730,-27,cs)
);
}
);
width = 1480;
}
);
unicode = 400;
},
{
glyphname = Ereversed;
lastChange = "2024-04-12 10:11:14 +0000";
layers = (
{
background = {
shapes = (
{
closed = 1;
nodes = (
(134,1446,l),
(134,1296,l),
(836,1296,l),
(836,820,l),
(216,820,l),
(216,670,l),
(836,670,l),
(836,150,l),
(122,150,l),
(122,0,l),
(1037,0,l),
(1037,1446,l)
);
}
);
};
layerId = "F85E8FEC-B3CD-4A54-BF30-AB1986ECE904";
shapes = (
{
closed = 1;
nodes = (
(134,1446,l),
(134,1296,l),
(836,1296,l),
(836,820,l),
(216,820,l),
(216,670,l),
(836,670,l),
(836,150,l),
(122,150,l),
(122,0,l),
(1037,0,l),
(1037,1446,l)
);
}
);
width = 1255;
},
{
background = {
shapes = (
{
closed = 1;
nodes = (
(137,1476,l),
(137,1252,l),
(808,1252,l),
(808,860,l),
(213,860,l),
(213,646,l),
(808,646,l),
(808,224,l),
(126,224,l),
(126,0,l),
(1104,0,l),
(1104,1476,l)
);
}
);
};
layerId = "C6C96970-2BBD-4A47-8C90-C83F37B7F23D";
shapes = (
{
closed = 1;
nodes = (
(137,1476,l),
(137,1252,l),
(808,1252,l),
(808,860,l),
(213,860,l),
(213,646,l),
(808,646,l),
(808,224,l),
(126,224,l),
(126,0,l),
(1104,0,l),
(1104,1476,l)
);
}
);
width = 1294;
}
);
unicode = 398;
},
{
glyphname = Esh;
lastChange = "2024-04-12 10:11:14 +0000";
layers = (
{
background = {
shapes = (
{
closed = 1;
nodes = (
(1037,0,l),
(1037,150,l),
(286,150,l),
(303,127,l),
(787,738,l),
(787,807,l),
(315,1318,l),
(282,1296,l),
(1025,1296,l),
(1025,1446,l),
(122,1446,l),
(122,1298,l),
(646,729,l),
(636,797,l),
(122,155,l),
(122,0,l)
);
}
);
};
layerId = "F85E8FEC-B3CD-4A54-BF30-AB1986ECE904";
shapes = (
{
closed = 1;
nodes = (
(1037,0,l),
(1037,150,l),
(286,150,l),
(303,127,l),
(787,738,l),
(787,807,l),
(315,1318,l),
(282,1296,l),
(1025,1296,l),
(1025,1446,l),
(122,1446,l),
(122,1298,l),
(646,729,l),
(636,797,l),
(122,155,l),
(122,0,l)
);
}
);
width = 1159;
},
{
background = {
shapes = (
{
closed = 1;
nodes = (
(1102,0,l),
(1102,224,l),
(434,224,l),
(450,192,l),
(906,734,l),
(906,812,l),
(467,1284,l),
(437,1252,l),
(1090,1252,l),
(1090,1476,l),
(125,1476,l),
(125,1291,l),
(646,728,l),
(636,795,l),
(125,191,l),
(125,0,l)
);
}
);
};
layerId = "C6C96970-2BBD-4A47-8C90-C83F37B7F23D";
shapes = (
{
closed = 1;
nodes = (
(1102,0,l),
(1102,224,l),
(434,224,l),
(450,192,l),
(906,734,l),
(906,812,l),
(467,1284,l),
(437,1252,l),
(1090,1252,l),
(1090,1476,l),
(125,1476,l),
(125,1291,l),
(646,728,l),
(636,795,l),
(125,191,l),
(125,0,l)
);
}
);
width = 1227;
}
);
unicode = 425;
},
{
glyphname = Estroke;
lastChange = "2024-04-12 10:11:14 +0000";
layers = (
{
background = {
shapes = (
{
closed = 1;
nodes = (
(218,0,l),
(1173,0,l),
(1173,150,l),
(419,150,l),
(419,670,l),
(1079,670,l),
(1079,820,l),
(419,820,l),
(419,1296,l),
(1161,1296,l),
(1161,1446,l),
(218,1446,l)
);
},
{
closed = 1;
nodes = (
(542,-217,l),
(1058,1669,l),
(951,1697,l),
(436,-188,l)
);
}
);
};
layerId = "F85E8FEC-B3CD-4A54-BF30-AB1986ECE904";
shapes = (
{
closed = 1;
nodes = (
(218,0,l),
(1173,0,l),
(1173,150,l),
(419,150,l),
(419,670,l),
(1079,670,l),
(1079,820,l),
(419,820,l),
(419,1296,l),
(1161,1296,l),
(1161,1446,l),
(218,1446,l)
);
},
{
closed = 1;
nodes = (
(542,-217,l),
(1058,1669,l),
(951,1697,l),
(436,-188,l)
);
}
);
width = 1295;
},
{
background = {
shapes = (
{
closed = 1;
nodes = (
(190,0,l),
(1208,0,l),
(1208,224,l),
(486,224,l),
(486,646,l),
(1121,646,l),
(1121,860,l),
(486,860,l),
(486,1252,l),
(1197,1252,l),
(1197,1476,l),
(190,1476,l)
);
},
{
closed = 1;
nodes = (
(561,-217,l),
(1097,1670,l),
(990,1698,l),
(455,-189,l)
);
}
);
};
layerId = "C6C96970-2BBD-4A47-8C90-C83F37B7F23D";
shapes = (
{
closed = 1;
nodes = (
(190,0,l),
(1208,0,l),
(1208,224,l),
(486,224,l),
(486,646,l),
(1121,646,l),
(1121,860,l),
(486,860,l),
(486,1252,l),
(1197,1252,l),
(1197,1476,l),
(190,1476,l)
);
},
{
closed = 1;
nodes = (
(561,-217,l),
(1097,1670,l),
(990,1698,l),
(455,-189,l)
);
}
);
width = 1334;
}
);
unicode = 582;
},
{
glyphname = Etilde;
lastChange = "2024-04-12 10:11:21 +0000";
layers = (
{
background = {
anchors = (
{
name = bottom;
pos = (670,0);
},
{
name = ogonek;
pos = (1133,0);
},
{
name = top;
pos = (670,1845);
},
{
name = topleft;
pos = (20,1446);
}
);
shapes = (
{
closed = 1;
nodes = (
(218,0,l),
(1133,0,l),
(1133,150,l),
(419,150,l),
(419,670,l),
(1039,670,l),
(1039,820,l),
(419,820,l),
(419,1296,l),
(1121,1296,l),
(1121,1446,l),
(218,1446,l)
);
},
{
closed = 1;
nodes = (
(900,1602,o),
(966,1666,o),
(966,1831,c),
(869,1831,l),
(869,1769,o),
(840,1738,o),
(799,1738,cs),
(728,1738,o),
(696,1845,o),
(559,1845,cs),
(439,1845,o),
(373,1781,o),
(373,1616,c),
(470,1616,l),
(470,1678,o),
(499,1709,o),
(540,1709,cs),
(611,1709,o),
(643,1602,o),
(780,1602,cs)
);
}
);
};
layerId = "F85E8FEC-B3CD-4A54-BF30-AB1986ECE904";
shapes = (
{
ref = E;
},
{
pos = (666,0);
ref = tildecomb.case;
}
);
width = 1255;
},
{
background = {
anchors = (
{
name = bottom;
pos = (675,0);
},
{
name = ogonek;
pos = (1168,0);
},
{
name = top;
pos = (675,1924);
},
{
name = topleft;
pos = (20,1476);
}
);
shapes = (
{
closed = 1;
nodes = (
(190,0,l),
(1168,0,l),
(1168,224,l),
(486,224,l),
(486,646,l),
(1081,646,l),
(1081,860,l),
(486,860,l),
(486,1252,l),
(1157,1252,l),
(1157,1476,l),
(190,1476,l)
);
},
{
closed = 1;
nodes = (
(937,1648,o),
(1028,1721,o),
(1028,1908,c),
(894,1908,l),
(894,1845,o),
(862,1822,o),
(822,1822,cs),
(745,1822,o),
(724,1924,o),
(549,1924,cs),
(413,1924,o),
(322,1851,o),
(322,1664,c),
(456,1664,l),
(456,1725,o),
(482,1751,o),
(520,1751,cs),
(600,1751,o),
(627,1648,o),
(801,1648,cs)
);
}
);
};
layerId = "C6C96970-2BBD-4A47-8C90-C83F37B7F23D";
shapes = (
{
ref = E;
},
{
pos = (675,0);
ref = tildecomb.case;
}
);
width = 1294;
}
);
unicode = 7868;
},
{
glyphname = Etildebelow;
lastChange = "2024-04-12 10:11:21 +0000";
layers = (
{
background = {
anchors = (
{
name = bottom;
pos = (670,-359);
},
{
name = ogonek;
pos = (1133,0);
},
{
name = top;
pos = (670,1446);
},
{
name = topleft;
pos = (20,1446);
}
);
shapes = (
{
closed = 1;
nodes = (
(218,0,l),
(1133,0,l),
(1133,150,l),
(419,150,l),
(419,670,l),
(1039,670,l),
(1039,820,l),
(419,820,l),
(419,1296,l),
(1121,1296,l),
(1121,1446,l),
(218,1446,l)
);
},
{
closed = 1;
nodes = (
(901,-359,o),
(967,-295,o),
(967,-130,c),
(870,-130,l),
(870,-192,o),
(841,-223,o),
(800,-223,cs),
(729,-223,o),
(697,-116,o),
(560,-116,cs),
(440,-116,o),
(374,-180,o),
(374,-345,c),
(471,-345,l),
(471,-283,o),
(500,-252,o),
(541,-252,cs),
(612,-252,o),
(644,-359,o),
(781,-359,cs)
);
}
);
};
layerId = "F85E8FEC-B3CD-4A54-BF30-AB1986ECE904";
shapes = (
{
ref = E;
},
{
pos = (671,0);
ref = tildebelowcomb;
}
);
width = 1255;
},
{
background = {
anchors = (
{
name = bottom;
pos = (675,-382);
},
{
name = ogonek;
pos = (1168,0);
},
{
name = top;
pos = (675,1476);
},
{
name = topleft;
pos = (20,1476);
}
);
shapes = (
{
closed = 1;
nodes = (
(190,0,l),
(1168,0,l),
(1168,224,l),
(486,224,l),
(486,646,l),
(1081,646,l),
(1081,860,l),
(486,860,l),
(486,1252,l),
(1157,1252,l),
(1157,1476,l),
(190,1476,l)
);
},
{
closed = 1;
nodes = (
(937,-382,o),
(1028,-309,o),
(1028,-122,c),
(894,-122,l),
(894,-185,o),
(862,-208,o),
(822,-208,cs),
(745,-208,o),
(724,-106,o),
(549,-106,cs),
(413,-106,o),
(322,-179,o),
(322,-366,c),
(456,-366,l),
(456,-305,o),
(482,-279,o),
(520,-279,cs),
(600,-279,o),
(627,-382,o),
(801,-382,cs)
);
}
);
};
layerId = "C6C96970-2BBD-4A47-8C90-C83F37B7F23D";
shapes = (
{
ref = E;
},
{
pos = (675,0);
ref = tildebelowcomb;
}
);
width = 1294;
}
);
unicode = 7706;
},
{
glyphname = Schwa;
lastChange = "2024-04-12 10:11:14 +0000";
layers = (
{
background = {
shapes = (
{
closed = 1;
nodes = (
(259,1468,o),
(156,1308,o),
(156,1010,cs),
(156,997,l),
(347,980,l),
(347,1007,ls),
(347,1269,o),
(439,1306,o),
(697,1306,cs),
(951,1306,o),
(1072,1234,o),
(1072,977,cs),
(1072,786,l),
(156,786,l),
(156,438,ls),
(156,147,o),
(235,-22,o),
(695,-22,cs),
(1178,-22,o),
(1274,185,o),
(1274,486,cs),
(1274,940,ls),
(1274,1246,o),
(1182,1468,o),
(697,1468,cs)
);
},
{
closed = 1;
nodes = (
(440,140,o),
(347,165,o),
(347,424,cs),
(347,638,l),
(1072,638,l),
(1072,455,ls),
(1072,199,o),
(947,140,o),
(691,140,cs)
);
}
);
};
layerId = "F85E8FEC-B3CD-4A54-BF30-AB1986ECE904";
shapes = (
{
closed = 1;
nodes = (
(259,1468,o),
(156,1308,o),
(156,1010,cs),
(156,997,l),
(347,980,l),
(347,1007,ls),
(347,1269,o),
(439,1306,o),
(697,1306,cs),
(951,1306,o),
(1072,1234,o),
(1072,977,cs),
(1072,786,l),
(156,786,l),
(156,438,ls),
(156,147,o),
(235,-22,o),
(695,-22,cs),
(1178,-22,o),
(1274,185,o),
(1274,486,cs),
(1274,940,ls),
(1274,1246,o),
(1182,1468,o),
(697,1468,cs)
);
},
{
closed = 1;
nodes = (
(440,140,o),
(347,165,o),
(347,424,cs),
(347,638,l),
(1072,638,l),
(1072,455,ls),
(1072,199,o),
(947,140,o),
(691,140,cs)
);
}
);
width = 1456;
},
{
background = {
shapes = (
{
closed = 1;
nodes = (
(206,1501,o),
(128,1281,o),
(128,1023,cs),
(128,985,l),
(419,971,l),
(419,1026,ls),
(419,1213,o),
(485,1268,o),
(710,1268,cs),
(930,1268,o),
(1033,1215,o),
(1033,1012,cs),
(1033,806,l),
(128,806,l),
(128,480,ls),
(128,190,o),
(198,-26,o),
(710,-26,cs),
(1236,-26,o),
(1330,193,o),
(1330,484,cs),
(1330,977,ls),
(1330,1275,o),
(1239,1501,o),
(710,1501,cs)
);
},
{
closed = 1;
nodes = (
(484,207,o),
(419,250,o),
(419,460,cs),
(419,576,l),
(1033,576,l),
(1033,454,ls),
(1033,252,o),
(931,207,o),
(709,207,cs)
);
}
);
};
layerId = "C6C96970-2BBD-4A47-8C90-C83F37B7F23D";
shapes = (
{
closed = 1;
nodes = (
(206,1501,o),
(128,1281,o),
(128,1023,cs),
(128,985,l),
(419,971,l),
(419,1026,ls),
(419,1213,o),
(485,1268,o),
(710,1268,cs),
(930,1268,o),
(1033,1215,o),
(1033,1012,cs),
(1033,806,l),
(128,806,l),
(128,480,ls),
(128,190,o),
(198,-26,o),
(710,-26,cs),
(1236,-26,o),
(1330,193,o),
(1330,484,cs),
(1330,977,ls),
(1330,1275,o),
(1239,1501,o),
(710,1501,cs)
);
},
{
closed = 1;
nodes = (
(484,207,o),
(419,250,o),
(419,460,cs),
(419,576,l),
(1033,576,l),
(1033,454,ls),
(1033,252,o),
(931,207,o),
(709,207,cs)
);
}
);
width = 1490;
}
);
unicode = 399;
},
{
glyphname = Ezh;
lastChange = "2024-04-12 10:11:14 +0000";
layers = (
{
anchors = (
{
name = bottom;
pos = (645,0);
},
{
name = top;
pos = (665,1446);
}
);
background = {
anchors = (
{
name = bottom;
pos = (645,0);
},
{
name = top;
pos = (665,1446);
}
);
shapes = (
{
closed = 1;
nodes = (
(960,-420,o),
(1146,-237,o),
(1146,113,cs),
(1146,484,o),
(947,676,o),
(532,676,c),
(532,516,l),
(885,516,o),
(941,398,o),
(941,115,cs),
(941,-144,o),
(858,-258,o),
(650,-258,cs),
(423,-258,o),
(310,-196,o),
(292,156,c),
(100,156,l),
(139,-276,o),
(270,-420,o),
(637,-420,cs)
);
},
{
closed = 1;
nodes = (
(1135,1258,l),
(1135,1446,l),
(172,1446,l),
(172,1296,l),
(975,1296,l),
(971,1325,l),
(532,676,l),
(651,534,l)
);
}
);
};
layerId = "F85E8FEC-B3CD-4A54-BF30-AB1986ECE904";
shapes = (
{
closed = 1;
nodes = (
(960,-420,o),
(1146,-237,o),
(1146,113,cs),
(1146,484,o),
(947,676,o),
(532,676,c),
(532,516,l),
(885,516,o),
(941,398,o),
(941,115,cs),
(941,-144,o),
(858,-258,o),
(650,-258,cs),
(423,-258,o),
(310,-196,o),
(292,156,c),
(100,156,l),
(139,-276,o),
(270,-420,o),
(637,-420,cs)
);
},
{
closed = 1;
nodes = (
(1135,1258,l),
(1135,1446,l),
(172,1446,l),
(172,1296,l),
(975,1296,l),
(971,1325,l),
(532,676,l),
(651,534,l)
);
}
);
width = 1266;
},
{
anchors = (
{
name = bottom;
pos = (684,0);
},
{
name = top;
pos = (704,1476);
}
);
background = {
anchors = (
{
name = bottom;
pos = (684,0);
},
{
name = top;
pos = (704,1476);
}
);
shapes = (
{
closed = 1;
nodes = (
(1111,-429,o),
(1264,-183,o),
(1264,128,cs),
(1264,477,o),
(1084,706,o),
(558,706,c),
(558,485,l),
(916,485,o),
(982,367,o),
(982,134,cs),
(982,-89,o),
(906,-204,o),
(697,-204,cs),
(475,-204,o),
(394,-86,o),
(394,158,c),
(126,158,l),
(126,-210,o),
(287,-429,o),
(694,-429,cs)
);
},
{
closed = 1;
nodes = (
(1224,1242,l),
(1224,1476,l),
(199,1476,l),
(199,1252,l),
(942,1252,l),
(936,1268,l),
(558,706,l),
(808,600,l)
);
}
);
};
layerId = "C6C96970-2BBD-4A47-8C90-C83F37B7F23D";
shapes = (
{
closed = 1;
nodes = (
(1111,-429,o),
(1264,-183,o),
(1264,128,cs),
(1264,477,o),
(1084,706,o),
(558,706,c),
(558,485,l),
(916,485,o),
(982,367,o),
(982,134,cs),
(982,-89,o),
(906,-204,o),
(697,-204,cs),
(475,-204,o),
(394,-86,o),
(394,158,c),
(126,158,l),
(126,-210,o),
(287,-429,o),
(694,-429,cs)
);
},
{
closed = 1;
nodes = (
(1224,1242,l),
(1224,1476,l),
(199,1476,l),
(199,1252,l),
(942,1252,l),
(936,1268,l),
(558,706,l),
(808,600,l)
);
}
);
width = 1410;
}
);
unicode = 439;
},
{
glyphname = Ezhcaron;
lastChange = "2024-04-12 10:11:21 +0000";
layers = (
{
background = {
anchors = (
{
name = bottom;
pos = (645,0);
},
{
name = top;
pos = (665,1955);
}
);
shapes = (
{
closed = 1;
nodes = (
(960,-420,o),
(1146,-237,o),
(1146,113,cs),
(1146,484,o),
(947,676,o),
(532,676,c),
(532,516,l),
(885,516,o),
(941,398,o),
(941,115,cs),
(941,-144,o),
(858,-258,o),
(650,-258,cs),
(423,-258,o),
(310,-196,o),
(292,156,c),
(100,156,l),
(139,-276,o),
(270,-420,o),
(637,-420,cs)
);
},
{
closed = 1;
nodes = (
(1135,1258,l),
(1135,1446,l),
(172,1446,l),
(172,1296,l),
(975,1296,l),
(971,1325,l),
(532,676,l),
(651,534,l)
);
},
{
closed = 1;
nodes = (
(753,1635,l),
(1008,1955,l),
(870,1955,l),
(614,1725,l),
(718,1725,l),
(461,1955,l),
(323,1955,l),
(578,1635,l)
);
}
);
};
layerId = "F85E8FEC-B3CD-4A54-BF30-AB1986ECE904";
shapes = (
{
ref = Ezh;
},
{
pos = (666,0);
ref = caroncomb.case;
}
);
width = 1266;
},
{
background = {
anchors = (
{
name = bottom;
pos = (684,0);
},
{
name = top;
pos = (704,1993);
}
);
shapes = (
{
closed = 1;
nodes = (
(1111,-429,o),
(1264,-183,o),
(1264,128,cs),
(1264,477,o),
(1084,706,o),
(558,706,c),
(558,485,l),
(916,485,o),
(982,367,o),
(982,134,cs),
(982,-89,o),
(906,-204,o),
(697,-204,cs),
(475,-204,o),
(394,-86,o),
(394,158,c),
(126,158,l),
(126,-210,o),
(287,-429,o),
(694,-429,cs)
);
},
{
closed = 1;
nodes = (
(1224,1242,l),
(1224,1476,l),
(199,1476,l),
(199,1252,l),
(942,1252,l),
(936,1268,l),
(558,706,l),
(808,600,l)
);
},
{
closed = 1;
nodes = (
(803,1638,l),
(1080,1993,l),
(901,1993,l),
(671,1788,l),
(738,1788,l),
(507,1993,l),
(328,1993,l),
(605,1638,l)
);
}
);
};
layerId = "C6C96970-2BBD-4A47-8C90-C83F37B7F23D";
shapes = (
{
ref = Ezh;
},
{
pos = (704,0);
ref = caroncomb.case;
}
);
width = 1410;
}
);
unicode = 494;
},
{
glyphname = Ezhreversed;
lastChange = "2024-04-12 10:11:14 +0000";
layers = (
{
background = {
shapes = (
{
closed = 1;
nodes = (
(976,-420,o),
(1107,-276,o),
(1146,156,c),
(954,156,l),
(936,-196,o),
(823,-258,o),
(596,-258,cs),
(388,-258,o),
(305,-144,o),
(305,115,cs),
(305,398,o),
(361,516,o),
(714,516,c),
(714,676,l),
(299,676,o),
(100,484,o),
(100,113,cs),
(100,-237,o),
(286,-420,o),
(609,-420,cs)
);
},
{
closed = 1;
nodes = (
(714,676,l),
(275,1325,l),
(271,1296,l),
(1074,1296,l),
(1074,1446,l),
(111,1446,l),
(111,1258,l),
(595,534,l)
);
}
);
};
layerId = "F85E8FEC-B3CD-4A54-BF30-AB1986ECE904";
shapes = (
{
closed = 1;
nodes = (
(976,-420,o),
(1107,-276,o),
(1146,156,c),
(954,156,l),
(936,-196,o),
(823,-258,o),
(596,-258,cs),
(388,-258,o),
(305,-144,o),
(305,115,cs),
(305,398,o),
(361,516,o),
(714,516,c),
(714,676,l),
(299,676,o),
(100,484,o),
(100,113,cs),
(100,-237,o),
(286,-420,o),
(609,-420,cs)
);
},
{
closed = 1;
nodes = (
(714,676,l),
(275,1325,l),
(271,1296,l),
(1074,1296,l),
(1074,1446,l),
(111,1446,l),
(111,1258,l),
(595,534,l)
);
}
);
width = 1226;
},
{
background = {
shapes = (
{
closed = 1;
nodes = (
(1123,-429,o),
(1284,-210,o),
(1284,158,c),
(1016,158,l),
(1016,-86,o),
(935,-204,o),
(713,-204,cs),
(504,-204,o),
(428,-89,o),
(428,134,cs),
(428,367,o),
(494,485,o),
(852,485,c),
(852,706,l),
(326,706,o),
(146,477,o),
(146,128,cs),
(146,-183,o),
(299,-429,o),
(716,-429,cs)
);
},
{
closed = 1;
nodes = (
(852,706,l),
(474,1268,l),
(468,1252,l),
(1211,1252,l),
(1211,1476,l),
(186,1476,l),
(186,1242,l),
(602,600,l)
);
}
);
};
layerId = "C6C96970-2BBD-4A47-8C90-C83F37B7F23D";
shapes = (
{
closed = 1;
nodes = (
(1123,-429,o),
(1284,-210,o),
(1284,158,c),
(1016,158,l),
(1016,-86,o),
(935,-204,o),
(713,-204,cs),
(504,-204,o),
(428,-89,o),
(428,134,cs),
(428,367,o),
(494,485,o),
(852,485,c),
(852,706,l),
(326,706,o),
(146,477,o),
(146,128,cs),
(146,-183,o),
(299,-429,o),
(716,-429,cs)
);
},
{
closed = 1;
nodes = (
(852,706,l),
(474,1268,l),
(468,1252,l),
(1211,1252,l),
(1211,1476,l),
(186,1476,l),
(186,1242,l),
(602,600,l)
);
}
);
width = 1410;
}
);
unicode = 440;
},
{
glyphname = F;
lastChange = "2024-04-12 10:11:14 +0000";
layers = (
{
anchors = (
{
name = bottom;
pos = (641,0);
},
{
name = top;
pos = (641,1446);
}
);
background = {
anchors = (
{
name = bottom;
pos = (641,0);
},
{
name = top;
pos = (641,1446);
}
);
shapes = (
{
closed = 1;
nodes = (
(218,0,l),
(419,0,l),
(419,664,l),
(1003,664,l),
(1003,814,l),
(419,814,l),
(419,1296,l),
(1039,1296,l),
(1039,1446,l),
(218,1446,l)
);
}
);
};
layerId = "F85E8FEC-B3CD-4A54-BF30-AB1986ECE904";
shapes = (
{
closed = 1;
nodes = (
(218,0,l),
(419,0,l),
(419,664,l),
(1003,664,l),
(1003,814,l),
(419,814,l),
(419,1296,l),
(1039,1296,l),
(1039,1446,l),
(218,1446,l)
);
}
);
width = 1159;
},
{
anchors = (
{
name = bottom;
pos = (648,0);
},
{
name = top;
pos = (648,1476);
}
);
background = {
anchors = (
{
name = bottom;
pos = (648,0);
},
{
name = top;
pos = (648,1476);
}
);
shapes = (
{
closed = 1;
nodes = (
(190,0,l),
(487,0,l),
(487,634,l),
(1042,634,l),
(1042,847,l),
(487,847,l),
(487,1249,l),
(1083,1249,l),
(1083,1476,l),
(190,1476,l)
);
}
);
};
layerId = "C6C96970-2BBD-4A47-8C90-C83F37B7F23D";
shapes = (
{
closed = 1;
nodes = (
(190,0,l),
(487,0,l),
(487,634,l),
(1042,634,l),
(1042,847,l),
(487,847,l),
(487,1249,l),
(1083,1249,l),
(1083,1476,l),
(190,1476,l)
);
}
);
width = 1173;
}
);
unicode = 70;
},
{
glyphname = Fdotaccent;
lastChange = "2024-04-12 10:12:48 +0000";
layers = (
{
background = {
anchors = (
{
name = bottom;
pos = (641,0);
},
{
name = top;
pos = (641,1446);
}
);
shapes = (
{
closed = 1;
nodes = (
(218,0,l),
(419,0,l),
(419,664,l),
(1003,664,l),
(1003,814,l),
(419,814,l),
(419,1296,l),
(1039,1296,l),
(1039,1446,l),
(218,1446,l)
);
},
{
closed = 1;
nodes = (
(545,1683,l),
(739,1683,l),
(739,1891,l),
(545,1891,l)
);
}
);
};
layerId = "F85E8FEC-B3CD-4A54-BF30-AB1986ECE904";
shapes = (
{
ref = F;
},
{
pos = (641,0);
ref = dotaccentcomb.case;
}
);
width = 1159;
},
{
background = {
anchors = (
{
name = bottom;
pos = (648,0);
},
{
name = top;
pos = (648,1476);
}
);
shapes = (
{
closed = 1;
nodes = (
(190,0,l),
(487,0,l),
(487,634,l),
(1042,634,l),
(1042,847,l),
(487,847,l),
(487,1249,l),
(1083,1249,l),
(1083,1476,l),
(190,1476,l)
);
},
{
closed = 1;
nodes = (
(508,1652,l),
(782,1652,l),
(782,1917,l),
(508,1917,l)
);
}
);
};
layerId = "C6C96970-2BBD-4A47-8C90-C83F37B7F23D";
shapes = (
{
ref = F;
},
{
pos = (648,0);
ref = dotaccentcomb.case;
}
);
width = 1173;
}
);
unicode = 7710;
},
{
glyphname = Fhook;
lastChange = "2024-04-12 10:11:14 +0000";
layers = (
{
background = {
shapes = (
{
closed = 1;
nodes = (
(105,-408,ls),
(316,-408,o),
(419,-315,o),
(419,-76,cs),
(419,664,l),
(1003,664,l),
(1003,814,l),
(419,814,l),
(419,1296,l),
(1039,1296,l),
(1039,1446,l),
(218,1446,l),
(218,-69,ls),
(218,-216,o),
(178,-256,o),
(58,-256,cs),
(25,-256,l),
(38,-408,l)
);
}
);
};
layerId = "F85E8FEC-B3CD-4A54-BF30-AB1986ECE904";
shapes = (
{
closed = 1;
nodes = (
(105,-408,ls),
(316,-408,o),
(419,-315,o),
(419,-76,cs),
(419,664,l),
(1003,664,l),
(1003,814,l),
(419,814,l),
(419,1296,l),
(1039,1296,l),
(1039,1446,l),
(218,1446,l),
(218,-69,ls),
(218,-216,o),
(178,-256,o),
(58,-256,cs),
(25,-256,l),
(38,-408,l)
);
}
);
width = 1159;
},
{
background = {
shapes = (
{
closed = 1;
nodes = (
(148,-410,ls),
(364,-410,o),
(487,-299,o),
(487,-76,cs),
(487,634,l),
(1042,634,l),
(1042,847,l),
(487,847,l),
(487,1249,l),
(1083,1249,l),
(1083,1476,l),
(190,1476,l),
(190,-44,ls),
(190,-141,o),
(153,-185,o),
(74,-185,cs),
(44,-185,l),
(54,-410,l)
);
}
);
};
layerId = "C6C96970-2BBD-4A47-8C90-C83F37B7F23D";
shapes = (
{
closed = 1;
nodes = (
(148,-410,ls),
(364,-410,o),
(487,-299,o),
(487,-76,cs),
(487,634,l),
(1042,634,l),
(1042,847,l),
(487,847,l),
(487,1249,l),
(1083,1249,l),
(1083,1476,l),
(190,1476,l),
(190,-44,ls),
(190,-141,o),
(153,-185,o),
(74,-185,cs),
(44,-185,l),
(54,-410,l)
);
}
);
width = 1173;
}
);
unicode = 401;
},
{
glyphname = G;
kernLeft = C;
kernRight = G;
lastChange = "2024-04-12 10:11:14 +0000";
layers = (
{
anchors = (
{
name = bottom;
pos = (787,0);
},
{
name = top;
pos = (782,1446);
}
);
background = {
anchors = (
{
name = bottom;
pos = (787,0);
},
{
name = top;
pos = (782,1446);
}
);
shapes = (
{
closed = 1;
nodes = (
(1074,-22,o),
(1201,89,o),
(1225,246,c),
(1250,0,l),
(1360,0,l),
(1360,735,l),
(815,735,l),
(815,588,l),
(1158,588,l),
(1158,455,ls),
(1158,199,o),
(1046,140,o),
(788,140,cs),
(532,140,o),
(388,199,o),
(388,455,cs),
(388,977,ls),
(388,1234,o),
(534,1306,o),
(788,1306,cs),
(1087,1306,o),
(1160,1246,o),
(1160,1022,cs),
(1160,1000,l),
(1344,1015,l),
(1344,1037,ls),
(1344,1282,o),
(1254,1468,o),
(788,1468,cs),
(303,1468,o),
(186,1246,o),
(186,940,cs),
(186,486,ls),
(186,185,o),
(305,-22,o),
(788,-22,cs)
);
}
);
};
layerId = "F85E8FEC-B3CD-4A54-BF30-AB1986ECE904";
shapes = (
{
closed = 1;
nodes = (
(1074,-22,o),
(1201,89,o),
(1225,246,c),
(1250,0,l),
(1360,0,l),
(1360,735,l),
(815,735,l),
(815,588,l),
(1158,588,l),
(1158,455,ls),
(1158,199,o),
(1046,140,o),
(788,140,cs),
(532,140,o),
(388,199,o),
(388,455,cs),
(388,977,ls),
(388,1234,o),
(534,1306,o),
(788,1306,cs),
(1087,1306,o),
(1160,1246,o),
(1160,1022,cs),
(1160,1000,l),
(1344,1015,l),
(1344,1037,ls),
(1344,1282,o),
(1254,1468,o),
(788,1468,cs),
(303,1468,o),
(186,1246,o),
(186,940,cs),
(186,486,ls),
(186,185,o),
(305,-22,o),
(788,-22,cs)
);
}
);
width = 1556;
},
{
anchors = (
{
name = bottom;
pos = (807,0);
},
{
name = top;
pos = (817,1476);
}
);
background = {
anchors = (
{
name = bottom;
pos = (807,0);
},
{
name = top;
pos = (817,1476);
}
);
shapes = (
{
closed = 1;
nodes = (
(1132,-26,o),
(1200,123,o),
(1215,170,c),
(1262,0,l),
(1419,0,l),
(1419,757,l),
(853,757,l),
(853,562,l),
(1151,562,l),
(1151,454,ls),
(1151,252,o),
(1038,207,o),
(813,207,cs),
(591,207,o),
(458,252,o),
(458,454,cs),
(458,1012,ls),
(458,1215,o),
(593,1268,o),
(813,1268,cs),
(1035,1268,o),
(1126,1219,o),
(1126,1021,cs),
(1126,962,l),
(1418,984,l),
(1418,1007,ls),
(1418,1290,o),
(1325,1501,o),
(813,1501,cs),
(284,1501,o),
(160,1275,o),
(160,977,cs),
(160,484,ls),
(160,193,o),
(287,-26,o),
(813,-26,cs)
);
}
);
};
layerId = "C6C96970-2BBD-4A47-8C90-C83F37B7F23D";
shapes = (
{
closed = 1;
nodes = (
(1132,-26,o),
(1200,123,o),
(1215,170,c),
(1262,0,l),
(1419,0,l),
(1419,757,l),
(853,757,l),
(853,562,l),
(1151,562,l),
(1151,454,ls),
(1151,252,o),
(1038,207,o),
(813,207,cs),
(591,207,o),
(458,252,o),
(458,454,cs),
(458,1012,ls),
(458,1215,o),
(593,1268,o),
(813,1268,cs),
(1035,1268,o),
(1126,1219,o),
(1126,1021,cs),
(1126,962,l),
(1418,984,l),
(1418,1007,ls),
(1418,1290,o),
(1325,1501,o),
(813,1501,cs),
(284,1501,o),
(160,1275,o),
(160,977,cs),
(160,484,ls),
(160,193,o),
(287,-26,o),
(813,-26,cs)
);
}
);
width = 1607;
}
);
unicode = 71;
},
{
glyphname = Gacute;
kernLeft = C;
kernRight = G;
lastChange = "2024-04-12 10:11:21 +0000";
layers = (
{
background = {
anchors = (
{
name = bottom;
pos = (787,0);
},
{
name = top;
pos = (782,1982);
}
);
shapes = (
{
closed = 1;
nodes = (
(1074,-22,o),
(1201,89,o),
(1225,246,c),
(1250,0,l),
(1360,0,l),
(1360,735,l),
(815,735,l),
(815,588,l),
(1158,588,l),
(1158,455,ls),
(1158,199,o),
(1046,140,o),
(788,140,cs),
(532,140,o),
(388,199,o),
(388,455,cs),
(388,977,ls),
(388,1234,o),
(534,1306,o),
(788,1306,cs),
(1087,1306,o),
(1160,1246,o),
(1160,1022,cs),
(1160,1000,l),
(1344,1015,l),
(1344,1037,ls),
(1344,1282,o),
(1254,1468,o),
(788,1468,cs),
(303,1468,o),
(186,1246,o),
(186,940,cs),
(186,486,ls),
(186,185,o),
(305,-22,o),
(788,-22,cs)
);
},
{
closed = 1;
nodes = (
(652,1632,l),
(780,1632,l),
(1042,1982,l),
(817,1982,l)
);
}
);
};
layerId = "F85E8FEC-B3CD-4A54-BF30-AB1986ECE904";
shapes = (
{
ref = G;
},
{
pos = (782,0);
ref = acutecomb.case;
}
);
width = 1556;
},
{
background = {
anchors = (
{
name = bottom;
pos = (807,0);
},
{
name = top;
pos = (817,2022);
}
);
shapes = (
{
closed = 1;
nodes = (
(1132,-26,o),
(1200,123,o),
(1215,170,c),
(1262,0,l),
(1419,0,l),
(1419,757,l),
(853,757,l),
(853,562,l),
(1151,562,l),
(1151,454,ls),
(1151,252,o),
(1038,207,o),
(813,207,cs),
(591,207,o),
(458,252,o),
(458,454,cs),
(458,1012,ls),
(458,1215,o),
(593,1268,o),
(813,1268,cs),
(1035,1268,o),
(1126,1219,o),
(1126,1021,cs),
(1126,962,l),
(1418,984,l),
(1418,1007,ls),
(1418,1290,o),
(1325,1501,o),
(813,1501,cs),
(284,1501,o),
(160,1275,o),
(160,977,cs),
(160,484,ls),
(160,193,o),
(287,-26,o),
(813,-26,cs)
);
},
{
closed = 1;
nodes = (
(657,1657,l),
(856,1657,l),
(1137,2022,l),
(819,2022,l)
);
}
);
};
layerId = "C6C96970-2BBD-4A47-8C90-C83F37B7F23D";
shapes = (
{
ref = G;
},
{
pos = (817,0);
ref = acutecomb.case;
}
);
width = 1607;
}
);
unicode = 500;
},
{
glyphname = Gbreve;
kernLeft = C;
kernRight = G;
lastChange = "2024-04-12 10:11:21 +0000";
layers = (
{
background = {
anchors = (
{
name = bottom;
pos = (787,0);
},
{
name = top;
pos = (782,1949);
}
);
shapes = (
{
closed = 1;
nodes = (
(1074,-22,o),
(1201,89,o),
(1225,246,c),
(1250,0,l),
(1360,0,l),
(1360,735,l),
(815,735,l),
(815,588,l),
(1158,588,l),
(1158,455,ls),
(1158,199,o),
(1046,140,o),
(788,140,cs),
(532,140,o),
(388,199,o),
(388,455,cs),
(388,977,ls),
(388,1234,o),
(534,1306,o),
(788,1306,cs),
(1087,1306,o),
(1160,1246,o),
(1160,1022,cs),
(1160,1000,l),
(1344,1015,l),
(1344,1037,ls),
(1344,1282,o),
(1254,1468,o),
(788,1468,cs),
(303,1468,o),
(186,1246,o),
(186,940,cs),
(186,486,ls),
(186,185,o),
(305,-22,o),
(788,-22,cs)
);
},
{
closed = 1;
nodes = (
(962,1651,o),
(1083,1744,o),
(1083,1949,c),
(947,1949,l),
(947,1862,o),
(894,1806,o),
(782,1806,cs),
(669,1806,o),
(616,1862,o),
(616,1949,c),
(481,1949,l),
(481,1744,o),
(601,1651,o),
(782,1651,cs)
);
}
);
};
layerId = "F85E8FEC-B3CD-4A54-BF30-AB1986ECE904";
shapes = (
{
ref = G;
},
{
pos = (782,0);
ref = brevecomb.case;
}
);
width = 1556;
},
{
background = {
anchors = (
{
name = bottom;
pos = (807,0);
},
{
name = top;
pos = (817,1978);
}
);
shapes = (
{
closed = 1;
nodes = (
(1132,-26,o),
(1200,123,o),
(1215,170,c),
(1262,0,l),
(1419,0,l),
(1419,757,l),
(853,757,l),
(853,562,l),
(1151,562,l),
(1151,454,ls),
(1151,252,o),
(1038,207,o),
(813,207,cs),
(591,207,o),
(458,252,o),
(458,454,cs),
(458,1012,ls),
(458,1215,o),
(593,1268,o),
(813,1268,cs),
(1035,1268,o),
(1126,1219,o),
(1126,1021,cs),
(1126,962,l),
(1418,984,l),
(1418,1007,ls),
(1418,1290,o),
(1325,1501,o),
(813,1501,cs),
(284,1501,o),
(160,1275,o),
(160,977,cs),
(160,484,ls),
(160,193,o),
(287,-26,o),
(813,-26,cs)
);
},
{
closed = 1;
nodes = (
(1026,1640,o),
(1156,1758,o),
(1156,1978,c),
(956,1978,l),
(956,1891,o),
(917,1845,o),
(817,1845,cs),
(717,1845,o),
(678,1891,o),
(678,1978,c),
(478,1978,l),
(478,1758,o),
(608,1640,o),
(817,1640,cs)
);
}
);
};
layerId = "C6C96970-2BBD-4A47-8C90-C83F37B7F23D";
shapes = (
{
ref = G;
},
{
pos = (817,0);
ref = brevecomb.case;
}
);
width = 1607;
}
);
unicode = 286;
},
{
glyphname = Gcaron;
kernLeft = C;
kernRight = G;
lastChange = "2024-04-12 10:11:21 +0000";
layers = (
{
background = {
anchors = (
{
name = bottom;
pos = (787,0);
},
{
name = top;
pos = (782,1955);
}
);
shapes = (
{
closed = 1;
nodes = (
(1074,-22,o),
(1201,89,o),
(1225,246,c),
(1250,0,l),
(1360,0,l),
(1360,735,l),
(815,735,l),
(815,588,l),
(1158,588,l),
(1158,455,ls),
(1158,199,o),
(1046,140,o),
(788,140,cs),
(532,140,o),
(388,199,o),
(388,455,cs),
(388,977,ls),
(388,1234,o),
(534,1306,o),
(788,1306,cs),
(1087,1306,o),
(1160,1246,o),
(1160,1022,cs),
(1160,1000,l),
(1344,1015,l),
(1344,1037,ls),
(1344,1282,o),
(1254,1468,o),
(788,1468,cs),
(303,1468,o),
(186,1246,o),
(186,940,cs),
(186,486,ls),
(186,185,o),
(305,-22,o),
(788,-22,cs)
);
},
{
closed = 1;
nodes = (
(870,1635,l),
(1125,1955,l),
(987,1955,l),
(731,1725,l),
(835,1725,l),
(578,1955,l),
(440,1955,l),
(695,1635,l)
);
}
);
};
layerId = "F85E8FEC-B3CD-4A54-BF30-AB1986ECE904";
shapes = (
{
ref = G;
},
{
pos = (783,0);
ref = caroncomb.case;
}
);
width = 1556;
},
{
background = {
anchors = (
{
name = bottom;
pos = (807,0);
},
{
name = top;
pos = (817,1993);
}
);
shapes = (
{
closed = 1;
nodes = (
(1132,-26,o),
(1200,123,o),
(1215,170,c),
(1262,0,l),
(1419,0,l),
(1419,757,l),
(853,757,l),
(853,562,l),
(1151,562,l),
(1151,454,ls),
(1151,252,o),
(1038,207,o),
(813,207,cs),
(591,207,o),
(458,252,o),
(458,454,cs),
(458,1012,ls),
(458,1215,o),
(593,1268,o),
(813,1268,cs),
(1035,1268,o),
(1126,1219,o),
(1126,1021,cs),
(1126,962,l),
(1418,984,l),
(1418,1007,ls),
(1418,1290,o),
(1325,1501,o),
(813,1501,cs),
(284,1501,o),
(160,1275,o),
(160,977,cs),
(160,484,ls),
(160,193,o),
(287,-26,o),
(813,-26,cs)
);
},
{
closed = 1;
nodes = (
(916,1638,l),
(1193,1993,l),
(1014,1993,l),
(784,1788,l),
(851,1788,l),
(620,1993,l),
(441,1993,l),
(718,1638,l)
);
}
);
};
layerId = "C6C96970-2BBD-4A47-8C90-C83F37B7F23D";
shapes = (
{
ref = G;
},
{
pos = (817,0);
ref = caroncomb.case;
}
);
width = 1607;
}
);
unicode = 486;
},
{
glyphname = Gcircumflex;
kernLeft = C;
kernRight = G;
lastChange = "2024-04-12 10:11:21 +0000";
layers = (
{
background = {
anchors = (
{
name = bottom;
pos = (787,0);
},
{
name = top;
pos = (782,1955);
}
);
shapes = (
{
closed = 1;
nodes = (
(1074,-22,o),
(1201,89,o),
(1225,246,c),
(1250,0,l),
(1360,0,l),
(1360,735,l),
(815,735,l),
(815,588,l),
(1158,588,l),
(1158,455,ls),
(1158,199,o),
(1046,140,o),
(788,140,cs),
(532,140,o),
(388,199,o),
(388,455,cs),
(388,977,ls),
(388,1234,o),
(534,1306,o),
(788,1306,cs),
(1087,1306,o),
(1160,1246,o),
(1160,1022,cs),
(1160,1000,l),
(1344,1015,l),
(1344,1037,ls),
(1344,1282,o),
(1254,1468,o),
(788,1468,cs),
(303,1468,o),
(186,1246,o),
(186,940,cs),
(186,486,ls),
(186,185,o),
(305,-22,o),
(788,-22,cs)
);
},
{
closed = 1;
nodes = (
(578,1635,l),
(835,1865,l),
(731,1865,l),
(987,1635,l),
(1125,1635,l),
(870,1955,l),
(695,1955,l),
(440,1635,l)
);
}
);
};
layerId = "F85E8FEC-B3CD-4A54-BF30-AB1986ECE904";
shapes = (
{
ref = G;
},
{
pos = (783,0);
ref = circumflexcomb.case;
}
);
width = 1556;
},
{
background = {
anchors = (
{
name = bottom;
pos = (807,0);
},
{
name = top;
pos = (817,1993);
}
);
shapes = (
{
closed = 1;
nodes = (
(1132,-26,o),
(1200,123,o),
(1215,170,c),
(1262,0,l),
(1419,0,l),
(1419,757,l),
(853,757,l),
(853,562,l),
(1151,562,l),
(1151,454,ls),
(1151,252,o),
(1038,207,o),
(813,207,cs),
(591,207,o),
(458,252,o),
(458,454,cs),
(458,1012,ls),
(458,1215,o),
(593,1268,o),
(813,1268,cs),
(1035,1268,o),
(1126,1219,o),
(1126,1021,cs),
(1126,962,l),
(1418,984,l),
(1418,1007,ls),
(1418,1290,o),
(1325,1501,o),
(813,1501,cs),
(284,1501,o),
(160,1275,o),
(160,977,cs),
(160,484,ls),
(160,193,o),
(287,-26,o),
(813,-26,cs)
);
},
{
closed = 1;
nodes = (
(620,1638,l),
(851,1843,l),
(784,1843,l),
(1014,1638,l),
(1193,1638,l),
(916,1993,l),
(718,1993,l),
(441,1638,l)
);
}
);
};
layerId = "C6C96970-2BBD-4A47-8C90-C83F37B7F23D";
shapes = (
{
ref = G;
},
{
pos = (817,0);
ref = circumflexcomb.case;
}
);
width = 1607;
}
);
unicode = 284;
},
{
glyphname = Gcommaaccent;
kernLeft = C;
kernRight = G;
lastChange = "2024-04-12 10:11:21 +0000";
layers = (
{
background = {
anchors = (
{
name = bottom;
pos = (787,-574);
},
{
name = top;
pos = (782,1446);
}
);
shapes = (
{
closed = 1;
nodes = (
(1074,-22,o),
(1201,89,o),
(1225,246,c),
(1250,0,l),
(1360,0,l),
(1360,735,l),
(815,735,l),
(815,588,l),
(1158,588,l),
(1158,455,ls),
(1158,199,o),
(1046,140,o),
(788,140,cs),
(532,140,o),
(388,199,o),
(388,455,cs),
(388,977,ls),
(388,1234,o),
(534,1306,o),
(788,1306,cs),
(1087,1306,o),
(1160,1246,o),
(1160,1022,cs),
(1160,1000,l),
(1344,1015,l),
(1344,1037,ls),
(1344,1282,o),
(1254,1468,o),
(788,1468,cs),
(303,1468,o),
(186,1246,o),
(186,940,cs),
(186,486,ls),
(186,185,o),
(305,-22,o),
(788,-22,cs)
);
},
{
closed = 1;
nodes = (
(769,-574,l),
(861,-488,o),
(904,-369,o),
(904,-217,cs),
(904,-125,l),
(670,-125,l),
(670,-358,l),
(824,-358,l),
(785,-277,l),
(786,-287,o),
(786,-295,o),
(786,-304,cs),
(786,-397,o),
(757,-464,o),
(681,-537,c)
);
}
);
};
layerId = "F85E8FEC-B3CD-4A54-BF30-AB1986ECE904";
shapes = (
{
ref = G;
},
{
pos = (790,0);
ref = commaaccentcomb.case;
}
);
width = 1556;
},
{
background = {
anchors = (
{
name = bottom;
pos = (807,-635);
},
{
name = top;
pos = (817,1476);
}
);
shapes = (
{
closed = 1;
nodes = (
(1132,-26,o),
(1200,123,o),
(1215,170,c),
(1262,0,l),
(1419,0,l),
(1419,757,l),
(853,757,l),
(853,562,l),
(1151,562,l),
(1151,454,ls),
(1151,252,o),
(1038,207,o),
(813,207,cs),
(591,207,o),
(458,252,o),
(458,454,cs),
(458,1012,ls),
(458,1215,o),
(593,1268,o),
(813,1268,cs),
(1035,1268,o),
(1126,1219,o),
(1126,1021,cs),
(1126,962,l),
(1418,984,l),
(1418,1007,ls),
(1418,1290,o),
(1325,1501,o),
(813,1501,cs),
(284,1501,o),
(160,1275,o),
(160,977,cs),
(160,484,ls),
(160,193,o),
(287,-26,o),
(813,-26,cs)
);
},
{
closed = 1;
nodes = (
(791,-635,l),
(897,-535,o),
(947,-420,o),
(947,-219,cs),
(947,-113,l),
(666,-113,l),
(666,-384,l),
(855,-384,l),
(789,-290,l),
(790,-301,o),
(790,-311,o),
(790,-321,cs),
(790,-429,o),
(750,-512,o),
(674,-585,c)
);
}
);
};
layerId = "C6C96970-2BBD-4A47-8C90-C83F37B7F23D";
shapes = (
{
ref = G;
},
{
pos = (806,0);
ref = commaaccentcomb.case;
}
);
width = 1607;
}
);
unicode = 290;
},
{
glyphname = Gdotaccent;
kernLeft = C;
kernRight = G;
lastChange = "2024-04-12 10:11:21 +0000";
layers = (
{
background = {
anchors = (
{
name = bottom;
pos = (787,0);
},
{
name = top;
pos = (782,1822);
}
);
shapes = (
{
closed = 1;
nodes = (
(1074,-22,o),
(1201,89,o),
(1225,246,c),
(1250,0,l),
(1360,0,l),
(1360,735,l),
(815,735,l),
(815,588,l),
(1158,588,l),
(1158,455,ls),
(1158,199,o),
(1046,140,o),
(788,140,cs),
(532,140,o),
(388,199,o),
(388,455,cs),
(388,977,ls),
(388,1234,o),
(534,1306,o),
(788,1306,cs),
(1087,1306,o),
(1160,1246,o),
(1160,1022,cs),
(1160,1000,l),
(1344,1015,l),
(1344,1037,ls),
(1344,1282,o),
(1254,1468,o),
(788,1468,cs),
(303,1468,o),
(186,1246,o),
(186,940,cs),
(186,486,ls),
(186,185,o),
(305,-22,o),
(788,-22,cs)
);
},
{
closed = 1;
nodes = (
(685,1614,l),
(879,1614,l),
(879,1822,l),
(685,1822,l)
);
}
);
};
layerId = "F85E8FEC-B3CD-4A54-BF30-AB1986ECE904";
shapes = (
{
ref = G;
},
{
pos = (782,0);
ref = dotaccentcomb.case;
}
);
width = 1556;
},
{
background = {
anchors = (
{
name = bottom;
pos = (807,0);
},
{
name = top;
pos = (817,1933);
}
);
shapes = (
{
closed = 1;
nodes = (
(1132,-26,o),
(1200,123,o),
(1215,170,c),
(1262,0,l),
(1419,0,l),
(1419,757,l),
(853,757,l),
(853,562,l),
(1151,562,l),
(1151,454,ls),
(1151,252,o),
(1038,207,o),
(813,207,cs),
(591,207,o),
(458,252,o),
(458,454,cs),
(458,1012,ls),
(458,1215,o),
(593,1268,o),
(813,1268,cs),
(1035,1268,o),
(1126,1219,o),
(1126,1021,cs),
(1126,962,l),
(1418,984,l),
(1418,1007,ls),
(1418,1290,o),
(1325,1501,o),
(813,1501,cs),
(284,1501,o),
(160,1275,o),
(160,977,cs),
(160,484,ls),
(160,193,o),
(287,-26,o),
(813,-26,cs)
);
},
{
closed = 1;
nodes = (
(690,1668,l),
(944,1668,l),
(944,1933,l),
(690,1933,l)
);
}
);
};
layerId = "C6C96970-2BBD-4A47-8C90-C83F37B7F23D";
shapes = (
{
ref = G;
},
{
pos = (817,0);
ref = dotaccentcomb.case;
}
);
width = 1607;
}
);
unicode = 288;
},
